M48
; DRILL file {KiCad 7.0.6} date Wed Sep 13 14:16:39 2023
; FORMAT={-:-/ absolute / metric / decimal}
; #@! TF.CreationDate,2023-09-13T14:16:39-06:00
; #@! TF.GenerationSoftware,Kicad,Pcbnew,7.0.6
; #@! TF.FileFunction,MixedPlating,1,4
FMAT,2
METRIC
; #@! TA.AperFunction,Plated,PTH,ViaDrill
T1C0.305
; #@! TA.AperFunction,Plated,PTH,ViaDrill
T2C0.400
; #@! TA.AperFunction,Plated,PTH,ComponentDrill
T3C0.600
; #@! TA.AperFunction,Plated,PTH,ComponentDrill
T4C0.950
; #@! TA.AperFunction,Plated,PTH,ComponentDrill
T5C1.016
; #@! TA.AperFunction,NonPlated,NPTH,ComponentDrill
T6C0.650
; #@! TA.AperFunction,NonPlated,NPTH,ComponentDrill
T7C3.302
%
G90
G05
T1
X1.651Y84.701
X1.651Y33.401
X2.017Y70.018
X2.017Y18.718
X2.032Y67.81
X2.032Y16.51
X2.54Y87.876
X2.54Y36.576
X2.564Y86.836
X2.564Y35.536
X4.953Y58.666
X4.953Y7.366
X6.35Y85.082
X6.35Y33.782
X7.112Y80.002
X7.112Y73.398
X7.112Y28.702
X7.112Y22.098
X7.239Y67.81
X7.239Y16.51
X8.255Y79.875
X8.255Y74.16
X8.255Y28.575
X8.255Y22.86
X8.382Y67.937
X8.382Y16.637
X8.89Y85.082
X8.89Y64.254
X8.89Y33.782
X8.89Y12.954
X9.335Y67.746
X9.335Y16.447
X9.906Y64.381
X9.906Y13.081
X10.1Y81.8
X10.1Y30.5
X10.16Y76.7
X10.16Y25.4
X10.922Y66.54
X10.922Y15.24
X11.176Y68.318
X11.176Y17.018
X11.43Y85.082
X11.43Y33.782
X11.557Y78.732
X11.557Y27.432
X12.192Y83.05
X12.192Y31.75
X12.573Y76.7
X12.573Y25.4
X12.7Y61.46
X12.7Y10.16
X13.208Y84.32
X13.208Y33.02
X13.716Y70.985
X13.716Y19.685
X14.847Y74.8
X14.847Y23.5
X16.51Y86.86
X16.51Y84.32
X16.51Y81.145
X16.51Y77.335
X16.51Y35.56
X16.51Y33.02
X16.51Y29.845
X16.51Y26.035
X17.145Y53.84
X17.145Y2.54
X17.907Y64.0
X17.907Y12.7
X18.288Y67.81
X18.288Y16.51
X18.796Y70.985
X18.796Y19.685
X19.05Y57.015
X19.05Y5.715
X19.812Y58.92
X19.812Y7.62
X20.574Y64.889
X20.574Y13.589
X20.828Y88.13
X20.828Y85.59
X20.828Y36.83
X20.828Y34.29
X20.955Y74.16
X20.955Y22.86
X20.993Y60.787
X20.993Y9.487
X21.032Y77.25
X21.032Y25.95
X21.556Y63.111
X21.556Y11.811
X21.59Y94.8
X21.59Y43.5
X22.86Y92.575
X22.86Y41.275
X24.13Y94.48
X24.13Y85.209
X24.13Y81.78
X24.13Y58.285
X24.13Y43.18
X24.13Y33.909
X24.13Y30.48
X24.13Y6.985
X25.4Y92.575
X25.4Y63.619
X25.4Y41.275
X25.4Y12.319
X26.035Y80.882
X26.035Y29.582
X26.67Y95.115
X26.67Y93.21
X26.67Y60.19
X26.67Y43.815
X26.67Y41.91
X26.67Y8.89
X28.067Y63.619
X28.067Y12.319
X28.321Y85.209
X28.321Y83.05
X28.321Y80.891
X28.321Y78.859
X28.321Y76.7
X28.321Y74.541
X28.321Y72.509
X28.321Y70.35
X28.321Y68.191
X28.321Y33.909
X28.321Y31.75
X28.321Y29.591
X28.321Y27.559
X28.321Y25.4
X28.321Y23.241
X28.321Y21.209
X28.321Y19.05
X28.321Y16.891
X29.21Y94.48
X29.21Y91.94
X29.21Y58.285
X29.21Y43.18
X29.21Y40.64
X29.21Y6.985
X30.48Y85.209
X30.48Y83.05
X30.48Y80.891
X30.48Y78.859
X30.48Y76.7
X30.48Y74.541
X30.48Y72.509
X30.48Y70.35
X30.48Y68.191
X30.48Y65.397
X30.48Y33.909
X30.48Y31.75
X30.48Y29.591
X30.48Y27.559
X30.48Y25.4
X30.48Y23.241
X30.48Y21.209
X30.48Y19.05
X30.48Y16.891
X30.48Y14.097
X31.623Y64.889
X31.623Y13.589
X32.512Y85.209
X32.512Y83.05
X32.512Y80.891
X32.512Y78.859
X32.512Y76.7
X32.512Y74.541
X32.512Y72.509
X32.512Y70.35
X32.512Y68.191
X32.512Y33.909
X32.512Y31.75
X32.512Y29.591
X32.512Y27.559
X32.512Y25.4
X32.512Y23.241
X32.512Y21.209
X32.512Y19.05
X32.512Y16.891
X34.671Y85.209
X34.671Y83.05
X34.671Y80.891
X34.671Y78.859
X34.671Y76.7
X34.671Y74.541
X34.671Y72.509
X34.671Y70.35
X34.671Y68.191
X34.671Y33.909
X34.671Y31.75
X34.671Y29.591
X34.671Y27.559
X34.671Y25.4
X34.671Y23.241
X34.671Y21.209
X34.671Y19.05
X34.671Y16.891
X35.56Y94.48
X35.56Y43.18
X36.195Y76.7
X36.195Y74.541
X36.195Y72.509
X36.195Y70.35
X36.195Y68.318
X36.195Y25.4
X36.195Y23.241
X36.195Y21.209
X36.195Y19.05
X36.195Y17.018
X36.322Y83.05
X36.322Y80.891
X36.322Y78.859
X36.322Y31.75
X36.322Y29.591
X36.322Y27.559
X36.449Y85.209
X36.449Y33.909
X37.973Y85.209
X37.973Y33.909
X38.1Y88.334
X38.1Y37.034
X38.481Y64.508
X38.481Y13.208
X39.239Y76.161
X39.239Y24.861
X39.243Y71.747
X39.243Y20.447
X39.624Y83.812
X39.624Y81.653
X39.624Y32.512
X39.624Y30.353
X39.751Y69.588
X39.751Y68.064
X39.751Y18.288
X39.751Y16.764
X40.4Y74.4
X40.4Y23.1
X40.64Y92.575
X40.64Y41.275
X41.91Y70.35
X41.91Y19.05
X42.926Y71.493
X42.926Y20.193
X43.18Y73.017
X43.18Y21.717
X44.196Y74.795
X44.196Y73.144
X44.196Y71.493
X44.196Y69.715
X44.196Y68.191
X44.196Y23.495
X44.196Y21.844
X44.196Y20.193
X44.196Y18.415
X44.196Y16.891
X44.323Y76.065
X44.323Y24.765
X45.339Y76.192
X45.339Y68.191
X45.339Y24.892
X45.339Y16.891
X46.99Y76.192
X46.99Y68.191
X46.99Y24.892
X46.99Y16.891
X48.641Y76.192
X48.641Y68.191
X48.641Y24.892
X48.641Y16.891
X49.53Y94.988
X49.53Y88.638
X49.53Y43.688
X49.53Y37.338
X50.038Y83.05
X50.038Y80.51
X50.038Y77.97
X50.038Y31.75
X50.038Y29.21
X50.038Y26.67
X55.999Y84.701
X55.999Y33.401
X56.365Y70.018
X56.365Y18.718
X56.38Y67.81
X56.38Y16.51
X56.888Y87.876
X56.888Y36.576
X56.912Y86.836
X56.912Y35.536
X59.301Y58.666
X59.301Y7.366
X60.698Y85.082
X60.698Y33.782
X61.46Y80.002
X61.46Y73.398
X61.46Y28.702
X61.46Y22.098
X61.587Y67.81
X61.587Y16.51
X62.603Y79.875
X62.603Y74.16
X62.603Y28.575
X62.603Y22.86
X62.73Y67.937
X62.73Y16.637
X63.238Y85.082
X63.238Y64.254
X63.238Y33.782
X63.238Y12.954
X63.682Y67.746
X63.682Y16.447
X64.254Y64.381
X64.254Y13.081
X64.448Y81.8
X64.448Y30.5
X64.508Y76.7
X64.508Y25.4
X65.27Y66.54
X65.27Y15.24
X65.524Y68.318
X65.524Y17.018
X65.778Y85.082
X65.778Y33.782
X65.905Y78.732
X65.905Y27.432
X66.54Y83.05
X66.54Y31.75
X66.921Y76.7
X66.921Y25.4
X67.048Y61.46
X67.048Y10.16
X67.556Y84.32
X67.556Y33.02
X68.064Y70.985
X68.064Y19.685
X69.195Y74.8
X69.195Y23.5
X70.858Y86.86
X70.858Y84.32
X70.858Y81.145
X70.858Y77.335
X70.858Y35.56
X70.858Y33.02
X70.858Y29.845
X70.858Y26.035
X71.493Y53.84
X71.493Y2.54
X72.255Y64.0
X72.255Y12.7
X72.636Y67.81
X72.636Y16.51
X73.144Y70.985
X73.144Y19.685
X73.398Y57.015
X73.398Y5.715
X74.16Y58.92
X74.16Y7.62
X74.922Y64.889
X74.922Y13.589
X75.176Y88.13
X75.176Y85.59
X75.176Y36.83
X75.176Y34.29
X75.303Y74.16
X75.303Y22.86
X75.341Y60.787
X75.341Y9.487
X75.38Y77.25
X75.38Y25.95
X75.904Y63.111
X75.904Y11.811
X75.938Y94.8
X75.938Y43.5
X77.208Y92.575
X77.208Y41.275
X78.478Y94.48
X78.478Y85.209
X78.478Y81.78
X78.478Y58.285
X78.478Y43.18
X78.478Y33.909
X78.478Y30.48
X78.478Y6.985
X79.748Y92.575
X79.748Y63.619
X79.748Y41.275
X79.748Y12.319
X80.383Y80.882
X80.383Y29.582
X81.018Y95.115
X81.018Y93.21
X81.018Y60.19
X81.018Y43.815
X81.018Y41.91
X81.018Y8.89
X82.415Y63.619
X82.415Y12.319
X82.669Y85.209
X82.669Y83.05
X82.669Y80.891
X82.669Y78.859
X82.669Y76.7
X82.669Y74.541
X82.669Y72.509
X82.669Y70.35
X82.669Y68.191
X82.669Y33.909
X82.669Y31.75
X82.669Y29.591
X82.669Y27.559
X82.669Y25.4
X82.669Y23.241
X82.669Y21.209
X82.669Y19.05
X82.669Y16.891
X83.558Y94.48
X83.558Y91.94
X83.558Y58.285
X83.558Y43.18
X83.558Y40.64
X83.558Y6.985
X84.828Y85.209
X84.828Y83.05
X84.828Y80.891
X84.828Y78.859
X84.828Y76.7
X84.828Y74.541
X84.828Y72.509
X84.828Y70.35
X84.828Y68.191
X84.828Y65.397
X84.828Y33.909
X84.828Y31.75
X84.828Y29.591
X84.828Y27.559
X84.828Y25.4
X84.828Y23.241
X84.828Y21.209
X84.828Y19.05
X84.828Y16.891
X84.828Y14.097
X85.971Y64.889
X85.971Y13.589
X86.86Y85.209
X86.86Y83.05
X86.86Y80.891
X86.86Y78.859
X86.86Y76.7
X86.86Y74.541
X86.86Y72.509
X86.86Y70.35
X86.86Y68.191
X86.86Y33.909
X86.86Y31.75
X86.86Y29.591
X86.86Y27.559
X86.86Y25.4
X86.86Y23.241
X86.86Y21.209
X86.86Y19.05
X86.86Y16.891
X89.019Y85.209
X89.019Y83.05
X89.019Y80.891
X89.019Y78.859
X89.019Y76.7
X89.019Y74.541
X89.019Y72.509
X89.019Y70.35
X89.019Y68.191
X89.019Y33.909
X89.019Y31.75
X89.019Y29.591
X89.019Y27.559
X89.019Y25.4
X89.019Y23.241
X89.019Y21.209
X89.019Y19.05
X89.019Y16.891
X89.908Y94.48
X89.908Y43.18
X90.543Y76.7
X90.543Y74.541
X90.543Y72.509
X90.543Y70.35
X90.543Y68.318
X90.543Y25.4
X90.543Y23.241
X90.543Y21.209
X90.543Y19.05
X90.543Y17.018
X90.67Y83.05
X90.67Y80.891
X90.67Y78.859
X90.67Y31.75
X90.67Y29.591
X90.67Y27.559
X90.797Y85.209
X90.797Y33.909
X92.321Y85.209
X92.321Y33.909
X92.448Y88.334
X92.448Y37.034
X92.829Y64.508
X92.829Y13.208
X93.587Y76.161
X93.587Y24.861
X93.591Y71.747
X93.591Y20.447
X93.972Y83.812
X93.972Y81.653
X93.972Y32.512
X93.972Y30.353
X94.099Y69.588
X94.099Y68.064
X94.099Y18.288
X94.099Y16.764
X94.748Y74.4
X94.748Y23.1
X94.988Y92.575
X94.988Y41.275
X96.258Y70.35
X96.258Y19.05
X97.274Y71.493
X97.274Y20.193
X97.528Y73.017
X97.528Y21.717
X98.544Y74.795
X98.544Y73.144
X98.544Y71.493
X98.544Y69.715
X98.544Y68.191
X98.544Y23.495
X98.544Y21.844
X98.544Y20.193
X98.544Y18.415
X98.544Y16.891
X98.671Y76.065
X98.671Y24.765
X99.687Y76.192
X99.687Y68.191
X99.687Y24.892
X99.687Y16.891
X101.338Y76.192
X101.338Y68.191
X101.338Y24.892
X101.338Y16.891
X102.989Y76.192
X102.989Y68.191
X102.989Y24.892
X102.989Y16.891
X103.878Y94.988
X103.878Y88.638
X103.878Y43.688
X103.878Y37.338
X104.386Y83.05
X104.386Y80.51
X104.386Y77.97
X104.386Y31.75
X104.386Y29.21
X104.386Y26.67
T2
X41.402Y77.462
X41.402Y26.162
X95.75Y77.462
X95.75Y26.162
T4
X13.97Y94.48
X13.97Y43.18
X16.51Y94.48
X16.51Y43.18
X68.318Y94.48
X68.318Y43.18
X70.858Y94.48
X70.858Y43.18
T5
X13.97Y100.83
X13.97Y49.53
X16.51Y100.83
X16.51Y49.53
X19.05Y100.83
X19.05Y52.57
X19.05Y49.53
X19.05Y1.27
X21.59Y100.83
X21.59Y52.57
X21.59Y49.53
X21.59Y1.27
X24.13Y100.83
X24.13Y52.57
X24.13Y49.53
X24.13Y1.27
X26.67Y100.83
X26.67Y52.57
X26.67Y49.53
X26.67Y1.27
X29.21Y100.83
X29.21Y52.57
X29.21Y49.53
X29.21Y1.27
X31.75Y100.83
X31.75Y52.57
X31.75Y49.53
X31.75Y1.27
X34.29Y100.83
X34.29Y52.57
X34.29Y49.53
X34.29Y1.27
X36.83Y52.57
X36.83Y1.27
X68.318Y100.83
X68.318Y49.53
X70.858Y100.83
X70.858Y49.53
X73.398Y100.83
X73.398Y52.57
X73.398Y49.53
X73.398Y1.27
X75.938Y100.83
X75.938Y52.57
X75.938Y49.53
X75.938Y1.27
X78.478Y100.83
X78.478Y52.57
X78.478Y49.53
X78.478Y1.27
X81.018Y100.83
X81.018Y52.57
X81.018Y49.53
X81.018Y1.27
X83.558Y100.83
X83.558Y52.57
X83.558Y49.53
X83.558Y1.27
X86.098Y100.83
X86.098Y52.57
X86.098Y49.53
X86.098Y1.27
X88.638Y100.83
X88.638Y52.57
X88.638Y49.53
X88.638Y1.27
X91.178Y52.57
X91.178Y1.27
T6
X4.905Y79.59
X4.905Y73.81
X4.905Y28.29
X4.905Y22.51
X59.253Y79.59
X59.253Y73.81
X59.253Y28.29
X59.253Y22.51
T7
X2.54Y99.56
X2.54Y53.84
X2.54Y48.26
X2.54Y2.54
X48.26Y99.56
X48.26Y53.84
X48.26Y48.26
X48.26Y2.54
X56.888Y99.56
X56.888Y53.84
X56.888Y48.26
X56.888Y2.54
X102.608Y99.56
X102.608Y53.84
X102.608Y48.26
X102.608Y2.54
T3
G00X1.555Y81.018
M15
G01X0.955Y81.018
M16
G05
G00X1.555Y72.382
M15
G01X0.955Y72.382
M16
G05
G00X1.555Y29.718
M15
G01X0.955Y29.718
M16
G05
G00X1.555Y21.082
M15
G01X0.955Y21.082
M16
G05
G00X5.985Y81.018
M15
G01X4.885Y81.018
M16
G05
G00X5.985Y72.382
M15
G01X4.885Y72.382
M16
G05
G00X5.985Y29.718
M15
G01X4.885Y29.718
M16
G05
G00X5.985Y21.082
M15
G01X4.885Y21.082
M16
G05
G00X55.903Y81.018
M15
G01X55.303Y81.018
M16
G05
G00X55.903Y72.382
M15
G01X55.303Y72.382
M16
G05
G00X55.903Y29.718
M15
G01X55.303Y29.718
M16
G05
G00X55.903Y21.082
M15
G01X55.303Y21.082
M16
G05
G00X60.333Y81.018
M15
G01X59.233Y81.018
M16
G05
G00X60.333Y72.382
M15
G01X59.233Y72.382
M16
G05
G00X60.333Y29.718
M15
G01X59.233Y29.718
M16
G05
G00X60.333Y21.082
M15
G01X59.233Y21.082
M16
G05
T0
M30
