%TF.GenerationSoftware,KiCad,Pcbnew,7.0.6*%
%TF.CreationDate,2023-09-13T14:16:39-06:00*%
%TF.ProjectId,SparkFun_GNSS_UM980_panelized,53706172-6b46-4756-9e5f-474e53535f55,rev?*%
%TF.SameCoordinates,Original*%
%TF.FileFunction,Soldermask,Bot*%
%TF.FilePolarity,Negative*%
%FSLAX46Y46*%
G04 Gerber Fmt 4.6, Leading zero omitted, Abs format (unit mm)*
G04 Created by KiCad (PCBNEW 7.0.6) date 2023-09-13 14:16:39*
%MOMM*%
%LPD*%
G01*
G04 APERTURE LIST*
%TA.AperFunction,Profile*%
%ADD10C,0.100000*%
%TD*%
%ADD11C,0.250000*%
%ADD12C,0.500000*%
%ADD13C,0.101600*%
%ADD14C,0.300000*%
%ADD15C,0.457200*%
%ADD16C,0.142240*%
%ADD17C,0.203200*%
%ADD18C,0.200000*%
G04 APERTURE END LIST*
D10*
X-3548000Y-500000D02*
X-3548000Y102600000D01*
X105648000Y-500000D02*
X-3548000Y-500000D01*
X105648000Y102600000D02*
X105648000Y-500000D01*
X-3548000Y102600000D02*
X105648000Y102600000D01*
X-9898000Y-6850000D02*
X-9898000Y108950000D01*
X111998000Y-6850000D02*
X-9898000Y-6850000D01*
X111998000Y108950000D02*
X111998000Y-6850000D01*
X-9898000Y108950000D02*
X111998000Y108950000D01*
X105148000Y76446000D02*
X103751000Y76446000D01*
X103751000Y68064000D01*
X105148000Y68064000D01*
X105148000Y51300000D01*
X54348000Y51300000D01*
X54348000Y102100000D01*
X105148000Y102100000D01*
X105148000Y76446000D01*
X105148000Y25146000D02*
X103751000Y25146000D01*
X103751000Y16764000D01*
X105148000Y16764000D01*
X105148000Y0D01*
X54348000Y0D01*
X54348000Y50800000D01*
X105148000Y50800000D01*
X105148000Y25146000D01*
X50800000Y76446000D02*
X49403000Y76446000D01*
X49403000Y68064000D01*
X50800000Y68064000D01*
X50800000Y51300000D01*
X0Y51300000D01*
X0Y102100000D01*
X50800000Y102100000D01*
X50800000Y76446000D01*
X50800000Y25146000D02*
X49403000Y25146000D01*
X49403000Y16764000D01*
X50800000Y16764000D01*
X50800000Y0D01*
X0Y0D01*
X0Y50800000D01*
X50800000Y50800000D01*
X50800000Y25146000D01*
D11*
X53486238Y44288095D02*
X52533857Y43621428D01*
X53486238Y43145238D02*
X51486238Y43145238D01*
X51486238Y43145238D02*
X51486238Y43907143D01*
X51486238Y43907143D02*
X51581476Y44097619D01*
X51581476Y44097619D02*
X51676714Y44192857D01*
X51676714Y44192857D02*
X51867190Y44288095D01*
X51867190Y44288095D02*
X52152904Y44288095D01*
X52152904Y44288095D02*
X52343380Y44192857D01*
X52343380Y44192857D02*
X52438619Y44097619D01*
X52438619Y44097619D02*
X52533857Y43907143D01*
X52533857Y43907143D02*
X52533857Y43145238D01*
X51486238Y45526190D02*
X51486238Y45907143D01*
X51486238Y45907143D02*
X51581476Y46097619D01*
X51581476Y46097619D02*
X51771952Y46288095D01*
X51771952Y46288095D02*
X52152904Y46383333D01*
X52152904Y46383333D02*
X52819571Y46383333D01*
X52819571Y46383333D02*
X53200523Y46288095D01*
X53200523Y46288095D02*
X53391000Y46097619D01*
X53391000Y46097619D02*
X53486238Y45907143D01*
X53486238Y45907143D02*
X53486238Y45526190D01*
X53486238Y45526190D02*
X53391000Y45335714D01*
X53391000Y45335714D02*
X53200523Y45145238D01*
X53200523Y45145238D02*
X52819571Y45050000D01*
X52819571Y45050000D02*
X52152904Y45050000D01*
X52152904Y45050000D02*
X51771952Y45145238D01*
X51771952Y45145238D02*
X51581476Y45335714D01*
X51581476Y45335714D02*
X51486238Y45526190D01*
X51486238Y47240476D02*
X53105285Y47240476D01*
X53105285Y47240476D02*
X53295761Y47335714D01*
X53295761Y47335714D02*
X53391000Y47430952D01*
X53391000Y47430952D02*
X53486238Y47621428D01*
X53486238Y47621428D02*
X53486238Y48002381D01*
X53486238Y48002381D02*
X53391000Y48192857D01*
X53391000Y48192857D02*
X53295761Y48288095D01*
X53295761Y48288095D02*
X53105285Y48383333D01*
X53105285Y48383333D02*
X51486238Y48383333D01*
X51486238Y49050000D02*
X51486238Y50192857D01*
X53486238Y49621428D02*
X51486238Y49621428D01*
X52438619Y50859524D02*
X52438619Y51526191D01*
X53486238Y51811905D02*
X53486238Y50859524D01*
X53486238Y50859524D02*
X51486238Y50859524D01*
X51486238Y50859524D02*
X51486238Y51811905D01*
X51486238Y54573810D02*
X51486238Y54954763D01*
X51486238Y54954763D02*
X51581476Y55145239D01*
X51581476Y55145239D02*
X51771952Y55335715D01*
X51771952Y55335715D02*
X52152904Y55430953D01*
X52152904Y55430953D02*
X52819571Y55430953D01*
X52819571Y55430953D02*
X53200523Y55335715D01*
X53200523Y55335715D02*
X53391000Y55145239D01*
X53391000Y55145239D02*
X53486238Y54954763D01*
X53486238Y54954763D02*
X53486238Y54573810D01*
X53486238Y54573810D02*
X53391000Y54383334D01*
X53391000Y54383334D02*
X53200523Y54192858D01*
X53200523Y54192858D02*
X52819571Y54097620D01*
X52819571Y54097620D02*
X52152904Y54097620D01*
X52152904Y54097620D02*
X51771952Y54192858D01*
X51771952Y54192858D02*
X51581476Y54383334D01*
X51581476Y54383334D02*
X51486238Y54573810D01*
X51486238Y56288096D02*
X53105285Y56288096D01*
X53105285Y56288096D02*
X53295761Y56383334D01*
X53295761Y56383334D02*
X53391000Y56478572D01*
X53391000Y56478572D02*
X53486238Y56669048D01*
X53486238Y56669048D02*
X53486238Y57050001D01*
X53486238Y57050001D02*
X53391000Y57240477D01*
X53391000Y57240477D02*
X53295761Y57335715D01*
X53295761Y57335715D02*
X53105285Y57430953D01*
X53105285Y57430953D02*
X51486238Y57430953D01*
X51486238Y58097620D02*
X51486238Y59240477D01*
X53486238Y58669048D02*
X51486238Y58669048D01*
X-861762Y44288095D02*
X-1814143Y43621428D01*
X-861762Y43145238D02*
X-2861762Y43145238D01*
X-2861762Y43145238D02*
X-2861762Y43907143D01*
X-2861762Y43907143D02*
X-2766524Y44097619D01*
X-2766524Y44097619D02*
X-2671286Y44192857D01*
X-2671286Y44192857D02*
X-2480810Y44288095D01*
X-2480810Y44288095D02*
X-2195096Y44288095D01*
X-2195096Y44288095D02*
X-2004620Y44192857D01*
X-2004620Y44192857D02*
X-1909381Y44097619D01*
X-1909381Y44097619D02*
X-1814143Y43907143D01*
X-1814143Y43907143D02*
X-1814143Y43145238D01*
X-2861762Y45526190D02*
X-2861762Y45907143D01*
X-2861762Y45907143D02*
X-2766524Y46097619D01*
X-2766524Y46097619D02*
X-2576048Y46288095D01*
X-2576048Y46288095D02*
X-2195096Y46383333D01*
X-2195096Y46383333D02*
X-1528429Y46383333D01*
X-1528429Y46383333D02*
X-1147477Y46288095D01*
X-1147477Y46288095D02*
X-957000Y46097619D01*
X-957000Y46097619D02*
X-861762Y45907143D01*
X-861762Y45907143D02*
X-861762Y45526190D01*
X-861762Y45526190D02*
X-957000Y45335714D01*
X-957000Y45335714D02*
X-1147477Y45145238D01*
X-1147477Y45145238D02*
X-1528429Y45050000D01*
X-1528429Y45050000D02*
X-2195096Y45050000D01*
X-2195096Y45050000D02*
X-2576048Y45145238D01*
X-2576048Y45145238D02*
X-2766524Y45335714D01*
X-2766524Y45335714D02*
X-2861762Y45526190D01*
X-2861762Y47240476D02*
X-1242715Y47240476D01*
X-1242715Y47240476D02*
X-1052239Y47335714D01*
X-1052239Y47335714D02*
X-957000Y47430952D01*
X-957000Y47430952D02*
X-861762Y47621428D01*
X-861762Y47621428D02*
X-861762Y48002381D01*
X-861762Y48002381D02*
X-957000Y48192857D01*
X-957000Y48192857D02*
X-1052239Y48288095D01*
X-1052239Y48288095D02*
X-1242715Y48383333D01*
X-1242715Y48383333D02*
X-2861762Y48383333D01*
X-2861762Y49050000D02*
X-2861762Y50192857D01*
X-861762Y49621428D02*
X-2861762Y49621428D01*
X-1909381Y50859524D02*
X-1909381Y51526191D01*
X-861762Y51811905D02*
X-861762Y50859524D01*
X-861762Y50859524D02*
X-2861762Y50859524D01*
X-2861762Y50859524D02*
X-2861762Y51811905D01*
X-2861762Y54573810D02*
X-2861762Y54954763D01*
X-2861762Y54954763D02*
X-2766524Y55145239D01*
X-2766524Y55145239D02*
X-2576048Y55335715D01*
X-2576048Y55335715D02*
X-2195096Y55430953D01*
X-2195096Y55430953D02*
X-1528429Y55430953D01*
X-1528429Y55430953D02*
X-1147477Y55335715D01*
X-1147477Y55335715D02*
X-957000Y55145239D01*
X-957000Y55145239D02*
X-861762Y54954763D01*
X-861762Y54954763D02*
X-861762Y54573810D01*
X-861762Y54573810D02*
X-957000Y54383334D01*
X-957000Y54383334D02*
X-1147477Y54192858D01*
X-1147477Y54192858D02*
X-1528429Y54097620D01*
X-1528429Y54097620D02*
X-2195096Y54097620D01*
X-2195096Y54097620D02*
X-2576048Y54192858D01*
X-2576048Y54192858D02*
X-2766524Y54383334D01*
X-2766524Y54383334D02*
X-2861762Y54573810D01*
X-2861762Y56288096D02*
X-1242715Y56288096D01*
X-1242715Y56288096D02*
X-1052239Y56383334D01*
X-1052239Y56383334D02*
X-957000Y56478572D01*
X-957000Y56478572D02*
X-861762Y56669048D01*
X-861762Y56669048D02*
X-861762Y57050001D01*
X-861762Y57050001D02*
X-957000Y57240477D01*
X-957000Y57240477D02*
X-1052239Y57335715D01*
X-1052239Y57335715D02*
X-1242715Y57430953D01*
X-1242715Y57430953D02*
X-2861762Y57430953D01*
X-2861762Y58097620D02*
X-2861762Y59240477D01*
X-861762Y58669048D02*
X-2861762Y58669048D01*
X-26121997Y837762D02*
X-25455331Y-1162238D01*
X-25455331Y-1162238D02*
X-24788664Y837762D01*
X-24121997Y-400333D02*
X-22598187Y-400333D01*
X-21741045Y-1067000D02*
X-21455331Y-1162238D01*
X-21455331Y-1162238D02*
X-20979140Y-1162238D01*
X-20979140Y-1162238D02*
X-20788664Y-1067000D01*
X-20788664Y-1067000D02*
X-20693426Y-971761D01*
X-20693426Y-971761D02*
X-20598188Y-781285D01*
X-20598188Y-781285D02*
X-20598188Y-590809D01*
X-20598188Y-590809D02*
X-20693426Y-400333D01*
X-20693426Y-400333D02*
X-20788664Y-305095D01*
X-20788664Y-305095D02*
X-20979140Y-209857D01*
X-20979140Y-209857D02*
X-21360093Y-114619D01*
X-21360093Y-114619D02*
X-21550569Y-19380D01*
X-21550569Y-19380D02*
X-21645807Y75858D01*
X-21645807Y75858D02*
X-21741045Y266334D01*
X-21741045Y266334D02*
X-21741045Y456810D01*
X-21741045Y456810D02*
X-21645807Y647286D01*
X-21645807Y647286D02*
X-21550569Y742524D01*
X-21550569Y742524D02*
X-21360093Y837762D01*
X-21360093Y837762D02*
X-20883902Y837762D01*
X-20883902Y837762D02*
X-20598188Y742524D01*
X-18598188Y-971761D02*
X-18693426Y-1067000D01*
X-18693426Y-1067000D02*
X-18979140Y-1162238D01*
X-18979140Y-1162238D02*
X-19169616Y-1162238D01*
X-19169616Y-1162238D02*
X-19455331Y-1067000D01*
X-19455331Y-1067000D02*
X-19645807Y-876523D01*
X-19645807Y-876523D02*
X-19741045Y-686047D01*
X-19741045Y-686047D02*
X-19836283Y-305095D01*
X-19836283Y-305095D02*
X-19836283Y-19380D01*
X-19836283Y-19380D02*
X-19741045Y361572D01*
X-19741045Y361572D02*
X-19645807Y552048D01*
X-19645807Y552048D02*
X-19455331Y742524D01*
X-19455331Y742524D02*
X-19169616Y837762D01*
X-19169616Y837762D02*
X-18979140Y837762D01*
X-18979140Y837762D02*
X-18693426Y742524D01*
X-18693426Y742524D02*
X-18598188Y647286D01*
X-17360093Y837762D02*
X-16979140Y837762D01*
X-16979140Y837762D02*
X-16788664Y742524D01*
X-16788664Y742524D02*
X-16598188Y552048D01*
X-16598188Y552048D02*
X-16502950Y171096D01*
X-16502950Y171096D02*
X-16502950Y-495571D01*
X-16502950Y-495571D02*
X-16598188Y-876523D01*
X-16598188Y-876523D02*
X-16788664Y-1067000D01*
X-16788664Y-1067000D02*
X-16979140Y-1162238D01*
X-16979140Y-1162238D02*
X-17360093Y-1162238D01*
X-17360093Y-1162238D02*
X-17550569Y-1067000D01*
X-17550569Y-1067000D02*
X-17741045Y-876523D01*
X-17741045Y-876523D02*
X-17836283Y-495571D01*
X-17836283Y-495571D02*
X-17836283Y171096D01*
X-17836283Y171096D02*
X-17741045Y552048D01*
X-17741045Y552048D02*
X-17550569Y742524D01*
X-17550569Y742524D02*
X-17360093Y837762D01*
X-14502950Y-1162238D02*
X-15169617Y-209857D01*
X-15645807Y-1162238D02*
X-15645807Y837762D01*
X-15645807Y837762D02*
X-14883902Y837762D01*
X-14883902Y837762D02*
X-14693426Y742524D01*
X-14693426Y742524D02*
X-14598188Y647286D01*
X-14598188Y647286D02*
X-14502950Y456810D01*
X-14502950Y456810D02*
X-14502950Y171096D01*
X-14502950Y171096D02*
X-14598188Y-19380D01*
X-14598188Y-19380D02*
X-14693426Y-114619D01*
X-14693426Y-114619D02*
X-14883902Y-209857D01*
X-14883902Y-209857D02*
X-15645807Y-209857D01*
X-13645807Y-114619D02*
X-12979140Y-114619D01*
X-12693426Y-1162238D02*
X-13645807Y-1162238D01*
X-13645807Y-1162238D02*
X-13645807Y837762D01*
X-13645807Y837762D02*
X-12693426Y837762D01*
D12*
X-10148000Y-250000D02*
X112248000Y-250000D01*
D11*
X-26121997Y52137762D02*
X-25455331Y50137762D01*
X-25455331Y50137762D02*
X-24788664Y52137762D01*
X-24121997Y50899667D02*
X-22598187Y50899667D01*
X-21741045Y50233000D02*
X-21455331Y50137762D01*
X-21455331Y50137762D02*
X-20979140Y50137762D01*
X-20979140Y50137762D02*
X-20788664Y50233000D01*
X-20788664Y50233000D02*
X-20693426Y50328239D01*
X-20693426Y50328239D02*
X-20598188Y50518715D01*
X-20598188Y50518715D02*
X-20598188Y50709191D01*
X-20598188Y50709191D02*
X-20693426Y50899667D01*
X-20693426Y50899667D02*
X-20788664Y50994905D01*
X-20788664Y50994905D02*
X-20979140Y51090143D01*
X-20979140Y51090143D02*
X-21360093Y51185381D01*
X-21360093Y51185381D02*
X-21550569Y51280620D01*
X-21550569Y51280620D02*
X-21645807Y51375858D01*
X-21645807Y51375858D02*
X-21741045Y51566334D01*
X-21741045Y51566334D02*
X-21741045Y51756810D01*
X-21741045Y51756810D02*
X-21645807Y51947286D01*
X-21645807Y51947286D02*
X-21550569Y52042524D01*
X-21550569Y52042524D02*
X-21360093Y52137762D01*
X-21360093Y52137762D02*
X-20883902Y52137762D01*
X-20883902Y52137762D02*
X-20598188Y52042524D01*
X-18598188Y50328239D02*
X-18693426Y50233000D01*
X-18693426Y50233000D02*
X-18979140Y50137762D01*
X-18979140Y50137762D02*
X-19169616Y50137762D01*
X-19169616Y50137762D02*
X-19455331Y50233000D01*
X-19455331Y50233000D02*
X-19645807Y50423477D01*
X-19645807Y50423477D02*
X-19741045Y50613953D01*
X-19741045Y50613953D02*
X-19836283Y50994905D01*
X-19836283Y50994905D02*
X-19836283Y51280620D01*
X-19836283Y51280620D02*
X-19741045Y51661572D01*
X-19741045Y51661572D02*
X-19645807Y51852048D01*
X-19645807Y51852048D02*
X-19455331Y52042524D01*
X-19455331Y52042524D02*
X-19169616Y52137762D01*
X-19169616Y52137762D02*
X-18979140Y52137762D01*
X-18979140Y52137762D02*
X-18693426Y52042524D01*
X-18693426Y52042524D02*
X-18598188Y51947286D01*
X-17360093Y52137762D02*
X-16979140Y52137762D01*
X-16979140Y52137762D02*
X-16788664Y52042524D01*
X-16788664Y52042524D02*
X-16598188Y51852048D01*
X-16598188Y51852048D02*
X-16502950Y51471096D01*
X-16502950Y51471096D02*
X-16502950Y50804429D01*
X-16502950Y50804429D02*
X-16598188Y50423477D01*
X-16598188Y50423477D02*
X-16788664Y50233000D01*
X-16788664Y50233000D02*
X-16979140Y50137762D01*
X-16979140Y50137762D02*
X-17360093Y50137762D01*
X-17360093Y50137762D02*
X-17550569Y50233000D01*
X-17550569Y50233000D02*
X-17741045Y50423477D01*
X-17741045Y50423477D02*
X-17836283Y50804429D01*
X-17836283Y50804429D02*
X-17836283Y51471096D01*
X-17836283Y51471096D02*
X-17741045Y51852048D01*
X-17741045Y51852048D02*
X-17550569Y52042524D01*
X-17550569Y52042524D02*
X-17360093Y52137762D01*
X-14502950Y50137762D02*
X-15169617Y51090143D01*
X-15645807Y50137762D02*
X-15645807Y52137762D01*
X-15645807Y52137762D02*
X-14883902Y52137762D01*
X-14883902Y52137762D02*
X-14693426Y52042524D01*
X-14693426Y52042524D02*
X-14598188Y51947286D01*
X-14598188Y51947286D02*
X-14502950Y51756810D01*
X-14502950Y51756810D02*
X-14502950Y51471096D01*
X-14502950Y51471096D02*
X-14598188Y51280620D01*
X-14598188Y51280620D02*
X-14693426Y51185381D01*
X-14693426Y51185381D02*
X-14883902Y51090143D01*
X-14883902Y51090143D02*
X-15645807Y51090143D01*
X-13645807Y51185381D02*
X-12979140Y51185381D01*
X-12693426Y50137762D02*
X-13645807Y50137762D01*
X-13645807Y50137762D02*
X-13645807Y52137762D01*
X-13645807Y52137762D02*
X-12693426Y52137762D01*
D12*
X-10148000Y51050000D02*
X112248000Y51050000D01*
D11*
X-26121997Y103437762D02*
X-25455331Y101437762D01*
X-25455331Y101437762D02*
X-24788664Y103437762D01*
X-24121997Y102199667D02*
X-22598187Y102199667D01*
X-21741045Y101533000D02*
X-21455331Y101437762D01*
X-21455331Y101437762D02*
X-20979140Y101437762D01*
X-20979140Y101437762D02*
X-20788664Y101533000D01*
X-20788664Y101533000D02*
X-20693426Y101628239D01*
X-20693426Y101628239D02*
X-20598188Y101818715D01*
X-20598188Y101818715D02*
X-20598188Y102009191D01*
X-20598188Y102009191D02*
X-20693426Y102199667D01*
X-20693426Y102199667D02*
X-20788664Y102294905D01*
X-20788664Y102294905D02*
X-20979140Y102390143D01*
X-20979140Y102390143D02*
X-21360093Y102485381D01*
X-21360093Y102485381D02*
X-21550569Y102580620D01*
X-21550569Y102580620D02*
X-21645807Y102675858D01*
X-21645807Y102675858D02*
X-21741045Y102866334D01*
X-21741045Y102866334D02*
X-21741045Y103056810D01*
X-21741045Y103056810D02*
X-21645807Y103247286D01*
X-21645807Y103247286D02*
X-21550569Y103342524D01*
X-21550569Y103342524D02*
X-21360093Y103437762D01*
X-21360093Y103437762D02*
X-20883902Y103437762D01*
X-20883902Y103437762D02*
X-20598188Y103342524D01*
X-18598188Y101628239D02*
X-18693426Y101533000D01*
X-18693426Y101533000D02*
X-18979140Y101437762D01*
X-18979140Y101437762D02*
X-19169616Y101437762D01*
X-19169616Y101437762D02*
X-19455331Y101533000D01*
X-19455331Y101533000D02*
X-19645807Y101723477D01*
X-19645807Y101723477D02*
X-19741045Y101913953D01*
X-19741045Y101913953D02*
X-19836283Y102294905D01*
X-19836283Y102294905D02*
X-19836283Y102580620D01*
X-19836283Y102580620D02*
X-19741045Y102961572D01*
X-19741045Y102961572D02*
X-19645807Y103152048D01*
X-19645807Y103152048D02*
X-19455331Y103342524D01*
X-19455331Y103342524D02*
X-19169616Y103437762D01*
X-19169616Y103437762D02*
X-18979140Y103437762D01*
X-18979140Y103437762D02*
X-18693426Y103342524D01*
X-18693426Y103342524D02*
X-18598188Y103247286D01*
X-17360093Y103437762D02*
X-16979140Y103437762D01*
X-16979140Y103437762D02*
X-16788664Y103342524D01*
X-16788664Y103342524D02*
X-16598188Y103152048D01*
X-16598188Y103152048D02*
X-16502950Y102771096D01*
X-16502950Y102771096D02*
X-16502950Y102104429D01*
X-16502950Y102104429D02*
X-16598188Y101723477D01*
X-16598188Y101723477D02*
X-16788664Y101533000D01*
X-16788664Y101533000D02*
X-16979140Y101437762D01*
X-16979140Y101437762D02*
X-17360093Y101437762D01*
X-17360093Y101437762D02*
X-17550569Y101533000D01*
X-17550569Y101533000D02*
X-17741045Y101723477D01*
X-17741045Y101723477D02*
X-17836283Y102104429D01*
X-17836283Y102104429D02*
X-17836283Y102771096D01*
X-17836283Y102771096D02*
X-17741045Y103152048D01*
X-17741045Y103152048D02*
X-17550569Y103342524D01*
X-17550569Y103342524D02*
X-17360093Y103437762D01*
X-14502950Y101437762D02*
X-15169617Y102390143D01*
X-15645807Y101437762D02*
X-15645807Y103437762D01*
X-15645807Y103437762D02*
X-14883902Y103437762D01*
X-14883902Y103437762D02*
X-14693426Y103342524D01*
X-14693426Y103342524D02*
X-14598188Y103247286D01*
X-14598188Y103247286D02*
X-14502950Y103056810D01*
X-14502950Y103056810D02*
X-14502950Y102771096D01*
X-14502950Y102771096D02*
X-14598188Y102580620D01*
X-14598188Y102580620D02*
X-14693426Y102485381D01*
X-14693426Y102485381D02*
X-14883902Y102390143D01*
X-14883902Y102390143D02*
X-15645807Y102390143D01*
X-13645807Y102485381D02*
X-12979140Y102485381D01*
X-12693426Y101437762D02*
X-13645807Y101437762D01*
X-13645807Y101437762D02*
X-13645807Y103437762D01*
X-13645807Y103437762D02*
X-12693426Y103437762D01*
D12*
X-10148000Y102350000D02*
X112248000Y102350000D01*
D11*
X104310238Y111554950D02*
X106310238Y112221616D01*
X106310238Y112221616D02*
X104310238Y112888283D01*
X105548333Y113554950D02*
X105548333Y115078759D01*
X106215000Y115935902D02*
X106310238Y116221616D01*
X106310238Y116221616D02*
X106310238Y116697807D01*
X106310238Y116697807D02*
X106215000Y116888283D01*
X106215000Y116888283D02*
X106119761Y116983521D01*
X106119761Y116983521D02*
X105929285Y117078759D01*
X105929285Y117078759D02*
X105738809Y117078759D01*
X105738809Y117078759D02*
X105548333Y116983521D01*
X105548333Y116983521D02*
X105453095Y116888283D01*
X105453095Y116888283D02*
X105357857Y116697807D01*
X105357857Y116697807D02*
X105262619Y116316854D01*
X105262619Y116316854D02*
X105167380Y116126378D01*
X105167380Y116126378D02*
X105072142Y116031140D01*
X105072142Y116031140D02*
X104881666Y115935902D01*
X104881666Y115935902D02*
X104691190Y115935902D01*
X104691190Y115935902D02*
X104500714Y116031140D01*
X104500714Y116031140D02*
X104405476Y116126378D01*
X104405476Y116126378D02*
X104310238Y116316854D01*
X104310238Y116316854D02*
X104310238Y116793045D01*
X104310238Y116793045D02*
X104405476Y117078759D01*
X106119761Y119078759D02*
X106215000Y118983521D01*
X106215000Y118983521D02*
X106310238Y118697807D01*
X106310238Y118697807D02*
X106310238Y118507331D01*
X106310238Y118507331D02*
X106215000Y118221616D01*
X106215000Y118221616D02*
X106024523Y118031140D01*
X106024523Y118031140D02*
X105834047Y117935902D01*
X105834047Y117935902D02*
X105453095Y117840664D01*
X105453095Y117840664D02*
X105167380Y117840664D01*
X105167380Y117840664D02*
X104786428Y117935902D01*
X104786428Y117935902D02*
X104595952Y118031140D01*
X104595952Y118031140D02*
X104405476Y118221616D01*
X104405476Y118221616D02*
X104310238Y118507331D01*
X104310238Y118507331D02*
X104310238Y118697807D01*
X104310238Y118697807D02*
X104405476Y118983521D01*
X104405476Y118983521D02*
X104500714Y119078759D01*
X104310238Y120316854D02*
X104310238Y120697807D01*
X104310238Y120697807D02*
X104405476Y120888283D01*
X104405476Y120888283D02*
X104595952Y121078759D01*
X104595952Y121078759D02*
X104976904Y121173997D01*
X104976904Y121173997D02*
X105643571Y121173997D01*
X105643571Y121173997D02*
X106024523Y121078759D01*
X106024523Y121078759D02*
X106215000Y120888283D01*
X106215000Y120888283D02*
X106310238Y120697807D01*
X106310238Y120697807D02*
X106310238Y120316854D01*
X106310238Y120316854D02*
X106215000Y120126378D01*
X106215000Y120126378D02*
X106024523Y119935902D01*
X106024523Y119935902D02*
X105643571Y119840664D01*
X105643571Y119840664D02*
X104976904Y119840664D01*
X104976904Y119840664D02*
X104595952Y119935902D01*
X104595952Y119935902D02*
X104405476Y120126378D01*
X104405476Y120126378D02*
X104310238Y120316854D01*
X106310238Y123173997D02*
X105357857Y122507330D01*
X106310238Y122031140D02*
X104310238Y122031140D01*
X104310238Y122031140D02*
X104310238Y122793045D01*
X104310238Y122793045D02*
X104405476Y122983521D01*
X104405476Y122983521D02*
X104500714Y123078759D01*
X104500714Y123078759D02*
X104691190Y123173997D01*
X104691190Y123173997D02*
X104976904Y123173997D01*
X104976904Y123173997D02*
X105167380Y123078759D01*
X105167380Y123078759D02*
X105262619Y122983521D01*
X105262619Y122983521D02*
X105357857Y122793045D01*
X105357857Y122793045D02*
X105357857Y122031140D01*
X105262619Y124031140D02*
X105262619Y124697807D01*
X106310238Y124983521D02*
X106310238Y124031140D01*
X106310238Y124031140D02*
X104310238Y124031140D01*
X104310238Y124031140D02*
X104310238Y124983521D01*
D12*
X105398000Y109200000D02*
X105398000Y-7100000D01*
D13*
X104572546Y70628191D02*
X104330641Y70458857D01*
X104572546Y70337905D02*
X104064546Y70337905D01*
X104064546Y70337905D02*
X104064546Y70531429D01*
X104064546Y70531429D02*
X104088736Y70579810D01*
X104088736Y70579810D02*
X104112927Y70604000D01*
X104112927Y70604000D02*
X104161308Y70628191D01*
X104161308Y70628191D02*
X104233879Y70628191D01*
X104233879Y70628191D02*
X104282260Y70604000D01*
X104282260Y70604000D02*
X104306451Y70579810D01*
X104306451Y70579810D02*
X104330641Y70531429D01*
X104330641Y70531429D02*
X104330641Y70337905D01*
X104572546Y70918476D02*
X104548356Y70870095D01*
X104548356Y70870095D02*
X104524165Y70845905D01*
X104524165Y70845905D02*
X104475784Y70821714D01*
X104475784Y70821714D02*
X104330641Y70821714D01*
X104330641Y70821714D02*
X104282260Y70845905D01*
X104282260Y70845905D02*
X104258070Y70870095D01*
X104258070Y70870095D02*
X104233879Y70918476D01*
X104233879Y70918476D02*
X104233879Y70991048D01*
X104233879Y70991048D02*
X104258070Y71039429D01*
X104258070Y71039429D02*
X104282260Y71063619D01*
X104282260Y71063619D02*
X104330641Y71087810D01*
X104330641Y71087810D02*
X104475784Y71087810D01*
X104475784Y71087810D02*
X104524165Y71063619D01*
X104524165Y71063619D02*
X104548356Y71039429D01*
X104548356Y71039429D02*
X104572546Y70991048D01*
X104572546Y70991048D02*
X104572546Y70918476D01*
X104233879Y71523238D02*
X104572546Y71523238D01*
X104233879Y71305524D02*
X104499975Y71305524D01*
X104499975Y71305524D02*
X104548356Y71329714D01*
X104548356Y71329714D02*
X104572546Y71378095D01*
X104572546Y71378095D02*
X104572546Y71450667D01*
X104572546Y71450667D02*
X104548356Y71499048D01*
X104548356Y71499048D02*
X104524165Y71523238D01*
X104233879Y71692571D02*
X104233879Y71886095D01*
X104064546Y71765143D02*
X104499975Y71765143D01*
X104499975Y71765143D02*
X104548356Y71789333D01*
X104548356Y71789333D02*
X104572546Y71837714D01*
X104572546Y71837714D02*
X104572546Y71886095D01*
X104548356Y72248953D02*
X104572546Y72200572D01*
X104572546Y72200572D02*
X104572546Y72103810D01*
X104572546Y72103810D02*
X104548356Y72055429D01*
X104548356Y72055429D02*
X104499975Y72031238D01*
X104499975Y72031238D02*
X104306451Y72031238D01*
X104306451Y72031238D02*
X104258070Y72055429D01*
X104258070Y72055429D02*
X104233879Y72103810D01*
X104233879Y72103810D02*
X104233879Y72200572D01*
X104233879Y72200572D02*
X104258070Y72248953D01*
X104258070Y72248953D02*
X104306451Y72273143D01*
X104306451Y72273143D02*
X104354832Y72273143D01*
X104354832Y72273143D02*
X104403213Y72031238D01*
X104064546Y72974668D02*
X104064546Y73071430D01*
X104064546Y73071430D02*
X104088736Y73119811D01*
X104088736Y73119811D02*
X104137117Y73168192D01*
X104137117Y73168192D02*
X104233879Y73192382D01*
X104233879Y73192382D02*
X104403213Y73192382D01*
X104403213Y73192382D02*
X104499975Y73168192D01*
X104499975Y73168192D02*
X104548356Y73119811D01*
X104548356Y73119811D02*
X104572546Y73071430D01*
X104572546Y73071430D02*
X104572546Y72974668D01*
X104572546Y72974668D02*
X104548356Y72926287D01*
X104548356Y72926287D02*
X104499975Y72877906D01*
X104499975Y72877906D02*
X104403213Y72853715D01*
X104403213Y72853715D02*
X104233879Y72853715D01*
X104233879Y72853715D02*
X104137117Y72877906D01*
X104137117Y72877906D02*
X104088736Y72926287D01*
X104088736Y72926287D02*
X104064546Y72974668D01*
X104233879Y73627810D02*
X104572546Y73627810D01*
X104233879Y73410096D02*
X104499975Y73410096D01*
X104499975Y73410096D02*
X104548356Y73434286D01*
X104548356Y73434286D02*
X104572546Y73482667D01*
X104572546Y73482667D02*
X104572546Y73555239D01*
X104572546Y73555239D02*
X104548356Y73603620D01*
X104548356Y73603620D02*
X104524165Y73627810D01*
X104233879Y73797143D02*
X104233879Y73990667D01*
X104064546Y73869715D02*
X104499975Y73869715D01*
X104499975Y73869715D02*
X104548356Y73893905D01*
X104548356Y73893905D02*
X104572546Y73942286D01*
X104572546Y73942286D02*
X104572546Y73990667D01*
X104572546Y19328191D02*
X104330641Y19158857D01*
X104572546Y19037905D02*
X104064546Y19037905D01*
X104064546Y19037905D02*
X104064546Y19231429D01*
X104064546Y19231429D02*
X104088736Y19279810D01*
X104088736Y19279810D02*
X104112927Y19304000D01*
X104112927Y19304000D02*
X104161308Y19328191D01*
X104161308Y19328191D02*
X104233879Y19328191D01*
X104233879Y19328191D02*
X104282260Y19304000D01*
X104282260Y19304000D02*
X104306451Y19279810D01*
X104306451Y19279810D02*
X104330641Y19231429D01*
X104330641Y19231429D02*
X104330641Y19037905D01*
X104572546Y19618476D02*
X104548356Y19570095D01*
X104548356Y19570095D02*
X104524165Y19545905D01*
X104524165Y19545905D02*
X104475784Y19521714D01*
X104475784Y19521714D02*
X104330641Y19521714D01*
X104330641Y19521714D02*
X104282260Y19545905D01*
X104282260Y19545905D02*
X104258070Y19570095D01*
X104258070Y19570095D02*
X104233879Y19618476D01*
X104233879Y19618476D02*
X104233879Y19691048D01*
X104233879Y19691048D02*
X104258070Y19739429D01*
X104258070Y19739429D02*
X104282260Y19763619D01*
X104282260Y19763619D02*
X104330641Y19787810D01*
X104330641Y19787810D02*
X104475784Y19787810D01*
X104475784Y19787810D02*
X104524165Y19763619D01*
X104524165Y19763619D02*
X104548356Y19739429D01*
X104548356Y19739429D02*
X104572546Y19691048D01*
X104572546Y19691048D02*
X104572546Y19618476D01*
X104233879Y20223238D02*
X104572546Y20223238D01*
X104233879Y20005524D02*
X104499975Y20005524D01*
X104499975Y20005524D02*
X104548356Y20029714D01*
X104548356Y20029714D02*
X104572546Y20078095D01*
X104572546Y20078095D02*
X104572546Y20150667D01*
X104572546Y20150667D02*
X104548356Y20199048D01*
X104548356Y20199048D02*
X104524165Y20223238D01*
X104233879Y20392571D02*
X104233879Y20586095D01*
X104064546Y20465143D02*
X104499975Y20465143D01*
X104499975Y20465143D02*
X104548356Y20489333D01*
X104548356Y20489333D02*
X104572546Y20537714D01*
X104572546Y20537714D02*
X104572546Y20586095D01*
X104548356Y20948953D02*
X104572546Y20900572D01*
X104572546Y20900572D02*
X104572546Y20803810D01*
X104572546Y20803810D02*
X104548356Y20755429D01*
X104548356Y20755429D02*
X104499975Y20731238D01*
X104499975Y20731238D02*
X104306451Y20731238D01*
X104306451Y20731238D02*
X104258070Y20755429D01*
X104258070Y20755429D02*
X104233879Y20803810D01*
X104233879Y20803810D02*
X104233879Y20900572D01*
X104233879Y20900572D02*
X104258070Y20948953D01*
X104258070Y20948953D02*
X104306451Y20973143D01*
X104306451Y20973143D02*
X104354832Y20973143D01*
X104354832Y20973143D02*
X104403213Y20731238D01*
X104064546Y21674668D02*
X104064546Y21771430D01*
X104064546Y21771430D02*
X104088736Y21819811D01*
X104088736Y21819811D02*
X104137117Y21868192D01*
X104137117Y21868192D02*
X104233879Y21892382D01*
X104233879Y21892382D02*
X104403213Y21892382D01*
X104403213Y21892382D02*
X104499975Y21868192D01*
X104499975Y21868192D02*
X104548356Y21819811D01*
X104548356Y21819811D02*
X104572546Y21771430D01*
X104572546Y21771430D02*
X104572546Y21674668D01*
X104572546Y21674668D02*
X104548356Y21626287D01*
X104548356Y21626287D02*
X104499975Y21577906D01*
X104499975Y21577906D02*
X104403213Y21553715D01*
X104403213Y21553715D02*
X104233879Y21553715D01*
X104233879Y21553715D02*
X104137117Y21577906D01*
X104137117Y21577906D02*
X104088736Y21626287D01*
X104088736Y21626287D02*
X104064546Y21674668D01*
X104233879Y22327810D02*
X104572546Y22327810D01*
X104233879Y22110096D02*
X104499975Y22110096D01*
X104499975Y22110096D02*
X104548356Y22134286D01*
X104548356Y22134286D02*
X104572546Y22182667D01*
X104572546Y22182667D02*
X104572546Y22255239D01*
X104572546Y22255239D02*
X104548356Y22303620D01*
X104548356Y22303620D02*
X104524165Y22327810D01*
X104233879Y22497143D02*
X104233879Y22690667D01*
X104064546Y22569715D02*
X104499975Y22569715D01*
X104499975Y22569715D02*
X104548356Y22593905D01*
X104548356Y22593905D02*
X104572546Y22642286D01*
X104572546Y22642286D02*
X104572546Y22690667D01*
X50224546Y70628191D02*
X49982641Y70458857D01*
X50224546Y70337905D02*
X49716546Y70337905D01*
X49716546Y70337905D02*
X49716546Y70531429D01*
X49716546Y70531429D02*
X49740736Y70579810D01*
X49740736Y70579810D02*
X49764927Y70604000D01*
X49764927Y70604000D02*
X49813308Y70628191D01*
X49813308Y70628191D02*
X49885879Y70628191D01*
X49885879Y70628191D02*
X49934260Y70604000D01*
X49934260Y70604000D02*
X49958451Y70579810D01*
X49958451Y70579810D02*
X49982641Y70531429D01*
X49982641Y70531429D02*
X49982641Y70337905D01*
X50224546Y70918476D02*
X50200356Y70870095D01*
X50200356Y70870095D02*
X50176165Y70845905D01*
X50176165Y70845905D02*
X50127784Y70821714D01*
X50127784Y70821714D02*
X49982641Y70821714D01*
X49982641Y70821714D02*
X49934260Y70845905D01*
X49934260Y70845905D02*
X49910070Y70870095D01*
X49910070Y70870095D02*
X49885879Y70918476D01*
X49885879Y70918476D02*
X49885879Y70991048D01*
X49885879Y70991048D02*
X49910070Y71039429D01*
X49910070Y71039429D02*
X49934260Y71063619D01*
X49934260Y71063619D02*
X49982641Y71087810D01*
X49982641Y71087810D02*
X50127784Y71087810D01*
X50127784Y71087810D02*
X50176165Y71063619D01*
X50176165Y71063619D02*
X50200356Y71039429D01*
X50200356Y71039429D02*
X50224546Y70991048D01*
X50224546Y70991048D02*
X50224546Y70918476D01*
X49885879Y71523238D02*
X50224546Y71523238D01*
X49885879Y71305524D02*
X50151975Y71305524D01*
X50151975Y71305524D02*
X50200356Y71329714D01*
X50200356Y71329714D02*
X50224546Y71378095D01*
X50224546Y71378095D02*
X50224546Y71450667D01*
X50224546Y71450667D02*
X50200356Y71499048D01*
X50200356Y71499048D02*
X50176165Y71523238D01*
X49885879Y71692571D02*
X49885879Y71886095D01*
X49716546Y71765143D02*
X50151975Y71765143D01*
X50151975Y71765143D02*
X50200356Y71789333D01*
X50200356Y71789333D02*
X50224546Y71837714D01*
X50224546Y71837714D02*
X50224546Y71886095D01*
X50200356Y72248953D02*
X50224546Y72200572D01*
X50224546Y72200572D02*
X50224546Y72103810D01*
X50224546Y72103810D02*
X50200356Y72055429D01*
X50200356Y72055429D02*
X50151975Y72031238D01*
X50151975Y72031238D02*
X49958451Y72031238D01*
X49958451Y72031238D02*
X49910070Y72055429D01*
X49910070Y72055429D02*
X49885879Y72103810D01*
X49885879Y72103810D02*
X49885879Y72200572D01*
X49885879Y72200572D02*
X49910070Y72248953D01*
X49910070Y72248953D02*
X49958451Y72273143D01*
X49958451Y72273143D02*
X50006832Y72273143D01*
X50006832Y72273143D02*
X50055213Y72031238D01*
X49716546Y72974668D02*
X49716546Y73071430D01*
X49716546Y73071430D02*
X49740736Y73119811D01*
X49740736Y73119811D02*
X49789117Y73168192D01*
X49789117Y73168192D02*
X49885879Y73192382D01*
X49885879Y73192382D02*
X50055213Y73192382D01*
X50055213Y73192382D02*
X50151975Y73168192D01*
X50151975Y73168192D02*
X50200356Y73119811D01*
X50200356Y73119811D02*
X50224546Y73071430D01*
X50224546Y73071430D02*
X50224546Y72974668D01*
X50224546Y72974668D02*
X50200356Y72926287D01*
X50200356Y72926287D02*
X50151975Y72877906D01*
X50151975Y72877906D02*
X50055213Y72853715D01*
X50055213Y72853715D02*
X49885879Y72853715D01*
X49885879Y72853715D02*
X49789117Y72877906D01*
X49789117Y72877906D02*
X49740736Y72926287D01*
X49740736Y72926287D02*
X49716546Y72974668D01*
X49885879Y73627810D02*
X50224546Y73627810D01*
X49885879Y73410096D02*
X50151975Y73410096D01*
X50151975Y73410096D02*
X50200356Y73434286D01*
X50200356Y73434286D02*
X50224546Y73482667D01*
X50224546Y73482667D02*
X50224546Y73555239D01*
X50224546Y73555239D02*
X50200356Y73603620D01*
X50200356Y73603620D02*
X50176165Y73627810D01*
X49885879Y73797143D02*
X49885879Y73990667D01*
X49716546Y73869715D02*
X50151975Y73869715D01*
X50151975Y73869715D02*
X50200356Y73893905D01*
X50200356Y73893905D02*
X50224546Y73942286D01*
X50224546Y73942286D02*
X50224546Y73990667D01*
X50224546Y19328191D02*
X49982641Y19158857D01*
X50224546Y19037905D02*
X49716546Y19037905D01*
X49716546Y19037905D02*
X49716546Y19231429D01*
X49716546Y19231429D02*
X49740736Y19279810D01*
X49740736Y19279810D02*
X49764927Y19304000D01*
X49764927Y19304000D02*
X49813308Y19328191D01*
X49813308Y19328191D02*
X49885879Y19328191D01*
X49885879Y19328191D02*
X49934260Y19304000D01*
X49934260Y19304000D02*
X49958451Y19279810D01*
X49958451Y19279810D02*
X49982641Y19231429D01*
X49982641Y19231429D02*
X49982641Y19037905D01*
X50224546Y19618476D02*
X50200356Y19570095D01*
X50200356Y19570095D02*
X50176165Y19545905D01*
X50176165Y19545905D02*
X50127784Y19521714D01*
X50127784Y19521714D02*
X49982641Y19521714D01*
X49982641Y19521714D02*
X49934260Y19545905D01*
X49934260Y19545905D02*
X49910070Y19570095D01*
X49910070Y19570095D02*
X49885879Y19618476D01*
X49885879Y19618476D02*
X49885879Y19691048D01*
X49885879Y19691048D02*
X49910070Y19739429D01*
X49910070Y19739429D02*
X49934260Y19763619D01*
X49934260Y19763619D02*
X49982641Y19787810D01*
X49982641Y19787810D02*
X50127784Y19787810D01*
X50127784Y19787810D02*
X50176165Y19763619D01*
X50176165Y19763619D02*
X50200356Y19739429D01*
X50200356Y19739429D02*
X50224546Y19691048D01*
X50224546Y19691048D02*
X50224546Y19618476D01*
X49885879Y20223238D02*
X50224546Y20223238D01*
X49885879Y20005524D02*
X50151975Y20005524D01*
X50151975Y20005524D02*
X50200356Y20029714D01*
X50200356Y20029714D02*
X50224546Y20078095D01*
X50224546Y20078095D02*
X50224546Y20150667D01*
X50224546Y20150667D02*
X50200356Y20199048D01*
X50200356Y20199048D02*
X50176165Y20223238D01*
X49885879Y20392571D02*
X49885879Y20586095D01*
X49716546Y20465143D02*
X50151975Y20465143D01*
X50151975Y20465143D02*
X50200356Y20489333D01*
X50200356Y20489333D02*
X50224546Y20537714D01*
X50224546Y20537714D02*
X50224546Y20586095D01*
X50200356Y20948953D02*
X50224546Y20900572D01*
X50224546Y20900572D02*
X50224546Y20803810D01*
X50224546Y20803810D02*
X50200356Y20755429D01*
X50200356Y20755429D02*
X50151975Y20731238D01*
X50151975Y20731238D02*
X49958451Y20731238D01*
X49958451Y20731238D02*
X49910070Y20755429D01*
X49910070Y20755429D02*
X49885879Y20803810D01*
X49885879Y20803810D02*
X49885879Y20900572D01*
X49885879Y20900572D02*
X49910070Y20948953D01*
X49910070Y20948953D02*
X49958451Y20973143D01*
X49958451Y20973143D02*
X50006832Y20973143D01*
X50006832Y20973143D02*
X50055213Y20731238D01*
X49716546Y21674668D02*
X49716546Y21771430D01*
X49716546Y21771430D02*
X49740736Y21819811D01*
X49740736Y21819811D02*
X49789117Y21868192D01*
X49789117Y21868192D02*
X49885879Y21892382D01*
X49885879Y21892382D02*
X50055213Y21892382D01*
X50055213Y21892382D02*
X50151975Y21868192D01*
X50151975Y21868192D02*
X50200356Y21819811D01*
X50200356Y21819811D02*
X50224546Y21771430D01*
X50224546Y21771430D02*
X50224546Y21674668D01*
X50224546Y21674668D02*
X50200356Y21626287D01*
X50200356Y21626287D02*
X50151975Y21577906D01*
X50151975Y21577906D02*
X50055213Y21553715D01*
X50055213Y21553715D02*
X49885879Y21553715D01*
X49885879Y21553715D02*
X49789117Y21577906D01*
X49789117Y21577906D02*
X49740736Y21626287D01*
X49740736Y21626287D02*
X49716546Y21674668D01*
X49885879Y22327810D02*
X50224546Y22327810D01*
X49885879Y22110096D02*
X50151975Y22110096D01*
X50151975Y22110096D02*
X50200356Y22134286D01*
X50200356Y22134286D02*
X50224546Y22182667D01*
X50224546Y22182667D02*
X50224546Y22255239D01*
X50224546Y22255239D02*
X50200356Y22303620D01*
X50200356Y22303620D02*
X50176165Y22327810D01*
X49885879Y22497143D02*
X49885879Y22690667D01*
X49716546Y22569715D02*
X50151975Y22569715D01*
X50151975Y22569715D02*
X50200356Y22593905D01*
X50200356Y22593905D02*
X50224546Y22642286D01*
X50224546Y22642286D02*
X50224546Y22690667D01*
D14*
X15534285Y-21390828D02*
X15534285Y-19890828D01*
X15534285Y-19890828D02*
X16391428Y-21390828D01*
X16391428Y-21390828D02*
X16391428Y-19890828D01*
X17105714Y-21247971D02*
X17177143Y-21319400D01*
X17177143Y-21319400D02*
X17105714Y-21390828D01*
X17105714Y-21390828D02*
X17034286Y-21319400D01*
X17034286Y-21319400D02*
X17105714Y-21247971D01*
X17105714Y-21247971D02*
X17105714Y-21390828D01*
X18891429Y-21319400D02*
X19105715Y-21390828D01*
X19105715Y-21390828D02*
X19462857Y-21390828D01*
X19462857Y-21390828D02*
X19605715Y-21319400D01*
X19605715Y-21319400D02*
X19677143Y-21247971D01*
X19677143Y-21247971D02*
X19748572Y-21105114D01*
X19748572Y-21105114D02*
X19748572Y-20962257D01*
X19748572Y-20962257D02*
X19677143Y-20819400D01*
X19677143Y-20819400D02*
X19605715Y-20747971D01*
X19605715Y-20747971D02*
X19462857Y-20676542D01*
X19462857Y-20676542D02*
X19177143Y-20605114D01*
X19177143Y-20605114D02*
X19034286Y-20533685D01*
X19034286Y-20533685D02*
X18962857Y-20462257D01*
X18962857Y-20462257D02*
X18891429Y-20319400D01*
X18891429Y-20319400D02*
X18891429Y-20176542D01*
X18891429Y-20176542D02*
X18962857Y-20033685D01*
X18962857Y-20033685D02*
X19034286Y-19962257D01*
X19034286Y-19962257D02*
X19177143Y-19890828D01*
X19177143Y-19890828D02*
X19534286Y-19890828D01*
X19534286Y-19890828D02*
X19748572Y-19962257D01*
X20962857Y-21319400D02*
X20820000Y-21390828D01*
X20820000Y-21390828D02*
X20534286Y-21390828D01*
X20534286Y-21390828D02*
X20391428Y-21319400D01*
X20391428Y-21319400D02*
X20320000Y-21176542D01*
X20320000Y-21176542D02*
X20320000Y-20605114D01*
X20320000Y-20605114D02*
X20391428Y-20462257D01*
X20391428Y-20462257D02*
X20534286Y-20390828D01*
X20534286Y-20390828D02*
X20820000Y-20390828D01*
X20820000Y-20390828D02*
X20962857Y-20462257D01*
X20962857Y-20462257D02*
X21034286Y-20605114D01*
X21034286Y-20605114D02*
X21034286Y-20747971D01*
X21034286Y-20747971D02*
X20320000Y-20890828D01*
X21677142Y-21390828D02*
X21677142Y-20390828D01*
X21677142Y-19890828D02*
X21605714Y-19962257D01*
X21605714Y-19962257D02*
X21677142Y-20033685D01*
X21677142Y-20033685D02*
X21748571Y-19962257D01*
X21748571Y-19962257D02*
X21677142Y-19890828D01*
X21677142Y-19890828D02*
X21677142Y-20033685D01*
X23034286Y-21390828D02*
X23034286Y-19890828D01*
X23034286Y-21319400D02*
X22891428Y-21390828D01*
X22891428Y-21390828D02*
X22605714Y-21390828D01*
X22605714Y-21390828D02*
X22462857Y-21319400D01*
X22462857Y-21319400D02*
X22391428Y-21247971D01*
X22391428Y-21247971D02*
X22320000Y-21105114D01*
X22320000Y-21105114D02*
X22320000Y-20676542D01*
X22320000Y-20676542D02*
X22391428Y-20533685D01*
X22391428Y-20533685D02*
X22462857Y-20462257D01*
X22462857Y-20462257D02*
X22605714Y-20390828D01*
X22605714Y-20390828D02*
X22891428Y-20390828D01*
X22891428Y-20390828D02*
X23034286Y-20462257D01*
X23962857Y-21390828D02*
X23820000Y-21319400D01*
X23820000Y-21319400D02*
X23748571Y-21176542D01*
X23748571Y-21176542D02*
X23748571Y-19890828D01*
X25105714Y-21319400D02*
X24962857Y-21390828D01*
X24962857Y-21390828D02*
X24677143Y-21390828D01*
X24677143Y-21390828D02*
X24534285Y-21319400D01*
X24534285Y-21319400D02*
X24462857Y-21176542D01*
X24462857Y-21176542D02*
X24462857Y-20605114D01*
X24462857Y-20605114D02*
X24534285Y-20462257D01*
X24534285Y-20462257D02*
X24677143Y-20390828D01*
X24677143Y-20390828D02*
X24962857Y-20390828D01*
X24962857Y-20390828D02*
X25105714Y-20462257D01*
X25105714Y-20462257D02*
X25177143Y-20605114D01*
X25177143Y-20605114D02*
X25177143Y-20747971D01*
X25177143Y-20747971D02*
X24462857Y-20890828D01*
D15*
X126879131Y49430404D02*
X127372617Y49430404D01*
X127372617Y49430404D02*
X127619360Y49307033D01*
X127619360Y49307033D02*
X127866103Y49060290D01*
X127866103Y49060290D02*
X127989474Y48566804D01*
X127989474Y48566804D02*
X127989474Y47703204D01*
X127989474Y47703204D02*
X127866103Y47209718D01*
X127866103Y47209718D02*
X127619360Y46962975D01*
X127619360Y46962975D02*
X127372617Y46839604D01*
X127372617Y46839604D02*
X126879131Y46839604D01*
X126879131Y46839604D02*
X126632389Y46962975D01*
X126632389Y46962975D02*
X126385646Y47209718D01*
X126385646Y47209718D02*
X126262274Y47703204D01*
X126262274Y47703204D02*
X126262274Y48566804D01*
X126262274Y48566804D02*
X126385646Y49060290D01*
X126385646Y49060290D02*
X126632389Y49307033D01*
X126632389Y49307033D02*
X126879131Y49430404D01*
X129099817Y46839604D02*
X129099817Y48566804D01*
X129099817Y48073318D02*
X129223188Y48320061D01*
X129223188Y48320061D02*
X129346560Y48443433D01*
X129346560Y48443433D02*
X129593302Y48566804D01*
X129593302Y48566804D02*
X129840045Y48566804D01*
X131813989Y46839604D02*
X131813989Y49430404D01*
X131813989Y46962975D02*
X131567246Y46839604D01*
X131567246Y46839604D02*
X131073760Y46839604D01*
X131073760Y46839604D02*
X130827017Y46962975D01*
X130827017Y46962975D02*
X130703646Y47086347D01*
X130703646Y47086347D02*
X130580274Y47333090D01*
X130580274Y47333090D02*
X130580274Y48073318D01*
X130580274Y48073318D02*
X130703646Y48320061D01*
X130703646Y48320061D02*
X130827017Y48443433D01*
X130827017Y48443433D02*
X131073760Y48566804D01*
X131073760Y48566804D02*
X131567246Y48566804D01*
X131567246Y48566804D02*
X131813989Y48443433D01*
X134034674Y46962975D02*
X133787931Y46839604D01*
X133787931Y46839604D02*
X133294446Y46839604D01*
X133294446Y46839604D02*
X133047703Y46962975D01*
X133047703Y46962975D02*
X132924331Y47209718D01*
X132924331Y47209718D02*
X132924331Y48196690D01*
X132924331Y48196690D02*
X133047703Y48443433D01*
X133047703Y48443433D02*
X133294446Y48566804D01*
X133294446Y48566804D02*
X133787931Y48566804D01*
X133787931Y48566804D02*
X134034674Y48443433D01*
X134034674Y48443433D02*
X134158046Y48196690D01*
X134158046Y48196690D02*
X134158046Y47949947D01*
X134158046Y47949947D02*
X132924331Y47703204D01*
X135268389Y46839604D02*
X135268389Y48566804D01*
X135268389Y48073318D02*
X135391760Y48320061D01*
X135391760Y48320061D02*
X135515132Y48443433D01*
X135515132Y48443433D02*
X135761874Y48566804D01*
X135761874Y48566804D02*
X136008617Y48566804D01*
X136872218Y46839604D02*
X136872218Y48566804D01*
X136872218Y49430404D02*
X136748846Y49307033D01*
X136748846Y49307033D02*
X136872218Y49183661D01*
X136872218Y49183661D02*
X136995589Y49307033D01*
X136995589Y49307033D02*
X136872218Y49430404D01*
X136872218Y49430404D02*
X136872218Y49183661D01*
X138105932Y48566804D02*
X138105932Y46839604D01*
X138105932Y48320061D02*
X138229303Y48443433D01*
X138229303Y48443433D02*
X138476046Y48566804D01*
X138476046Y48566804D02*
X138846160Y48566804D01*
X138846160Y48566804D02*
X139092903Y48443433D01*
X139092903Y48443433D02*
X139216275Y48196690D01*
X139216275Y48196690D02*
X139216275Y46839604D01*
X141560332Y48566804D02*
X141560332Y46469490D01*
X141560332Y46469490D02*
X141436960Y46222747D01*
X141436960Y46222747D02*
X141313589Y46099375D01*
X141313589Y46099375D02*
X141066846Y45976004D01*
X141066846Y45976004D02*
X140696732Y45976004D01*
X140696732Y45976004D02*
X140449989Y46099375D01*
X141560332Y46962975D02*
X141313589Y46839604D01*
X141313589Y46839604D02*
X140820103Y46839604D01*
X140820103Y46839604D02*
X140573360Y46962975D01*
X140573360Y46962975D02*
X140449989Y47086347D01*
X140449989Y47086347D02*
X140326617Y47333090D01*
X140326617Y47333090D02*
X140326617Y48073318D01*
X140326617Y48073318D02*
X140449989Y48320061D01*
X140449989Y48320061D02*
X140573360Y48443433D01*
X140573360Y48443433D02*
X140820103Y48566804D01*
X140820103Y48566804D02*
X141313589Y48566804D01*
X141313589Y48566804D02*
X141560332Y48443433D01*
X144767989Y46839604D02*
X144767989Y49430404D01*
X146001703Y48566804D02*
X146001703Y46839604D01*
X146001703Y48320061D02*
X146125074Y48443433D01*
X146125074Y48443433D02*
X146371817Y48566804D01*
X146371817Y48566804D02*
X146741931Y48566804D01*
X146741931Y48566804D02*
X146988674Y48443433D01*
X146988674Y48443433D02*
X147112046Y48196690D01*
X147112046Y48196690D02*
X147112046Y46839604D01*
X148222388Y46962975D02*
X148469131Y46839604D01*
X148469131Y46839604D02*
X148962617Y46839604D01*
X148962617Y46839604D02*
X149209360Y46962975D01*
X149209360Y46962975D02*
X149332731Y47209718D01*
X149332731Y47209718D02*
X149332731Y47333090D01*
X149332731Y47333090D02*
X149209360Y47579833D01*
X149209360Y47579833D02*
X148962617Y47703204D01*
X148962617Y47703204D02*
X148592503Y47703204D01*
X148592503Y47703204D02*
X148345760Y47826575D01*
X148345760Y47826575D02*
X148222388Y48073318D01*
X148222388Y48073318D02*
X148222388Y48196690D01*
X148222388Y48196690D02*
X148345760Y48443433D01*
X148345760Y48443433D02*
X148592503Y48566804D01*
X148592503Y48566804D02*
X148962617Y48566804D01*
X148962617Y48566804D02*
X149209360Y48443433D01*
X150072959Y48566804D02*
X151059931Y48566804D01*
X150443074Y49430404D02*
X150443074Y47209718D01*
X150443074Y47209718D02*
X150566445Y46962975D01*
X150566445Y46962975D02*
X150813188Y46839604D01*
X150813188Y46839604D02*
X151059931Y46839604D01*
X151923531Y46839604D02*
X151923531Y48566804D01*
X151923531Y48073318D02*
X152046902Y48320061D01*
X152046902Y48320061D02*
X152170274Y48443433D01*
X152170274Y48443433D02*
X152417016Y48566804D01*
X152417016Y48566804D02*
X152663759Y48566804D01*
X154637703Y48566804D02*
X154637703Y46839604D01*
X153527360Y48566804D02*
X153527360Y47209718D01*
X153527360Y47209718D02*
X153650731Y46962975D01*
X153650731Y46962975D02*
X153897474Y46839604D01*
X153897474Y46839604D02*
X154267588Y46839604D01*
X154267588Y46839604D02*
X154514331Y46962975D01*
X154514331Y46962975D02*
X154637703Y47086347D01*
X156981760Y46962975D02*
X156735017Y46839604D01*
X156735017Y46839604D02*
X156241531Y46839604D01*
X156241531Y46839604D02*
X155994788Y46962975D01*
X155994788Y46962975D02*
X155871417Y47086347D01*
X155871417Y47086347D02*
X155748045Y47333090D01*
X155748045Y47333090D02*
X155748045Y48073318D01*
X155748045Y48073318D02*
X155871417Y48320061D01*
X155871417Y48320061D02*
X155994788Y48443433D01*
X155994788Y48443433D02*
X156241531Y48566804D01*
X156241531Y48566804D02*
X156735017Y48566804D01*
X156735017Y48566804D02*
X156981760Y48443433D01*
X157721988Y48566804D02*
X158708960Y48566804D01*
X158092103Y49430404D02*
X158092103Y47209718D01*
X158092103Y47209718D02*
X158215474Y46962975D01*
X158215474Y46962975D02*
X158462217Y46839604D01*
X158462217Y46839604D02*
X158708960Y46839604D01*
X159572560Y46839604D02*
X159572560Y48566804D01*
X159572560Y49430404D02*
X159449188Y49307033D01*
X159449188Y49307033D02*
X159572560Y49183661D01*
X159572560Y49183661D02*
X159695931Y49307033D01*
X159695931Y49307033D02*
X159572560Y49430404D01*
X159572560Y49430404D02*
X159572560Y49183661D01*
X161176388Y46839604D02*
X160929645Y46962975D01*
X160929645Y46962975D02*
X160806274Y47086347D01*
X160806274Y47086347D02*
X160682902Y47333090D01*
X160682902Y47333090D02*
X160682902Y48073318D01*
X160682902Y48073318D02*
X160806274Y48320061D01*
X160806274Y48320061D02*
X160929645Y48443433D01*
X160929645Y48443433D02*
X161176388Y48566804D01*
X161176388Y48566804D02*
X161546502Y48566804D01*
X161546502Y48566804D02*
X161793245Y48443433D01*
X161793245Y48443433D02*
X161916617Y48320061D01*
X161916617Y48320061D02*
X162039988Y48073318D01*
X162039988Y48073318D02*
X162039988Y47333090D01*
X162039988Y47333090D02*
X161916617Y47086347D01*
X161916617Y47086347D02*
X161793245Y46962975D01*
X161793245Y46962975D02*
X161546502Y46839604D01*
X161546502Y46839604D02*
X161176388Y46839604D01*
X163150331Y48566804D02*
X163150331Y46839604D01*
X163150331Y48320061D02*
X163273702Y48443433D01*
X163273702Y48443433D02*
X163520445Y48566804D01*
X163520445Y48566804D02*
X163890559Y48566804D01*
X163890559Y48566804D02*
X164137302Y48443433D01*
X164137302Y48443433D02*
X164260674Y48196690D01*
X164260674Y48196690D02*
X164260674Y46839604D01*
X165371016Y46962975D02*
X165617759Y46839604D01*
X165617759Y46839604D02*
X166111245Y46839604D01*
X166111245Y46839604D02*
X166357988Y46962975D01*
X166357988Y46962975D02*
X166481359Y47209718D01*
X166481359Y47209718D02*
X166481359Y47333090D01*
X166481359Y47333090D02*
X166357988Y47579833D01*
X166357988Y47579833D02*
X166111245Y47703204D01*
X166111245Y47703204D02*
X165741131Y47703204D01*
X165741131Y47703204D02*
X165494388Y47826575D01*
X165494388Y47826575D02*
X165371016Y48073318D01*
X165371016Y48073318D02*
X165371016Y48196690D01*
X165371016Y48196690D02*
X165494388Y48443433D01*
X165494388Y48443433D02*
X165741131Y48566804D01*
X165741131Y48566804D02*
X166111245Y48566804D01*
X166111245Y48566804D02*
X166357988Y48443433D01*
X167591702Y47086347D02*
X167715073Y46962975D01*
X167715073Y46962975D02*
X167591702Y46839604D01*
X167591702Y46839604D02*
X167468330Y46962975D01*
X167468330Y46962975D02*
X167591702Y47086347D01*
X167591702Y47086347D02*
X167591702Y46839604D01*
X167591702Y48443433D02*
X167715073Y48320061D01*
X167715073Y48320061D02*
X167591702Y48196690D01*
X167591702Y48196690D02*
X167468330Y48320061D01*
X167468330Y48320061D02*
X167591702Y48443433D01*
X167591702Y48443433D02*
X167591702Y48196690D01*
D16*
X-24924171Y-18842417D02*
X-24924171Y-17206657D01*
X-24223131Y-18842417D02*
X-24223131Y-17985590D01*
X-24223131Y-17985590D02*
X-24301024Y-17829804D01*
X-24301024Y-17829804D02*
X-24456811Y-17751910D01*
X-24456811Y-17751910D02*
X-24690491Y-17751910D01*
X-24690491Y-17751910D02*
X-24846277Y-17829804D01*
X-24846277Y-17829804D02*
X-24924171Y-17907697D01*
X-23677878Y-17751910D02*
X-23054731Y-17751910D01*
X-23444198Y-17206657D02*
X-23444198Y-18608737D01*
X-23444198Y-18608737D02*
X-23366304Y-18764524D01*
X-23366304Y-18764524D02*
X-23210518Y-18842417D01*
X-23210518Y-18842417D02*
X-23054731Y-18842417D01*
X-22743158Y-17751910D02*
X-22120011Y-17751910D01*
X-22509478Y-17206657D02*
X-22509478Y-18608737D01*
X-22509478Y-18608737D02*
X-22431584Y-18764524D01*
X-22431584Y-18764524D02*
X-22275798Y-18842417D01*
X-22275798Y-18842417D02*
X-22120011Y-18842417D01*
X-21574758Y-17751910D02*
X-21574758Y-19387670D01*
X-21574758Y-17829804D02*
X-21418971Y-17751910D01*
X-21418971Y-17751910D02*
X-21107398Y-17751910D01*
X-21107398Y-17751910D02*
X-20951611Y-17829804D01*
X-20951611Y-17829804D02*
X-20873718Y-17907697D01*
X-20873718Y-17907697D02*
X-20795824Y-18063484D01*
X-20795824Y-18063484D02*
X-20795824Y-18530844D01*
X-20795824Y-18530844D02*
X-20873718Y-18686630D01*
X-20873718Y-18686630D02*
X-20951611Y-18764524D01*
X-20951611Y-18764524D02*
X-21107398Y-18842417D01*
X-21107398Y-18842417D02*
X-21418971Y-18842417D01*
X-21418971Y-18842417D02*
X-21574758Y-18764524D01*
X-20172678Y-18764524D02*
X-20016891Y-18842417D01*
X-20016891Y-18842417D02*
X-19705318Y-18842417D01*
X-19705318Y-18842417D02*
X-19549531Y-18764524D01*
X-19549531Y-18764524D02*
X-19471638Y-18608737D01*
X-19471638Y-18608737D02*
X-19471638Y-18530844D01*
X-19471638Y-18530844D02*
X-19549531Y-18375057D01*
X-19549531Y-18375057D02*
X-19705318Y-18297164D01*
X-19705318Y-18297164D02*
X-19938998Y-18297164D01*
X-19938998Y-18297164D02*
X-20094785Y-18219270D01*
X-20094785Y-18219270D02*
X-20172678Y-18063484D01*
X-20172678Y-18063484D02*
X-20172678Y-17985590D01*
X-20172678Y-17985590D02*
X-20094785Y-17829804D01*
X-20094785Y-17829804D02*
X-19938998Y-17751910D01*
X-19938998Y-17751910D02*
X-19705318Y-17751910D01*
X-19705318Y-17751910D02*
X-19549531Y-17829804D01*
X-18770598Y-18686630D02*
X-18692704Y-18764524D01*
X-18692704Y-18764524D02*
X-18770598Y-18842417D01*
X-18770598Y-18842417D02*
X-18848491Y-18764524D01*
X-18848491Y-18764524D02*
X-18770598Y-18686630D01*
X-18770598Y-18686630D02*
X-18770598Y-18842417D01*
X-18770598Y-17829804D02*
X-18692704Y-17907697D01*
X-18692704Y-17907697D02*
X-18770598Y-17985590D01*
X-18770598Y-17985590D02*
X-18848491Y-17907697D01*
X-18848491Y-17907697D02*
X-18770598Y-17829804D01*
X-18770598Y-17829804D02*
X-18770598Y-17985590D01*
X-16823265Y-17128764D02*
X-18225345Y-19231884D01*
X-15109612Y-17128764D02*
X-16511692Y-19231884D01*
X-13863319Y-18764524D02*
X-14019105Y-18842417D01*
X-14019105Y-18842417D02*
X-14330679Y-18842417D01*
X-14330679Y-18842417D02*
X-14486465Y-18764524D01*
X-14486465Y-18764524D02*
X-14564359Y-18686630D01*
X-14564359Y-18686630D02*
X-14642252Y-18530844D01*
X-14642252Y-18530844D02*
X-14642252Y-18063484D01*
X-14642252Y-18063484D02*
X-14564359Y-17907697D01*
X-14564359Y-17907697D02*
X-14486465Y-17829804D01*
X-14486465Y-17829804D02*
X-14330679Y-17751910D01*
X-14330679Y-17751910D02*
X-14019105Y-17751910D01*
X-14019105Y-17751910D02*
X-13863319Y-17829804D01*
X-13162279Y-18842417D02*
X-13162279Y-17751910D01*
X-13162279Y-18063484D02*
X-13084385Y-17907697D01*
X-13084385Y-17907697D02*
X-13006492Y-17829804D01*
X-13006492Y-17829804D02*
X-12850705Y-17751910D01*
X-12850705Y-17751910D02*
X-12694919Y-17751910D01*
X-11526519Y-18764524D02*
X-11682306Y-18842417D01*
X-11682306Y-18842417D02*
X-11993879Y-18842417D01*
X-11993879Y-18842417D02*
X-12149666Y-18764524D01*
X-12149666Y-18764524D02*
X-12227559Y-18608737D01*
X-12227559Y-18608737D02*
X-12227559Y-17985590D01*
X-12227559Y-17985590D02*
X-12149666Y-17829804D01*
X-12149666Y-17829804D02*
X-11993879Y-17751910D01*
X-11993879Y-17751910D02*
X-11682306Y-17751910D01*
X-11682306Y-17751910D02*
X-11526519Y-17829804D01*
X-11526519Y-17829804D02*
X-11448626Y-17985590D01*
X-11448626Y-17985590D02*
X-11448626Y-18141377D01*
X-11448626Y-18141377D02*
X-12227559Y-18297164D01*
X-10046546Y-18842417D02*
X-10046546Y-17985590D01*
X-10046546Y-17985590D02*
X-10124439Y-17829804D01*
X-10124439Y-17829804D02*
X-10280226Y-17751910D01*
X-10280226Y-17751910D02*
X-10591799Y-17751910D01*
X-10591799Y-17751910D02*
X-10747586Y-17829804D01*
X-10046546Y-18764524D02*
X-10202332Y-18842417D01*
X-10202332Y-18842417D02*
X-10591799Y-18842417D01*
X-10591799Y-18842417D02*
X-10747586Y-18764524D01*
X-10747586Y-18764524D02*
X-10825479Y-18608737D01*
X-10825479Y-18608737D02*
X-10825479Y-18452950D01*
X-10825479Y-18452950D02*
X-10747586Y-18297164D01*
X-10747586Y-18297164D02*
X-10591799Y-18219270D01*
X-10591799Y-18219270D02*
X-10202332Y-18219270D01*
X-10202332Y-18219270D02*
X-10046546Y-18141377D01*
X-9501293Y-17751910D02*
X-8878146Y-17751910D01*
X-9267613Y-17206657D02*
X-9267613Y-18608737D01*
X-9267613Y-18608737D02*
X-9189719Y-18764524D01*
X-9189719Y-18764524D02*
X-9033933Y-18842417D01*
X-9033933Y-18842417D02*
X-8878146Y-18842417D01*
X-8332893Y-18842417D02*
X-8332893Y-17751910D01*
X-8332893Y-17206657D02*
X-8410786Y-17284550D01*
X-8410786Y-17284550D02*
X-8332893Y-17362444D01*
X-8332893Y-17362444D02*
X-8254999Y-17284550D01*
X-8254999Y-17284550D02*
X-8332893Y-17206657D01*
X-8332893Y-17206657D02*
X-8332893Y-17362444D01*
X-7709746Y-17751910D02*
X-7320280Y-18842417D01*
X-7320280Y-18842417D02*
X-6930813Y-17751910D01*
X-5684520Y-18764524D02*
X-5840307Y-18842417D01*
X-5840307Y-18842417D02*
X-6151880Y-18842417D01*
X-6151880Y-18842417D02*
X-6307667Y-18764524D01*
X-6307667Y-18764524D02*
X-6385560Y-18608737D01*
X-6385560Y-18608737D02*
X-6385560Y-17985590D01*
X-6385560Y-17985590D02*
X-6307667Y-17829804D01*
X-6307667Y-17829804D02*
X-6151880Y-17751910D01*
X-6151880Y-17751910D02*
X-5840307Y-17751910D01*
X-5840307Y-17751910D02*
X-5684520Y-17829804D01*
X-5684520Y-17829804D02*
X-5606627Y-17985590D01*
X-5606627Y-17985590D02*
X-5606627Y-18141377D01*
X-5606627Y-18141377D02*
X-6385560Y-18297164D01*
X-4204547Y-18764524D02*
X-4360333Y-18842417D01*
X-4360333Y-18842417D02*
X-4671907Y-18842417D01*
X-4671907Y-18842417D02*
X-4827693Y-18764524D01*
X-4827693Y-18764524D02*
X-4905587Y-18686630D01*
X-4905587Y-18686630D02*
X-4983480Y-18530844D01*
X-4983480Y-18530844D02*
X-4983480Y-18063484D01*
X-4983480Y-18063484D02*
X-4905587Y-17907697D01*
X-4905587Y-17907697D02*
X-4827693Y-17829804D01*
X-4827693Y-17829804D02*
X-4671907Y-17751910D01*
X-4671907Y-17751910D02*
X-4360333Y-17751910D01*
X-4360333Y-17751910D02*
X-4204547Y-17829804D01*
X-3269827Y-18842417D02*
X-3425613Y-18764524D01*
X-3425613Y-18764524D02*
X-3503507Y-18686630D01*
X-3503507Y-18686630D02*
X-3581400Y-18530844D01*
X-3581400Y-18530844D02*
X-3581400Y-18063484D01*
X-3581400Y-18063484D02*
X-3503507Y-17907697D01*
X-3503507Y-17907697D02*
X-3425613Y-17829804D01*
X-3425613Y-17829804D02*
X-3269827Y-17751910D01*
X-3269827Y-17751910D02*
X-3036147Y-17751910D01*
X-3036147Y-17751910D02*
X-2880360Y-17829804D01*
X-2880360Y-17829804D02*
X-2802467Y-17907697D01*
X-2802467Y-17907697D02*
X-2724573Y-18063484D01*
X-2724573Y-18063484D02*
X-2724573Y-18530844D01*
X-2724573Y-18530844D02*
X-2802467Y-18686630D01*
X-2802467Y-18686630D02*
X-2880360Y-18764524D01*
X-2880360Y-18764524D02*
X-3036147Y-18842417D01*
X-3036147Y-18842417D02*
X-3269827Y-18842417D01*
X-2023534Y-18842417D02*
X-2023534Y-17751910D01*
X-2023534Y-17907697D02*
X-1945640Y-17829804D01*
X-1945640Y-17829804D02*
X-1789854Y-17751910D01*
X-1789854Y-17751910D02*
X-1556174Y-17751910D01*
X-1556174Y-17751910D02*
X-1400387Y-17829804D01*
X-1400387Y-17829804D02*
X-1322494Y-17985590D01*
X-1322494Y-17985590D02*
X-1322494Y-18842417D01*
X-1322494Y-17985590D02*
X-1244600Y-17829804D01*
X-1244600Y-17829804D02*
X-1088814Y-17751910D01*
X-1088814Y-17751910D02*
X-855134Y-17751910D01*
X-855134Y-17751910D02*
X-699347Y-17829804D01*
X-699347Y-17829804D02*
X-621454Y-17985590D01*
X-621454Y-17985590D02*
X-621454Y-18842417D01*
X157479Y-18842417D02*
X157479Y-17751910D01*
X157479Y-17907697D02*
X235373Y-17829804D01*
X235373Y-17829804D02*
X391159Y-17751910D01*
X391159Y-17751910D02*
X624839Y-17751910D01*
X624839Y-17751910D02*
X780626Y-17829804D01*
X780626Y-17829804D02*
X858519Y-17985590D01*
X858519Y-17985590D02*
X858519Y-18842417D01*
X858519Y-17985590D02*
X936413Y-17829804D01*
X936413Y-17829804D02*
X1092199Y-17751910D01*
X1092199Y-17751910D02*
X1325879Y-17751910D01*
X1325879Y-17751910D02*
X1481666Y-17829804D01*
X1481666Y-17829804D02*
X1559559Y-17985590D01*
X1559559Y-17985590D02*
X1559559Y-18842417D01*
X2572172Y-18842417D02*
X2416386Y-18764524D01*
X2416386Y-18764524D02*
X2338492Y-18686630D01*
X2338492Y-18686630D02*
X2260599Y-18530844D01*
X2260599Y-18530844D02*
X2260599Y-18063484D01*
X2260599Y-18063484D02*
X2338492Y-17907697D01*
X2338492Y-17907697D02*
X2416386Y-17829804D01*
X2416386Y-17829804D02*
X2572172Y-17751910D01*
X2572172Y-17751910D02*
X2805852Y-17751910D01*
X2805852Y-17751910D02*
X2961639Y-17829804D01*
X2961639Y-17829804D02*
X3039532Y-17907697D01*
X3039532Y-17907697D02*
X3117426Y-18063484D01*
X3117426Y-18063484D02*
X3117426Y-18530844D01*
X3117426Y-18530844D02*
X3039532Y-18686630D01*
X3039532Y-18686630D02*
X2961639Y-18764524D01*
X2961639Y-18764524D02*
X2805852Y-18842417D01*
X2805852Y-18842417D02*
X2572172Y-18842417D01*
X3818465Y-17751910D02*
X3818465Y-18842417D01*
X3818465Y-17907697D02*
X3896359Y-17829804D01*
X3896359Y-17829804D02*
X4052145Y-17751910D01*
X4052145Y-17751910D02*
X4285825Y-17751910D01*
X4285825Y-17751910D02*
X4441612Y-17829804D01*
X4441612Y-17829804D02*
X4519505Y-17985590D01*
X4519505Y-17985590D02*
X4519505Y-18842417D01*
X5220545Y-18764524D02*
X5376332Y-18842417D01*
X5376332Y-18842417D02*
X5687905Y-18842417D01*
X5687905Y-18842417D02*
X5843692Y-18764524D01*
X5843692Y-18764524D02*
X5921585Y-18608737D01*
X5921585Y-18608737D02*
X5921585Y-18530844D01*
X5921585Y-18530844D02*
X5843692Y-18375057D01*
X5843692Y-18375057D02*
X5687905Y-18297164D01*
X5687905Y-18297164D02*
X5454225Y-18297164D01*
X5454225Y-18297164D02*
X5298438Y-18219270D01*
X5298438Y-18219270D02*
X5220545Y-18063484D01*
X5220545Y-18063484D02*
X5220545Y-17985590D01*
X5220545Y-17985590D02*
X5298438Y-17829804D01*
X5298438Y-17829804D02*
X5454225Y-17751910D01*
X5454225Y-17751910D02*
X5687905Y-17751910D01*
X5687905Y-17751910D02*
X5843692Y-17829804D01*
X6622625Y-18686630D02*
X6700519Y-18764524D01*
X6700519Y-18764524D02*
X6622625Y-18842417D01*
X6622625Y-18842417D02*
X6544732Y-18764524D01*
X6544732Y-18764524D02*
X6622625Y-18686630D01*
X6622625Y-18686630D02*
X6622625Y-18842417D01*
X7635238Y-18842417D02*
X7479452Y-18764524D01*
X7479452Y-18764524D02*
X7401558Y-18686630D01*
X7401558Y-18686630D02*
X7323665Y-18530844D01*
X7323665Y-18530844D02*
X7323665Y-18063484D01*
X7323665Y-18063484D02*
X7401558Y-17907697D01*
X7401558Y-17907697D02*
X7479452Y-17829804D01*
X7479452Y-17829804D02*
X7635238Y-17751910D01*
X7635238Y-17751910D02*
X7868918Y-17751910D01*
X7868918Y-17751910D02*
X8024705Y-17829804D01*
X8024705Y-17829804D02*
X8102598Y-17907697D01*
X8102598Y-17907697D02*
X8180492Y-18063484D01*
X8180492Y-18063484D02*
X8180492Y-18530844D01*
X8180492Y-18530844D02*
X8102598Y-18686630D01*
X8102598Y-18686630D02*
X8024705Y-18764524D01*
X8024705Y-18764524D02*
X7868918Y-18842417D01*
X7868918Y-18842417D02*
X7635238Y-18842417D01*
X8881531Y-18842417D02*
X8881531Y-17751910D01*
X8881531Y-18063484D02*
X8959425Y-17907697D01*
X8959425Y-17907697D02*
X9037318Y-17829804D01*
X9037318Y-17829804D02*
X9193105Y-17751910D01*
X9193105Y-17751910D02*
X9348891Y-17751910D01*
X10595184Y-17751910D02*
X10595184Y-19076097D01*
X10595184Y-19076097D02*
X10517291Y-19231884D01*
X10517291Y-19231884D02*
X10439398Y-19309777D01*
X10439398Y-19309777D02*
X10283611Y-19387670D01*
X10283611Y-19387670D02*
X10049931Y-19387670D01*
X10049931Y-19387670D02*
X9894144Y-19309777D01*
X10595184Y-18764524D02*
X10439398Y-18842417D01*
X10439398Y-18842417D02*
X10127824Y-18842417D01*
X10127824Y-18842417D02*
X9972038Y-18764524D01*
X9972038Y-18764524D02*
X9894144Y-18686630D01*
X9894144Y-18686630D02*
X9816251Y-18530844D01*
X9816251Y-18530844D02*
X9816251Y-18063484D01*
X9816251Y-18063484D02*
X9894144Y-17907697D01*
X9894144Y-17907697D02*
X9972038Y-17829804D01*
X9972038Y-17829804D02*
X10127824Y-17751910D01*
X10127824Y-17751910D02*
X10439398Y-17751910D01*
X10439398Y-17751910D02*
X10595184Y-17829804D01*
X12542517Y-17128764D02*
X11140437Y-19231884D01*
X13321450Y-18842417D02*
X13165664Y-18764524D01*
X13165664Y-18764524D02*
X13087770Y-18608737D01*
X13087770Y-18608737D02*
X13087770Y-17206657D01*
X13944597Y-18842417D02*
X13944597Y-17751910D01*
X13944597Y-17206657D02*
X13866704Y-17284550D01*
X13866704Y-17284550D02*
X13944597Y-17362444D01*
X13944597Y-17362444D02*
X14022491Y-17284550D01*
X14022491Y-17284550D02*
X13944597Y-17206657D01*
X13944597Y-17206657D02*
X13944597Y-17362444D01*
X15424570Y-18764524D02*
X15268784Y-18842417D01*
X15268784Y-18842417D02*
X14957210Y-18842417D01*
X14957210Y-18842417D02*
X14801424Y-18764524D01*
X14801424Y-18764524D02*
X14723530Y-18686630D01*
X14723530Y-18686630D02*
X14645637Y-18530844D01*
X14645637Y-18530844D02*
X14645637Y-18063484D01*
X14645637Y-18063484D02*
X14723530Y-17907697D01*
X14723530Y-17907697D02*
X14801424Y-17829804D01*
X14801424Y-17829804D02*
X14957210Y-17751910D01*
X14957210Y-17751910D02*
X15268784Y-17751910D01*
X15268784Y-17751910D02*
X15424570Y-17829804D01*
X16748757Y-18764524D02*
X16592970Y-18842417D01*
X16592970Y-18842417D02*
X16281397Y-18842417D01*
X16281397Y-18842417D02*
X16125610Y-18764524D01*
X16125610Y-18764524D02*
X16047717Y-18608737D01*
X16047717Y-18608737D02*
X16047717Y-17985590D01*
X16047717Y-17985590D02*
X16125610Y-17829804D01*
X16125610Y-17829804D02*
X16281397Y-17751910D01*
X16281397Y-17751910D02*
X16592970Y-17751910D01*
X16592970Y-17751910D02*
X16748757Y-17829804D01*
X16748757Y-17829804D02*
X16826650Y-17985590D01*
X16826650Y-17985590D02*
X16826650Y-18141377D01*
X16826650Y-18141377D02*
X16047717Y-18297164D01*
X17527690Y-17751910D02*
X17527690Y-18842417D01*
X17527690Y-17907697D02*
X17605584Y-17829804D01*
X17605584Y-17829804D02*
X17761370Y-17751910D01*
X17761370Y-17751910D02*
X17995050Y-17751910D01*
X17995050Y-17751910D02*
X18150837Y-17829804D01*
X18150837Y-17829804D02*
X18228730Y-17985590D01*
X18228730Y-17985590D02*
X18228730Y-18842417D01*
X18929770Y-18764524D02*
X19085557Y-18842417D01*
X19085557Y-18842417D02*
X19397130Y-18842417D01*
X19397130Y-18842417D02*
X19552917Y-18764524D01*
X19552917Y-18764524D02*
X19630810Y-18608737D01*
X19630810Y-18608737D02*
X19630810Y-18530844D01*
X19630810Y-18530844D02*
X19552917Y-18375057D01*
X19552917Y-18375057D02*
X19397130Y-18297164D01*
X19397130Y-18297164D02*
X19163450Y-18297164D01*
X19163450Y-18297164D02*
X19007663Y-18219270D01*
X19007663Y-18219270D02*
X18929770Y-18063484D01*
X18929770Y-18063484D02*
X18929770Y-17985590D01*
X18929770Y-17985590D02*
X19007663Y-17829804D01*
X19007663Y-17829804D02*
X19163450Y-17751910D01*
X19163450Y-17751910D02*
X19397130Y-17751910D01*
X19397130Y-17751910D02*
X19552917Y-17829804D01*
X20954997Y-18764524D02*
X20799210Y-18842417D01*
X20799210Y-18842417D02*
X20487637Y-18842417D01*
X20487637Y-18842417D02*
X20331850Y-18764524D01*
X20331850Y-18764524D02*
X20253957Y-18608737D01*
X20253957Y-18608737D02*
X20253957Y-17985590D01*
X20253957Y-17985590D02*
X20331850Y-17829804D01*
X20331850Y-17829804D02*
X20487637Y-17751910D01*
X20487637Y-17751910D02*
X20799210Y-17751910D01*
X20799210Y-17751910D02*
X20954997Y-17829804D01*
X20954997Y-17829804D02*
X21032890Y-17985590D01*
X21032890Y-17985590D02*
X21032890Y-18141377D01*
X21032890Y-18141377D02*
X20253957Y-18297164D01*
X21656037Y-18764524D02*
X21811824Y-18842417D01*
X21811824Y-18842417D02*
X22123397Y-18842417D01*
X22123397Y-18842417D02*
X22279184Y-18764524D01*
X22279184Y-18764524D02*
X22357077Y-18608737D01*
X22357077Y-18608737D02*
X22357077Y-18530844D01*
X22357077Y-18530844D02*
X22279184Y-18375057D01*
X22279184Y-18375057D02*
X22123397Y-18297164D01*
X22123397Y-18297164D02*
X21889717Y-18297164D01*
X21889717Y-18297164D02*
X21733930Y-18219270D01*
X21733930Y-18219270D02*
X21656037Y-18063484D01*
X21656037Y-18063484D02*
X21656037Y-17985590D01*
X21656037Y-17985590D02*
X21733930Y-17829804D01*
X21733930Y-17829804D02*
X21889717Y-17751910D01*
X21889717Y-17751910D02*
X22123397Y-17751910D01*
X22123397Y-17751910D02*
X22279184Y-17829804D01*
X24226517Y-17128764D02*
X22824437Y-19231884D01*
X24771770Y-18842417D02*
X24771770Y-17206657D01*
X24771770Y-17829804D02*
X24927557Y-17751910D01*
X24927557Y-17751910D02*
X25239130Y-17751910D01*
X25239130Y-17751910D02*
X25394917Y-17829804D01*
X25394917Y-17829804D02*
X25472810Y-17907697D01*
X25472810Y-17907697D02*
X25550704Y-18063484D01*
X25550704Y-18063484D02*
X25550704Y-18530844D01*
X25550704Y-18530844D02*
X25472810Y-18686630D01*
X25472810Y-18686630D02*
X25394917Y-18764524D01*
X25394917Y-18764524D02*
X25239130Y-18842417D01*
X25239130Y-18842417D02*
X24927557Y-18842417D01*
X24927557Y-18842417D02*
X24771770Y-18764524D01*
X26095957Y-17751910D02*
X26485423Y-18842417D01*
X26874890Y-17751910D02*
X26485423Y-18842417D01*
X26485423Y-18842417D02*
X26329637Y-19231884D01*
X26329637Y-19231884D02*
X26251743Y-19309777D01*
X26251743Y-19309777D02*
X26095957Y-19387670D01*
X27498036Y-18219270D02*
X28744330Y-18219270D01*
X29445370Y-18764524D02*
X29601157Y-18842417D01*
X29601157Y-18842417D02*
X29912730Y-18842417D01*
X29912730Y-18842417D02*
X30068517Y-18764524D01*
X30068517Y-18764524D02*
X30146410Y-18608737D01*
X30146410Y-18608737D02*
X30146410Y-18530844D01*
X30146410Y-18530844D02*
X30068517Y-18375057D01*
X30068517Y-18375057D02*
X29912730Y-18297164D01*
X29912730Y-18297164D02*
X29679050Y-18297164D01*
X29679050Y-18297164D02*
X29523263Y-18219270D01*
X29523263Y-18219270D02*
X29445370Y-18063484D01*
X29445370Y-18063484D02*
X29445370Y-17985590D01*
X29445370Y-17985590D02*
X29523263Y-17829804D01*
X29523263Y-17829804D02*
X29679050Y-17751910D01*
X29679050Y-17751910D02*
X29912730Y-17751910D01*
X29912730Y-17751910D02*
X30068517Y-17829804D01*
X31548490Y-18842417D02*
X31548490Y-17985590D01*
X31548490Y-17985590D02*
X31470597Y-17829804D01*
X31470597Y-17829804D02*
X31314810Y-17751910D01*
X31314810Y-17751910D02*
X31003237Y-17751910D01*
X31003237Y-17751910D02*
X30847450Y-17829804D01*
X31548490Y-18764524D02*
X31392704Y-18842417D01*
X31392704Y-18842417D02*
X31003237Y-18842417D01*
X31003237Y-18842417D02*
X30847450Y-18764524D01*
X30847450Y-18764524D02*
X30769557Y-18608737D01*
X30769557Y-18608737D02*
X30769557Y-18452950D01*
X30769557Y-18452950D02*
X30847450Y-18297164D01*
X30847450Y-18297164D02*
X31003237Y-18219270D01*
X31003237Y-18219270D02*
X31392704Y-18219270D01*
X31392704Y-18219270D02*
X31548490Y-18141377D01*
X33495823Y-17128764D02*
X32093743Y-19231884D01*
X34742116Y-17751910D02*
X34742116Y-18842417D01*
X34352650Y-17128764D02*
X33963183Y-18297164D01*
X33963183Y-18297164D02*
X34975796Y-18297164D01*
X35598943Y-18686630D02*
X35676837Y-18764524D01*
X35676837Y-18764524D02*
X35598943Y-18842417D01*
X35598943Y-18842417D02*
X35521050Y-18764524D01*
X35521050Y-18764524D02*
X35598943Y-18686630D01*
X35598943Y-18686630D02*
X35598943Y-18842417D01*
X36689450Y-17206657D02*
X36845236Y-17206657D01*
X36845236Y-17206657D02*
X37001023Y-17284550D01*
X37001023Y-17284550D02*
X37078916Y-17362444D01*
X37078916Y-17362444D02*
X37156810Y-17518230D01*
X37156810Y-17518230D02*
X37234703Y-17829804D01*
X37234703Y-17829804D02*
X37234703Y-18219270D01*
X37234703Y-18219270D02*
X37156810Y-18530844D01*
X37156810Y-18530844D02*
X37078916Y-18686630D01*
X37078916Y-18686630D02*
X37001023Y-18764524D01*
X37001023Y-18764524D02*
X36845236Y-18842417D01*
X36845236Y-18842417D02*
X36689450Y-18842417D01*
X36689450Y-18842417D02*
X36533663Y-18764524D01*
X36533663Y-18764524D02*
X36455770Y-18686630D01*
X36455770Y-18686630D02*
X36377876Y-18530844D01*
X36377876Y-18530844D02*
X36299983Y-18219270D01*
X36299983Y-18219270D02*
X36299983Y-17829804D01*
X36299983Y-17829804D02*
X36377876Y-17518230D01*
X36377876Y-17518230D02*
X36455770Y-17362444D01*
X36455770Y-17362444D02*
X36533663Y-17284550D01*
X36533663Y-17284550D02*
X36689450Y-17206657D01*
X39104143Y-17128764D02*
X37702063Y-19231884D01*
X-39178649Y-16302417D02*
X-39723902Y-15523484D01*
X-40113369Y-16302417D02*
X-40113369Y-14666657D01*
X-40113369Y-14666657D02*
X-39490222Y-14666657D01*
X-39490222Y-14666657D02*
X-39334435Y-14744550D01*
X-39334435Y-14744550D02*
X-39256542Y-14822444D01*
X-39256542Y-14822444D02*
X-39178649Y-14978230D01*
X-39178649Y-14978230D02*
X-39178649Y-15211910D01*
X-39178649Y-15211910D02*
X-39256542Y-15367697D01*
X-39256542Y-15367697D02*
X-39334435Y-15445590D01*
X-39334435Y-15445590D02*
X-39490222Y-15523484D01*
X-39490222Y-15523484D02*
X-40113369Y-15523484D01*
X-37854462Y-16224524D02*
X-38010249Y-16302417D01*
X-38010249Y-16302417D02*
X-38321822Y-16302417D01*
X-38321822Y-16302417D02*
X-38477609Y-16224524D01*
X-38477609Y-16224524D02*
X-38555502Y-16068737D01*
X-38555502Y-16068737D02*
X-38555502Y-15445590D01*
X-38555502Y-15445590D02*
X-38477609Y-15289804D01*
X-38477609Y-15289804D02*
X-38321822Y-15211910D01*
X-38321822Y-15211910D02*
X-38010249Y-15211910D01*
X-38010249Y-15211910D02*
X-37854462Y-15289804D01*
X-37854462Y-15289804D02*
X-37776569Y-15445590D01*
X-37776569Y-15445590D02*
X-37776569Y-15601377D01*
X-37776569Y-15601377D02*
X-38555502Y-15757164D01*
X-36841849Y-16302417D02*
X-36997635Y-16224524D01*
X-36997635Y-16224524D02*
X-37075529Y-16068737D01*
X-37075529Y-16068737D02*
X-37075529Y-14666657D01*
X-35595555Y-16224524D02*
X-35751342Y-16302417D01*
X-35751342Y-16302417D02*
X-36062915Y-16302417D01*
X-36062915Y-16302417D02*
X-36218702Y-16224524D01*
X-36218702Y-16224524D02*
X-36296595Y-16068737D01*
X-36296595Y-16068737D02*
X-36296595Y-15445590D01*
X-36296595Y-15445590D02*
X-36218702Y-15289804D01*
X-36218702Y-15289804D02*
X-36062915Y-15211910D01*
X-36062915Y-15211910D02*
X-35751342Y-15211910D01*
X-35751342Y-15211910D02*
X-35595555Y-15289804D01*
X-35595555Y-15289804D02*
X-35517662Y-15445590D01*
X-35517662Y-15445590D02*
X-35517662Y-15601377D01*
X-35517662Y-15601377D02*
X-36296595Y-15757164D01*
X-34115582Y-16302417D02*
X-34115582Y-15445590D01*
X-34115582Y-15445590D02*
X-34193475Y-15289804D01*
X-34193475Y-15289804D02*
X-34349262Y-15211910D01*
X-34349262Y-15211910D02*
X-34660835Y-15211910D01*
X-34660835Y-15211910D02*
X-34816622Y-15289804D01*
X-34115582Y-16224524D02*
X-34271368Y-16302417D01*
X-34271368Y-16302417D02*
X-34660835Y-16302417D01*
X-34660835Y-16302417D02*
X-34816622Y-16224524D01*
X-34816622Y-16224524D02*
X-34894515Y-16068737D01*
X-34894515Y-16068737D02*
X-34894515Y-15912950D01*
X-34894515Y-15912950D02*
X-34816622Y-15757164D01*
X-34816622Y-15757164D02*
X-34660835Y-15679270D01*
X-34660835Y-15679270D02*
X-34271368Y-15679270D01*
X-34271368Y-15679270D02*
X-34115582Y-15601377D01*
X-33414542Y-16224524D02*
X-33258755Y-16302417D01*
X-33258755Y-16302417D02*
X-32947182Y-16302417D01*
X-32947182Y-16302417D02*
X-32791395Y-16224524D01*
X-32791395Y-16224524D02*
X-32713502Y-16068737D01*
X-32713502Y-16068737D02*
X-32713502Y-15990844D01*
X-32713502Y-15990844D02*
X-32791395Y-15835057D01*
X-32791395Y-15835057D02*
X-32947182Y-15757164D01*
X-32947182Y-15757164D02*
X-33180862Y-15757164D01*
X-33180862Y-15757164D02*
X-33336649Y-15679270D01*
X-33336649Y-15679270D02*
X-33414542Y-15523484D01*
X-33414542Y-15523484D02*
X-33414542Y-15445590D01*
X-33414542Y-15445590D02*
X-33336649Y-15289804D01*
X-33336649Y-15289804D02*
X-33180862Y-15211910D01*
X-33180862Y-15211910D02*
X-32947182Y-15211910D01*
X-32947182Y-15211910D02*
X-32791395Y-15289804D01*
X-31389315Y-16224524D02*
X-31545102Y-16302417D01*
X-31545102Y-16302417D02*
X-31856675Y-16302417D01*
X-31856675Y-16302417D02*
X-32012462Y-16224524D01*
X-32012462Y-16224524D02*
X-32090355Y-16068737D01*
X-32090355Y-16068737D02*
X-32090355Y-15445590D01*
X-32090355Y-15445590D02*
X-32012462Y-15289804D01*
X-32012462Y-15289804D02*
X-31856675Y-15211910D01*
X-31856675Y-15211910D02*
X-31545102Y-15211910D01*
X-31545102Y-15211910D02*
X-31389315Y-15289804D01*
X-31389315Y-15289804D02*
X-31311422Y-15445590D01*
X-31311422Y-15445590D02*
X-31311422Y-15601377D01*
X-31311422Y-15601377D02*
X-32090355Y-15757164D01*
X-29909342Y-16302417D02*
X-29909342Y-14666657D01*
X-29909342Y-16224524D02*
X-30065128Y-16302417D01*
X-30065128Y-16302417D02*
X-30376702Y-16302417D01*
X-30376702Y-16302417D02*
X-30532488Y-16224524D01*
X-30532488Y-16224524D02*
X-30610382Y-16146630D01*
X-30610382Y-16146630D02*
X-30688275Y-15990844D01*
X-30688275Y-15990844D02*
X-30688275Y-15523484D01*
X-30688275Y-15523484D02*
X-30610382Y-15367697D01*
X-30610382Y-15367697D02*
X-30532488Y-15289804D01*
X-30532488Y-15289804D02*
X-30376702Y-15211910D01*
X-30376702Y-15211910D02*
X-30065128Y-15211910D01*
X-30065128Y-15211910D02*
X-29909342Y-15289804D01*
X-27183076Y-15211910D02*
X-27183076Y-16302417D01*
X-27884116Y-15211910D02*
X-27884116Y-16068737D01*
X-27884116Y-16068737D02*
X-27806222Y-16224524D01*
X-27806222Y-16224524D02*
X-27650436Y-16302417D01*
X-27650436Y-16302417D02*
X-27416756Y-16302417D01*
X-27416756Y-16302417D02*
X-27260969Y-16224524D01*
X-27260969Y-16224524D02*
X-27183076Y-16146630D01*
X-26404143Y-15211910D02*
X-26404143Y-16302417D01*
X-26404143Y-15367697D02*
X-26326249Y-15289804D01*
X-26326249Y-15289804D02*
X-26170463Y-15211910D01*
X-26170463Y-15211910D02*
X-25936783Y-15211910D01*
X-25936783Y-15211910D02*
X-25780996Y-15289804D01*
X-25780996Y-15289804D02*
X-25703103Y-15445590D01*
X-25703103Y-15445590D02*
X-25703103Y-16302417D01*
X-24223130Y-16302417D02*
X-24223130Y-14666657D01*
X-24223130Y-16224524D02*
X-24378916Y-16302417D01*
X-24378916Y-16302417D02*
X-24690490Y-16302417D01*
X-24690490Y-16302417D02*
X-24846276Y-16224524D01*
X-24846276Y-16224524D02*
X-24924170Y-16146630D01*
X-24924170Y-16146630D02*
X-25002063Y-15990844D01*
X-25002063Y-15990844D02*
X-25002063Y-15523484D01*
X-25002063Y-15523484D02*
X-24924170Y-15367697D01*
X-24924170Y-15367697D02*
X-24846276Y-15289804D01*
X-24846276Y-15289804D02*
X-24690490Y-15211910D01*
X-24690490Y-15211910D02*
X-24378916Y-15211910D01*
X-24378916Y-15211910D02*
X-24223130Y-15289804D01*
X-22821050Y-16224524D02*
X-22976837Y-16302417D01*
X-22976837Y-16302417D02*
X-23288410Y-16302417D01*
X-23288410Y-16302417D02*
X-23444197Y-16224524D01*
X-23444197Y-16224524D02*
X-23522090Y-16068737D01*
X-23522090Y-16068737D02*
X-23522090Y-15445590D01*
X-23522090Y-15445590D02*
X-23444197Y-15289804D01*
X-23444197Y-15289804D02*
X-23288410Y-15211910D01*
X-23288410Y-15211910D02*
X-22976837Y-15211910D01*
X-22976837Y-15211910D02*
X-22821050Y-15289804D01*
X-22821050Y-15289804D02*
X-22743157Y-15445590D01*
X-22743157Y-15445590D02*
X-22743157Y-15601377D01*
X-22743157Y-15601377D02*
X-23522090Y-15757164D01*
X-22042117Y-16302417D02*
X-22042117Y-15211910D01*
X-22042117Y-15523484D02*
X-21964223Y-15367697D01*
X-21964223Y-15367697D02*
X-21886330Y-15289804D01*
X-21886330Y-15289804D02*
X-21730543Y-15211910D01*
X-21730543Y-15211910D02*
X-21574757Y-15211910D01*
X-20016891Y-15211910D02*
X-19393744Y-15211910D01*
X-19783211Y-14666657D02*
X-19783211Y-16068737D01*
X-19783211Y-16068737D02*
X-19705317Y-16224524D01*
X-19705317Y-16224524D02*
X-19549531Y-16302417D01*
X-19549531Y-16302417D02*
X-19393744Y-16302417D01*
X-18848491Y-16302417D02*
X-18848491Y-14666657D01*
X-18147451Y-16302417D02*
X-18147451Y-15445590D01*
X-18147451Y-15445590D02*
X-18225344Y-15289804D01*
X-18225344Y-15289804D02*
X-18381131Y-15211910D01*
X-18381131Y-15211910D02*
X-18614811Y-15211910D01*
X-18614811Y-15211910D02*
X-18770597Y-15289804D01*
X-18770597Y-15289804D02*
X-18848491Y-15367697D01*
X-16745371Y-16224524D02*
X-16901158Y-16302417D01*
X-16901158Y-16302417D02*
X-17212731Y-16302417D01*
X-17212731Y-16302417D02*
X-17368518Y-16224524D01*
X-17368518Y-16224524D02*
X-17446411Y-16068737D01*
X-17446411Y-16068737D02*
X-17446411Y-15445590D01*
X-17446411Y-15445590D02*
X-17368518Y-15289804D01*
X-17368518Y-15289804D02*
X-17212731Y-15211910D01*
X-17212731Y-15211910D02*
X-16901158Y-15211910D01*
X-16901158Y-15211910D02*
X-16745371Y-15289804D01*
X-16745371Y-15289804D02*
X-16667478Y-15445590D01*
X-16667478Y-15445590D02*
X-16667478Y-15601377D01*
X-16667478Y-15601377D02*
X-17446411Y-15757164D01*
X-13785425Y-16146630D02*
X-13863318Y-16224524D01*
X-13863318Y-16224524D02*
X-14096998Y-16302417D01*
X-14096998Y-16302417D02*
X-14252785Y-16302417D01*
X-14252785Y-16302417D02*
X-14486465Y-16224524D01*
X-14486465Y-16224524D02*
X-14642251Y-16068737D01*
X-14642251Y-16068737D02*
X-14720145Y-15912950D01*
X-14720145Y-15912950D02*
X-14798038Y-15601377D01*
X-14798038Y-15601377D02*
X-14798038Y-15367697D01*
X-14798038Y-15367697D02*
X-14720145Y-15056124D01*
X-14720145Y-15056124D02*
X-14642251Y-14900337D01*
X-14642251Y-14900337D02*
X-14486465Y-14744550D01*
X-14486465Y-14744550D02*
X-14252785Y-14666657D01*
X-14252785Y-14666657D02*
X-14096998Y-14666657D01*
X-14096998Y-14666657D02*
X-13863318Y-14744550D01*
X-13863318Y-14744550D02*
X-13785425Y-14822444D01*
X-13084385Y-16302417D02*
X-13084385Y-15211910D01*
X-13084385Y-15523484D02*
X-13006491Y-15367697D01*
X-13006491Y-15367697D02*
X-12928598Y-15289804D01*
X-12928598Y-15289804D02*
X-12772811Y-15211910D01*
X-12772811Y-15211910D02*
X-12617025Y-15211910D01*
X-11448625Y-16224524D02*
X-11604412Y-16302417D01*
X-11604412Y-16302417D02*
X-11915985Y-16302417D01*
X-11915985Y-16302417D02*
X-12071772Y-16224524D01*
X-12071772Y-16224524D02*
X-12149665Y-16068737D01*
X-12149665Y-16068737D02*
X-12149665Y-15445590D01*
X-12149665Y-15445590D02*
X-12071772Y-15289804D01*
X-12071772Y-15289804D02*
X-11915985Y-15211910D01*
X-11915985Y-15211910D02*
X-11604412Y-15211910D01*
X-11604412Y-15211910D02*
X-11448625Y-15289804D01*
X-11448625Y-15289804D02*
X-11370732Y-15445590D01*
X-11370732Y-15445590D02*
X-11370732Y-15601377D01*
X-11370732Y-15601377D02*
X-12149665Y-15757164D01*
X-9968652Y-16302417D02*
X-9968652Y-15445590D01*
X-9968652Y-15445590D02*
X-10046545Y-15289804D01*
X-10046545Y-15289804D02*
X-10202332Y-15211910D01*
X-10202332Y-15211910D02*
X-10513905Y-15211910D01*
X-10513905Y-15211910D02*
X-10669692Y-15289804D01*
X-9968652Y-16224524D02*
X-10124438Y-16302417D01*
X-10124438Y-16302417D02*
X-10513905Y-16302417D01*
X-10513905Y-16302417D02*
X-10669692Y-16224524D01*
X-10669692Y-16224524D02*
X-10747585Y-16068737D01*
X-10747585Y-16068737D02*
X-10747585Y-15912950D01*
X-10747585Y-15912950D02*
X-10669692Y-15757164D01*
X-10669692Y-15757164D02*
X-10513905Y-15679270D01*
X-10513905Y-15679270D02*
X-10124438Y-15679270D01*
X-10124438Y-15679270D02*
X-9968652Y-15601377D01*
X-9423399Y-15211910D02*
X-8800252Y-15211910D01*
X-9189719Y-14666657D02*
X-9189719Y-16068737D01*
X-9189719Y-16068737D02*
X-9111825Y-16224524D01*
X-9111825Y-16224524D02*
X-8956039Y-16302417D01*
X-8956039Y-16302417D02*
X-8800252Y-16302417D01*
X-8254999Y-16302417D02*
X-8254999Y-15211910D01*
X-8254999Y-14666657D02*
X-8332892Y-14744550D01*
X-8332892Y-14744550D02*
X-8254999Y-14822444D01*
X-8254999Y-14822444D02*
X-8177105Y-14744550D01*
X-8177105Y-14744550D02*
X-8254999Y-14666657D01*
X-8254999Y-14666657D02*
X-8254999Y-14822444D01*
X-7631852Y-15211910D02*
X-7242386Y-16302417D01*
X-7242386Y-16302417D02*
X-6852919Y-15211910D01*
X-5606626Y-16224524D02*
X-5762413Y-16302417D01*
X-5762413Y-16302417D02*
X-6073986Y-16302417D01*
X-6073986Y-16302417D02*
X-6229773Y-16224524D01*
X-6229773Y-16224524D02*
X-6307666Y-16068737D01*
X-6307666Y-16068737D02*
X-6307666Y-15445590D01*
X-6307666Y-15445590D02*
X-6229773Y-15289804D01*
X-6229773Y-15289804D02*
X-6073986Y-15211910D01*
X-6073986Y-15211910D02*
X-5762413Y-15211910D01*
X-5762413Y-15211910D02*
X-5606626Y-15289804D01*
X-5606626Y-15289804D02*
X-5528733Y-15445590D01*
X-5528733Y-15445590D02*
X-5528733Y-15601377D01*
X-5528733Y-15601377D02*
X-6307666Y-15757164D01*
X-2646680Y-16146630D02*
X-2724573Y-16224524D01*
X-2724573Y-16224524D02*
X-2958253Y-16302417D01*
X-2958253Y-16302417D02*
X-3114040Y-16302417D01*
X-3114040Y-16302417D02*
X-3347720Y-16224524D01*
X-3347720Y-16224524D02*
X-3503506Y-16068737D01*
X-3503506Y-16068737D02*
X-3581400Y-15912950D01*
X-3581400Y-15912950D02*
X-3659293Y-15601377D01*
X-3659293Y-15601377D02*
X-3659293Y-15367697D01*
X-3659293Y-15367697D02*
X-3581400Y-15056124D01*
X-3581400Y-15056124D02*
X-3503506Y-14900337D01*
X-3503506Y-14900337D02*
X-3347720Y-14744550D01*
X-3347720Y-14744550D02*
X-3114040Y-14666657D01*
X-3114040Y-14666657D02*
X-2958253Y-14666657D01*
X-2958253Y-14666657D02*
X-2724573Y-14744550D01*
X-2724573Y-14744550D02*
X-2646680Y-14822444D01*
X-1711960Y-16302417D02*
X-1867746Y-16224524D01*
X-1867746Y-16224524D02*
X-1945640Y-16146630D01*
X-1945640Y-16146630D02*
X-2023533Y-15990844D01*
X-2023533Y-15990844D02*
X-2023533Y-15523484D01*
X-2023533Y-15523484D02*
X-1945640Y-15367697D01*
X-1945640Y-15367697D02*
X-1867746Y-15289804D01*
X-1867746Y-15289804D02*
X-1711960Y-15211910D01*
X-1711960Y-15211910D02*
X-1478280Y-15211910D01*
X-1478280Y-15211910D02*
X-1322493Y-15289804D01*
X-1322493Y-15289804D02*
X-1244600Y-15367697D01*
X-1244600Y-15367697D02*
X-1166706Y-15523484D01*
X-1166706Y-15523484D02*
X-1166706Y-15990844D01*
X-1166706Y-15990844D02*
X-1244600Y-16146630D01*
X-1244600Y-16146630D02*
X-1322493Y-16224524D01*
X-1322493Y-16224524D02*
X-1478280Y-16302417D01*
X-1478280Y-16302417D02*
X-1711960Y-16302417D01*
X-465667Y-16302417D02*
X-465667Y-15211910D01*
X-465667Y-15367697D02*
X-387773Y-15289804D01*
X-387773Y-15289804D02*
X-231987Y-15211910D01*
X-231987Y-15211910D02*
X1693Y-15211910D01*
X1693Y-15211910D02*
X157480Y-15289804D01*
X157480Y-15289804D02*
X235373Y-15445590D01*
X235373Y-15445590D02*
X235373Y-16302417D01*
X235373Y-15445590D02*
X313267Y-15289804D01*
X313267Y-15289804D02*
X469053Y-15211910D01*
X469053Y-15211910D02*
X702733Y-15211910D01*
X702733Y-15211910D02*
X858520Y-15289804D01*
X858520Y-15289804D02*
X936413Y-15445590D01*
X936413Y-15445590D02*
X936413Y-16302417D01*
X1715346Y-16302417D02*
X1715346Y-15211910D01*
X1715346Y-15367697D02*
X1793240Y-15289804D01*
X1793240Y-15289804D02*
X1949026Y-15211910D01*
X1949026Y-15211910D02*
X2182706Y-15211910D01*
X2182706Y-15211910D02*
X2338493Y-15289804D01*
X2338493Y-15289804D02*
X2416386Y-15445590D01*
X2416386Y-15445590D02*
X2416386Y-16302417D01*
X2416386Y-15445590D02*
X2494280Y-15289804D01*
X2494280Y-15289804D02*
X2650066Y-15211910D01*
X2650066Y-15211910D02*
X2883746Y-15211910D01*
X2883746Y-15211910D02*
X3039533Y-15289804D01*
X3039533Y-15289804D02*
X3117426Y-15445590D01*
X3117426Y-15445590D02*
X3117426Y-16302417D01*
X4130039Y-16302417D02*
X3974253Y-16224524D01*
X3974253Y-16224524D02*
X3896359Y-16146630D01*
X3896359Y-16146630D02*
X3818466Y-15990844D01*
X3818466Y-15990844D02*
X3818466Y-15523484D01*
X3818466Y-15523484D02*
X3896359Y-15367697D01*
X3896359Y-15367697D02*
X3974253Y-15289804D01*
X3974253Y-15289804D02*
X4130039Y-15211910D01*
X4130039Y-15211910D02*
X4363719Y-15211910D01*
X4363719Y-15211910D02*
X4519506Y-15289804D01*
X4519506Y-15289804D02*
X4597399Y-15367697D01*
X4597399Y-15367697D02*
X4675293Y-15523484D01*
X4675293Y-15523484D02*
X4675293Y-15990844D01*
X4675293Y-15990844D02*
X4597399Y-16146630D01*
X4597399Y-16146630D02*
X4519506Y-16224524D01*
X4519506Y-16224524D02*
X4363719Y-16302417D01*
X4363719Y-16302417D02*
X4130039Y-16302417D01*
X5376332Y-15211910D02*
X5376332Y-16302417D01*
X5376332Y-15367697D02*
X5454226Y-15289804D01*
X5454226Y-15289804D02*
X5610012Y-15211910D01*
X5610012Y-15211910D02*
X5843692Y-15211910D01*
X5843692Y-15211910D02*
X5999479Y-15289804D01*
X5999479Y-15289804D02*
X6077372Y-15445590D01*
X6077372Y-15445590D02*
X6077372Y-16302417D01*
X6778412Y-16224524D02*
X6934199Y-16302417D01*
X6934199Y-16302417D02*
X7245772Y-16302417D01*
X7245772Y-16302417D02*
X7401559Y-16224524D01*
X7401559Y-16224524D02*
X7479452Y-16068737D01*
X7479452Y-16068737D02*
X7479452Y-15990844D01*
X7479452Y-15990844D02*
X7401559Y-15835057D01*
X7401559Y-15835057D02*
X7245772Y-15757164D01*
X7245772Y-15757164D02*
X7012092Y-15757164D01*
X7012092Y-15757164D02*
X6856305Y-15679270D01*
X6856305Y-15679270D02*
X6778412Y-15523484D01*
X6778412Y-15523484D02*
X6778412Y-15445590D01*
X6778412Y-15445590D02*
X6856305Y-15289804D01*
X6856305Y-15289804D02*
X7012092Y-15211910D01*
X7012092Y-15211910D02*
X7245772Y-15211910D01*
X7245772Y-15211910D02*
X7401559Y-15289804D01*
X9348892Y-15835057D02*
X10127825Y-15835057D01*
X9193105Y-16302417D02*
X9738359Y-14666657D01*
X9738359Y-14666657D02*
X10283612Y-16302417D01*
X10595185Y-15211910D02*
X11218332Y-15211910D01*
X10828865Y-14666657D02*
X10828865Y-16068737D01*
X10828865Y-16068737D02*
X10906759Y-16224524D01*
X10906759Y-16224524D02*
X11062545Y-16302417D01*
X11062545Y-16302417D02*
X11218332Y-16302417D01*
X11529905Y-15211910D02*
X12153052Y-15211910D01*
X11763585Y-14666657D02*
X11763585Y-16068737D01*
X11763585Y-16068737D02*
X11841479Y-16224524D01*
X11841479Y-16224524D02*
X11997265Y-16302417D01*
X11997265Y-16302417D02*
X12153052Y-16302417D01*
X12698305Y-16302417D02*
X12698305Y-15211910D01*
X12698305Y-15523484D02*
X12776199Y-15367697D01*
X12776199Y-15367697D02*
X12854092Y-15289804D01*
X12854092Y-15289804D02*
X13009879Y-15211910D01*
X13009879Y-15211910D02*
X13165665Y-15211910D01*
X13710918Y-16302417D02*
X13710918Y-15211910D01*
X13710918Y-14666657D02*
X13633025Y-14744550D01*
X13633025Y-14744550D02*
X13710918Y-14822444D01*
X13710918Y-14822444D02*
X13788812Y-14744550D01*
X13788812Y-14744550D02*
X13710918Y-14666657D01*
X13710918Y-14666657D02*
X13710918Y-14822444D01*
X14489851Y-16302417D02*
X14489851Y-14666657D01*
X14489851Y-15289804D02*
X14645638Y-15211910D01*
X14645638Y-15211910D02*
X14957211Y-15211910D01*
X14957211Y-15211910D02*
X15112998Y-15289804D01*
X15112998Y-15289804D02*
X15190891Y-15367697D01*
X15190891Y-15367697D02*
X15268785Y-15523484D01*
X15268785Y-15523484D02*
X15268785Y-15990844D01*
X15268785Y-15990844D02*
X15190891Y-16146630D01*
X15190891Y-16146630D02*
X15112998Y-16224524D01*
X15112998Y-16224524D02*
X14957211Y-16302417D01*
X14957211Y-16302417D02*
X14645638Y-16302417D01*
X14645638Y-16302417D02*
X14489851Y-16224524D01*
X16670864Y-15211910D02*
X16670864Y-16302417D01*
X15969824Y-15211910D02*
X15969824Y-16068737D01*
X15969824Y-16068737D02*
X16047718Y-16224524D01*
X16047718Y-16224524D02*
X16203504Y-16302417D01*
X16203504Y-16302417D02*
X16437184Y-16302417D01*
X16437184Y-16302417D02*
X16592971Y-16224524D01*
X16592971Y-16224524D02*
X16670864Y-16146630D01*
X17216117Y-15211910D02*
X17839264Y-15211910D01*
X17449797Y-14666657D02*
X17449797Y-16068737D01*
X17449797Y-16068737D02*
X17527691Y-16224524D01*
X17527691Y-16224524D02*
X17683477Y-16302417D01*
X17683477Y-16302417D02*
X17839264Y-16302417D01*
X18384517Y-16302417D02*
X18384517Y-15211910D01*
X18384517Y-14666657D02*
X18306624Y-14744550D01*
X18306624Y-14744550D02*
X18384517Y-14822444D01*
X18384517Y-14822444D02*
X18462411Y-14744550D01*
X18462411Y-14744550D02*
X18384517Y-14666657D01*
X18384517Y-14666657D02*
X18384517Y-14822444D01*
X19397130Y-16302417D02*
X19241344Y-16224524D01*
X19241344Y-16224524D02*
X19163450Y-16146630D01*
X19163450Y-16146630D02*
X19085557Y-15990844D01*
X19085557Y-15990844D02*
X19085557Y-15523484D01*
X19085557Y-15523484D02*
X19163450Y-15367697D01*
X19163450Y-15367697D02*
X19241344Y-15289804D01*
X19241344Y-15289804D02*
X19397130Y-15211910D01*
X19397130Y-15211910D02*
X19630810Y-15211910D01*
X19630810Y-15211910D02*
X19786597Y-15289804D01*
X19786597Y-15289804D02*
X19864490Y-15367697D01*
X19864490Y-15367697D02*
X19942384Y-15523484D01*
X19942384Y-15523484D02*
X19942384Y-15990844D01*
X19942384Y-15990844D02*
X19864490Y-16146630D01*
X19864490Y-16146630D02*
X19786597Y-16224524D01*
X19786597Y-16224524D02*
X19630810Y-16302417D01*
X19630810Y-16302417D02*
X19397130Y-16302417D01*
X20643423Y-15211910D02*
X20643423Y-16302417D01*
X20643423Y-15367697D02*
X20721317Y-15289804D01*
X20721317Y-15289804D02*
X20877103Y-15211910D01*
X20877103Y-15211910D02*
X21110783Y-15211910D01*
X21110783Y-15211910D02*
X21266570Y-15289804D01*
X21266570Y-15289804D02*
X21344463Y-15445590D01*
X21344463Y-15445590D02*
X21344463Y-16302417D01*
X23291796Y-16224524D02*
X23525476Y-16302417D01*
X23525476Y-16302417D02*
X23914943Y-16302417D01*
X23914943Y-16302417D02*
X24070729Y-16224524D01*
X24070729Y-16224524D02*
X24148623Y-16146630D01*
X24148623Y-16146630D02*
X24226516Y-15990844D01*
X24226516Y-15990844D02*
X24226516Y-15835057D01*
X24226516Y-15835057D02*
X24148623Y-15679270D01*
X24148623Y-15679270D02*
X24070729Y-15601377D01*
X24070729Y-15601377D02*
X23914943Y-15523484D01*
X23914943Y-15523484D02*
X23603369Y-15445590D01*
X23603369Y-15445590D02*
X23447583Y-15367697D01*
X23447583Y-15367697D02*
X23369689Y-15289804D01*
X23369689Y-15289804D02*
X23291796Y-15134017D01*
X23291796Y-15134017D02*
X23291796Y-14978230D01*
X23291796Y-14978230D02*
X23369689Y-14822444D01*
X23369689Y-14822444D02*
X23447583Y-14744550D01*
X23447583Y-14744550D02*
X23603369Y-14666657D01*
X23603369Y-14666657D02*
X23992836Y-14666657D01*
X23992836Y-14666657D02*
X24226516Y-14744550D01*
X24927556Y-16302417D02*
X24927556Y-14666657D01*
X25628596Y-16302417D02*
X25628596Y-15445590D01*
X25628596Y-15445590D02*
X25550703Y-15289804D01*
X25550703Y-15289804D02*
X25394916Y-15211910D01*
X25394916Y-15211910D02*
X25161236Y-15211910D01*
X25161236Y-15211910D02*
X25005450Y-15289804D01*
X25005450Y-15289804D02*
X24927556Y-15367697D01*
X27108569Y-16302417D02*
X27108569Y-15445590D01*
X27108569Y-15445590D02*
X27030676Y-15289804D01*
X27030676Y-15289804D02*
X26874889Y-15211910D01*
X26874889Y-15211910D02*
X26563316Y-15211910D01*
X26563316Y-15211910D02*
X26407529Y-15289804D01*
X27108569Y-16224524D02*
X26952783Y-16302417D01*
X26952783Y-16302417D02*
X26563316Y-16302417D01*
X26563316Y-16302417D02*
X26407529Y-16224524D01*
X26407529Y-16224524D02*
X26329636Y-16068737D01*
X26329636Y-16068737D02*
X26329636Y-15912950D01*
X26329636Y-15912950D02*
X26407529Y-15757164D01*
X26407529Y-15757164D02*
X26563316Y-15679270D01*
X26563316Y-15679270D02*
X26952783Y-15679270D01*
X26952783Y-15679270D02*
X27108569Y-15601377D01*
X27887502Y-16302417D02*
X27887502Y-15211910D01*
X27887502Y-15523484D02*
X27965396Y-15367697D01*
X27965396Y-15367697D02*
X28043289Y-15289804D01*
X28043289Y-15289804D02*
X28199076Y-15211910D01*
X28199076Y-15211910D02*
X28354862Y-15211910D01*
X29523262Y-16224524D02*
X29367475Y-16302417D01*
X29367475Y-16302417D02*
X29055902Y-16302417D01*
X29055902Y-16302417D02*
X28900115Y-16224524D01*
X28900115Y-16224524D02*
X28822222Y-16068737D01*
X28822222Y-16068737D02*
X28822222Y-15445590D01*
X28822222Y-15445590D02*
X28900115Y-15289804D01*
X28900115Y-15289804D02*
X29055902Y-15211910D01*
X29055902Y-15211910D02*
X29367475Y-15211910D01*
X29367475Y-15211910D02*
X29523262Y-15289804D01*
X29523262Y-15289804D02*
X29601155Y-15445590D01*
X29601155Y-15445590D02*
X29601155Y-15601377D01*
X29601155Y-15601377D02*
X28822222Y-15757164D01*
X30302195Y-15679270D02*
X31548489Y-15679270D01*
X32249529Y-15835057D02*
X33028462Y-15835057D01*
X32093742Y-16302417D02*
X32638996Y-14666657D01*
X32638996Y-14666657D02*
X33184249Y-16302417D01*
X33963182Y-16302417D02*
X33807396Y-16224524D01*
X33807396Y-16224524D02*
X33729502Y-16068737D01*
X33729502Y-16068737D02*
X33729502Y-14666657D01*
X34586329Y-16302417D02*
X34586329Y-15211910D01*
X34586329Y-14666657D02*
X34508436Y-14744550D01*
X34508436Y-14744550D02*
X34586329Y-14822444D01*
X34586329Y-14822444D02*
X34664223Y-14744550D01*
X34664223Y-14744550D02*
X34586329Y-14666657D01*
X34586329Y-14666657D02*
X34586329Y-14822444D01*
X35365262Y-16302417D02*
X35365262Y-14666657D01*
X35521049Y-15679270D02*
X35988409Y-16302417D01*
X35988409Y-15211910D02*
X35365262Y-15835057D01*
X37312596Y-16224524D02*
X37156809Y-16302417D01*
X37156809Y-16302417D02*
X36845236Y-16302417D01*
X36845236Y-16302417D02*
X36689449Y-16224524D01*
X36689449Y-16224524D02*
X36611556Y-16068737D01*
X36611556Y-16068737D02*
X36611556Y-15445590D01*
X36611556Y-15445590D02*
X36689449Y-15289804D01*
X36689449Y-15289804D02*
X36845236Y-15211910D01*
X36845236Y-15211910D02*
X37156809Y-15211910D01*
X37156809Y-15211910D02*
X37312596Y-15289804D01*
X37312596Y-15289804D02*
X37390489Y-15445590D01*
X37390489Y-15445590D02*
X37390489Y-15601377D01*
X37390489Y-15601377D02*
X36611556Y-15757164D01*
X40038862Y-15211910D02*
X40038862Y-16302417D01*
X39649396Y-14588764D02*
X39259929Y-15757164D01*
X39259929Y-15757164D02*
X40272542Y-15757164D01*
X40895689Y-16146630D02*
X40973583Y-16224524D01*
X40973583Y-16224524D02*
X40895689Y-16302417D01*
X40895689Y-16302417D02*
X40817796Y-16224524D01*
X40817796Y-16224524D02*
X40895689Y-16146630D01*
X40895689Y-16146630D02*
X40895689Y-16302417D01*
X41986196Y-14666657D02*
X42141982Y-14666657D01*
X42141982Y-14666657D02*
X42297769Y-14744550D01*
X42297769Y-14744550D02*
X42375662Y-14822444D01*
X42375662Y-14822444D02*
X42453556Y-14978230D01*
X42453556Y-14978230D02*
X42531449Y-15289804D01*
X42531449Y-15289804D02*
X42531449Y-15679270D01*
X42531449Y-15679270D02*
X42453556Y-15990844D01*
X42453556Y-15990844D02*
X42375662Y-16146630D01*
X42375662Y-16146630D02*
X42297769Y-16224524D01*
X42297769Y-16224524D02*
X42141982Y-16302417D01*
X42141982Y-16302417D02*
X41986196Y-16302417D01*
X41986196Y-16302417D02*
X41830409Y-16224524D01*
X41830409Y-16224524D02*
X41752516Y-16146630D01*
X41752516Y-16146630D02*
X41674622Y-15990844D01*
X41674622Y-15990844D02*
X41596729Y-15679270D01*
X41596729Y-15679270D02*
X41596729Y-15289804D01*
X41596729Y-15289804D02*
X41674622Y-14978230D01*
X41674622Y-14978230D02*
X41752516Y-14822444D01*
X41752516Y-14822444D02*
X41830409Y-14744550D01*
X41830409Y-14744550D02*
X41986196Y-14666657D01*
X45257716Y-16302417D02*
X44478782Y-16302417D01*
X44478782Y-16302417D02*
X44478782Y-14666657D01*
X45802969Y-16302417D02*
X45802969Y-15211910D01*
X45802969Y-14666657D02*
X45725076Y-14744550D01*
X45725076Y-14744550D02*
X45802969Y-14822444D01*
X45802969Y-14822444D02*
X45880863Y-14744550D01*
X45880863Y-14744550D02*
X45802969Y-14666657D01*
X45802969Y-14666657D02*
X45802969Y-14822444D01*
X47282942Y-16224524D02*
X47127156Y-16302417D01*
X47127156Y-16302417D02*
X46815582Y-16302417D01*
X46815582Y-16302417D02*
X46659796Y-16224524D01*
X46659796Y-16224524D02*
X46581902Y-16146630D01*
X46581902Y-16146630D02*
X46504009Y-15990844D01*
X46504009Y-15990844D02*
X46504009Y-15523484D01*
X46504009Y-15523484D02*
X46581902Y-15367697D01*
X46581902Y-15367697D02*
X46659796Y-15289804D01*
X46659796Y-15289804D02*
X46815582Y-15211910D01*
X46815582Y-15211910D02*
X47127156Y-15211910D01*
X47127156Y-15211910D02*
X47282942Y-15289804D01*
X48607129Y-16224524D02*
X48451342Y-16302417D01*
X48451342Y-16302417D02*
X48139769Y-16302417D01*
X48139769Y-16302417D02*
X47983982Y-16224524D01*
X47983982Y-16224524D02*
X47906089Y-16068737D01*
X47906089Y-16068737D02*
X47906089Y-15445590D01*
X47906089Y-15445590D02*
X47983982Y-15289804D01*
X47983982Y-15289804D02*
X48139769Y-15211910D01*
X48139769Y-15211910D02*
X48451342Y-15211910D01*
X48451342Y-15211910D02*
X48607129Y-15289804D01*
X48607129Y-15289804D02*
X48685022Y-15445590D01*
X48685022Y-15445590D02*
X48685022Y-15601377D01*
X48685022Y-15601377D02*
X47906089Y-15757164D01*
X49386062Y-15211910D02*
X49386062Y-16302417D01*
X49386062Y-15367697D02*
X49463956Y-15289804D01*
X49463956Y-15289804D02*
X49619742Y-15211910D01*
X49619742Y-15211910D02*
X49853422Y-15211910D01*
X49853422Y-15211910D02*
X50009209Y-15289804D01*
X50009209Y-15289804D02*
X50087102Y-15445590D01*
X50087102Y-15445590D02*
X50087102Y-16302417D01*
X50788142Y-16224524D02*
X50943929Y-16302417D01*
X50943929Y-16302417D02*
X51255502Y-16302417D01*
X51255502Y-16302417D02*
X51411289Y-16224524D01*
X51411289Y-16224524D02*
X51489182Y-16068737D01*
X51489182Y-16068737D02*
X51489182Y-15990844D01*
X51489182Y-15990844D02*
X51411289Y-15835057D01*
X51411289Y-15835057D02*
X51255502Y-15757164D01*
X51255502Y-15757164D02*
X51021822Y-15757164D01*
X51021822Y-15757164D02*
X50866035Y-15679270D01*
X50866035Y-15679270D02*
X50788142Y-15523484D01*
X50788142Y-15523484D02*
X50788142Y-15445590D01*
X50788142Y-15445590D02*
X50866035Y-15289804D01*
X50866035Y-15289804D02*
X51021822Y-15211910D01*
X51021822Y-15211910D02*
X51255502Y-15211910D01*
X51255502Y-15211910D02*
X51411289Y-15289804D01*
X52813369Y-16224524D02*
X52657582Y-16302417D01*
X52657582Y-16302417D02*
X52346009Y-16302417D01*
X52346009Y-16302417D02*
X52190222Y-16224524D01*
X52190222Y-16224524D02*
X52112329Y-16068737D01*
X52112329Y-16068737D02*
X52112329Y-15445590D01*
X52112329Y-15445590D02*
X52190222Y-15289804D01*
X52190222Y-15289804D02*
X52346009Y-15211910D01*
X52346009Y-15211910D02*
X52657582Y-15211910D01*
X52657582Y-15211910D02*
X52813369Y-15289804D01*
X52813369Y-15289804D02*
X52891262Y-15445590D01*
X52891262Y-15445590D02*
X52891262Y-15601377D01*
X52891262Y-15601377D02*
X52112329Y-15757164D01*
X-1127759Y-21382417D02*
X-1127759Y-19746657D01*
X-1127759Y-19746657D02*
X-738292Y-19746657D01*
X-738292Y-19746657D02*
X-504612Y-19824550D01*
X-504612Y-19824550D02*
X-348825Y-19980337D01*
X-348825Y-19980337D02*
X-270932Y-20136124D01*
X-270932Y-20136124D02*
X-193039Y-20447697D01*
X-193039Y-20447697D02*
X-193039Y-20681377D01*
X-193039Y-20681377D02*
X-270932Y-20992950D01*
X-270932Y-20992950D02*
X-348825Y-21148737D01*
X-348825Y-21148737D02*
X-504612Y-21304524D01*
X-504612Y-21304524D02*
X-738292Y-21382417D01*
X-738292Y-21382417D02*
X-1127759Y-21382417D01*
X1131148Y-21304524D02*
X975361Y-21382417D01*
X975361Y-21382417D02*
X663788Y-21382417D01*
X663788Y-21382417D02*
X508001Y-21304524D01*
X508001Y-21304524D02*
X430108Y-21148737D01*
X430108Y-21148737D02*
X430108Y-20525590D01*
X430108Y-20525590D02*
X508001Y-20369804D01*
X508001Y-20369804D02*
X663788Y-20291910D01*
X663788Y-20291910D02*
X975361Y-20291910D01*
X975361Y-20291910D02*
X1131148Y-20369804D01*
X1131148Y-20369804D02*
X1209041Y-20525590D01*
X1209041Y-20525590D02*
X1209041Y-20681377D01*
X1209041Y-20681377D02*
X430108Y-20837164D01*
X1832188Y-21304524D02*
X1987975Y-21382417D01*
X1987975Y-21382417D02*
X2299548Y-21382417D01*
X2299548Y-21382417D02*
X2455335Y-21304524D01*
X2455335Y-21304524D02*
X2533228Y-21148737D01*
X2533228Y-21148737D02*
X2533228Y-21070844D01*
X2533228Y-21070844D02*
X2455335Y-20915057D01*
X2455335Y-20915057D02*
X2299548Y-20837164D01*
X2299548Y-20837164D02*
X2065868Y-20837164D01*
X2065868Y-20837164D02*
X1910081Y-20759270D01*
X1910081Y-20759270D02*
X1832188Y-20603484D01*
X1832188Y-20603484D02*
X1832188Y-20525590D01*
X1832188Y-20525590D02*
X1910081Y-20369804D01*
X1910081Y-20369804D02*
X2065868Y-20291910D01*
X2065868Y-20291910D02*
X2299548Y-20291910D01*
X2299548Y-20291910D02*
X2455335Y-20369804D01*
X3234268Y-21382417D02*
X3234268Y-20291910D01*
X3234268Y-19746657D02*
X3156375Y-19824550D01*
X3156375Y-19824550D02*
X3234268Y-19902444D01*
X3234268Y-19902444D02*
X3312162Y-19824550D01*
X3312162Y-19824550D02*
X3234268Y-19746657D01*
X3234268Y-19746657D02*
X3234268Y-19902444D01*
X4714241Y-20291910D02*
X4714241Y-21616097D01*
X4714241Y-21616097D02*
X4636348Y-21771884D01*
X4636348Y-21771884D02*
X4558455Y-21849777D01*
X4558455Y-21849777D02*
X4402668Y-21927670D01*
X4402668Y-21927670D02*
X4168988Y-21927670D01*
X4168988Y-21927670D02*
X4013201Y-21849777D01*
X4714241Y-21304524D02*
X4558455Y-21382417D01*
X4558455Y-21382417D02*
X4246881Y-21382417D01*
X4246881Y-21382417D02*
X4091095Y-21304524D01*
X4091095Y-21304524D02*
X4013201Y-21226630D01*
X4013201Y-21226630D02*
X3935308Y-21070844D01*
X3935308Y-21070844D02*
X3935308Y-20603484D01*
X3935308Y-20603484D02*
X4013201Y-20447697D01*
X4013201Y-20447697D02*
X4091095Y-20369804D01*
X4091095Y-20369804D02*
X4246881Y-20291910D01*
X4246881Y-20291910D02*
X4558455Y-20291910D01*
X4558455Y-20291910D02*
X4714241Y-20369804D01*
X5493174Y-20291910D02*
X5493174Y-21382417D01*
X5493174Y-20447697D02*
X5571068Y-20369804D01*
X5571068Y-20369804D02*
X5726854Y-20291910D01*
X5726854Y-20291910D02*
X5960534Y-20291910D01*
X5960534Y-20291910D02*
X6116321Y-20369804D01*
X6116321Y-20369804D02*
X6194214Y-20525590D01*
X6194214Y-20525590D02*
X6194214Y-21382417D01*
X7596294Y-21304524D02*
X7440507Y-21382417D01*
X7440507Y-21382417D02*
X7128934Y-21382417D01*
X7128934Y-21382417D02*
X6973147Y-21304524D01*
X6973147Y-21304524D02*
X6895254Y-21148737D01*
X6895254Y-21148737D02*
X6895254Y-20525590D01*
X6895254Y-20525590D02*
X6973147Y-20369804D01*
X6973147Y-20369804D02*
X7128934Y-20291910D01*
X7128934Y-20291910D02*
X7440507Y-20291910D01*
X7440507Y-20291910D02*
X7596294Y-20369804D01*
X7596294Y-20369804D02*
X7674187Y-20525590D01*
X7674187Y-20525590D02*
X7674187Y-20681377D01*
X7674187Y-20681377D02*
X6895254Y-20837164D01*
X9076267Y-21382417D02*
X9076267Y-19746657D01*
X9076267Y-21304524D02*
X8920481Y-21382417D01*
X8920481Y-21382417D02*
X8608907Y-21382417D01*
X8608907Y-21382417D02*
X8453121Y-21304524D01*
X8453121Y-21304524D02*
X8375227Y-21226630D01*
X8375227Y-21226630D02*
X8297334Y-21070844D01*
X8297334Y-21070844D02*
X8297334Y-20603484D01*
X8297334Y-20603484D02*
X8375227Y-20447697D01*
X8375227Y-20447697D02*
X8453121Y-20369804D01*
X8453121Y-20369804D02*
X8608907Y-20291910D01*
X8608907Y-20291910D02*
X8920481Y-20291910D01*
X8920481Y-20291910D02*
X9076267Y-20369804D01*
X11101493Y-21382417D02*
X11101493Y-19746657D01*
X11101493Y-20369804D02*
X11257280Y-20291910D01*
X11257280Y-20291910D02*
X11568853Y-20291910D01*
X11568853Y-20291910D02*
X11724640Y-20369804D01*
X11724640Y-20369804D02*
X11802533Y-20447697D01*
X11802533Y-20447697D02*
X11880427Y-20603484D01*
X11880427Y-20603484D02*
X11880427Y-21070844D01*
X11880427Y-21070844D02*
X11802533Y-21226630D01*
X11802533Y-21226630D02*
X11724640Y-21304524D01*
X11724640Y-21304524D02*
X11568853Y-21382417D01*
X11568853Y-21382417D02*
X11257280Y-21382417D01*
X11257280Y-21382417D02*
X11101493Y-21304524D01*
X12425680Y-20291910D02*
X12815146Y-21382417D01*
X13204613Y-20291910D02*
X12815146Y-21382417D01*
X12815146Y-21382417D02*
X12659360Y-21771884D01*
X12659360Y-21771884D02*
X12581466Y-21849777D01*
X12581466Y-21849777D02*
X12425680Y-21927670D01*
X13827759Y-21226630D02*
X13905653Y-21304524D01*
X13905653Y-21304524D02*
X13827759Y-21382417D01*
X13827759Y-21382417D02*
X13749866Y-21304524D01*
X13749866Y-21304524D02*
X13827759Y-21226630D01*
X13827759Y-21226630D02*
X13827759Y-21382417D01*
X13827759Y-20369804D02*
X13905653Y-20447697D01*
X13905653Y-20447697D02*
X13827759Y-20525590D01*
X13827759Y-20525590D02*
X13749866Y-20447697D01*
X13749866Y-20447697D02*
X13827759Y-20369804D01*
X13827759Y-20369804D02*
X13827759Y-20525590D01*
D17*
%TO.C,U7*%
X124198000Y46355000D02*
X187698000Y46355000D01*
D18*
X124198000Y50800000D02*
X187698000Y50800000D01*
X187698000Y50800000D02*
X187698000Y0D01*
X187698000Y0D02*
X124198000Y0D01*
X124198000Y0D02*
X124198000Y50800000D01*
%TD*%
M02*
