%TF.GenerationSoftware,KiCad,Pcbnew,7.0.6*%
%TF.CreationDate,2023-09-18T12:37:55-06:00*%
%TF.ProjectId,SparkFun_GNSS_UM980_panelized,53706172-6b46-4756-9e5f-474e53535f55,rev?*%
%TF.SameCoordinates,Original*%
%TF.FileFunction,Soldermask,Top*%
%TF.FilePolarity,Negative*%
%FSLAX46Y46*%
G04 Gerber Fmt 4.6, Leading zero omitted, Abs format (unit mm)*
G04 Created by KiCad (PCBNEW 7.0.6) date 2023-09-18 12:37:55*
%MOMM*%
%LPD*%
G01*
G04 APERTURE LIST*
G04 Aperture macros list*
%AMRoundRect*
0 Rectangle with rounded corners*
0 $1 Rounding radius*
0 $2 $3 $4 $5 $6 $7 $8 $9 X,Y pos of 4 corners*
0 Add a 4 corners polygon primitive as box body*
4,1,4,$2,$3,$4,$5,$6,$7,$8,$9,$2,$3,0*
0 Add four circle primitives for the rounded corners*
1,1,$1+$1,$2,$3*
1,1,$1+$1,$4,$5*
1,1,$1+$1,$6,$7*
1,1,$1+$1,$8,$9*
0 Add four rect primitives between the rounded corners*
20,1,$1+$1,$2,$3,$4,$5,0*
20,1,$1+$1,$4,$5,$6,$7,0*
20,1,$1+$1,$6,$7,$8,$9,0*
20,1,$1+$1,$8,$9,$2,$3,0*%
G04 Aperture macros list end*
%ADD10C,3.000000*%
%ADD11RoundRect,0.218750X0.218750X0.256250X-0.218750X0.256250X-0.218750X-0.256250X0.218750X-0.256250X0*%
%ADD12RoundRect,0.200000X0.275000X-0.200000X0.275000X0.200000X-0.275000X0.200000X-0.275000X-0.200000X0*%
%ADD13C,1.000000*%
%ADD14RoundRect,0.200000X0.200000X0.275000X-0.200000X0.275000X-0.200000X-0.275000X0.200000X-0.275000X0*%
%ADD15RoundRect,0.200000X-0.200000X-0.275000X0.200000X-0.275000X0.200000X0.275000X-0.200000X0.275000X0*%
%ADD16RoundRect,0.225000X-0.250000X0.225000X-0.250000X-0.225000X0.250000X-0.225000X0.250000X0.225000X0*%
%ADD17C,0.650000*%
%ADD18RoundRect,0.070000X0.500000X-0.150000X0.500000X0.150000X-0.500000X0.150000X-0.500000X-0.150000X0*%
%ADD19RoundRect,0.070000X-0.500000X0.150000X-0.500000X-0.150000X0.500000X-0.150000X0.500000X0.150000X0*%
%ADD20RoundRect,0.070000X0.500000X-0.300000X0.500000X0.300000X-0.500000X0.300000X-0.500000X-0.300000X0*%
%ADD21RoundRect,0.070000X-0.500000X0.300000X-0.500000X-0.300000X0.500000X-0.300000X0.500000X0.300000X0*%
%ADD22O,1.600000X1.000000*%
%ADD23O,2.100000X1.000000*%
%ADD24C,3.302000*%
%ADD25RoundRect,0.200000X-0.275000X0.200000X-0.275000X-0.200000X0.275000X-0.200000X0.275000X0.200000X0*%
%ADD26RoundRect,0.101600X0.850000X-0.300000X0.850000X0.300000X-0.850000X0.300000X-0.850000X-0.300000X0*%
%ADD27RoundRect,0.101600X1.350000X0.500000X-1.350000X0.500000X-1.350000X-0.500000X1.350000X-0.500000X0*%
%ADD28RoundRect,0.101600X0.315000X0.415000X-0.315000X0.415000X-0.315000X-0.415000X0.315000X-0.415000X0*%
%ADD29C,2.082800*%
%ADD30C,1.803200*%
%ADD31RoundRect,0.225000X-0.225000X-0.250000X0.225000X-0.250000X0.225000X0.250000X-0.225000X0.250000X0*%
%ADD32RoundRect,0.101600X-0.600000X0.300000X-0.600000X-0.300000X0.600000X-0.300000X0.600000X0.300000X0*%
%ADD33RoundRect,0.101600X-2.000000X0.750000X-2.000000X-0.750000X2.000000X-0.750000X2.000000X0.750000X0*%
%ADD34RoundRect,0.225000X0.225000X0.250000X-0.225000X0.250000X-0.225000X-0.250000X0.225000X-0.250000X0*%
%ADD35RoundRect,0.101600X-0.600000X0.275000X-0.600000X-0.275000X0.600000X-0.275000X0.600000X0.275000X0*%
%ADD36RoundRect,0.101600X0.900000X-0.800000X0.900000X0.800000X-0.900000X0.800000X-0.900000X-0.800000X0*%
%ADD37RoundRect,0.101600X-0.350000X0.150000X-0.350000X-0.150000X0.350000X-0.150000X0.350000X0.150000X0*%
%ADD38RoundRect,0.101600X0.350000X-0.150000X0.350000X0.150000X-0.350000X0.150000X-0.350000X-0.150000X0*%
%ADD39RoundRect,0.101600X0.600000X-0.275000X0.600000X0.275000X-0.600000X0.275000X-0.600000X-0.275000X0*%
%ADD40RoundRect,0.140000X-0.170000X0.140000X-0.170000X-0.140000X0.170000X-0.140000X0.170000X0.140000X0*%
%ADD41RoundRect,0.140000X0.170000X-0.140000X0.170000X0.140000X-0.170000X0.140000X-0.170000X-0.140000X0*%
%ADD42R,1.500000X0.800000*%
%ADD43R,0.800000X1.500000*%
%ADD44R,1.100000X1.100000*%
%ADD45C,1.100000*%
G04 APERTURE END LIST*
%TO.C,BT1*%
G36*
X15405000Y61679645D02*
G01*
X12919645Y64165000D01*
X15405000Y64165000D01*
X15405000Y61679645D01*
G37*
G36*
X15400000Y58760000D02*
G01*
X11200000Y58760000D01*
X11200000Y60460000D01*
X15400000Y60460000D01*
X15400000Y58760000D01*
G37*
G36*
X69753000Y10379645D02*
G01*
X67267645Y12865000D01*
X69753000Y12865000D01*
X69753000Y10379645D01*
G37*
G36*
X69748000Y7460000D02*
G01*
X65548000Y7460000D01*
X65548000Y9160000D01*
X69748000Y9160000D01*
X69748000Y7460000D01*
G37*
G36*
X69753000Y61679645D02*
G01*
X67267645Y64165000D01*
X69753000Y64165000D01*
X69753000Y61679645D01*
G37*
G36*
X69748000Y58760000D02*
G01*
X65548000Y58760000D01*
X65548000Y60460000D01*
X69748000Y60460000D01*
X69748000Y58760000D01*
G37*
G36*
X15405000Y10379645D02*
G01*
X12919645Y12865000D01*
X15405000Y12865000D01*
X15405000Y10379645D01*
G37*
G36*
X15400000Y7460000D02*
G01*
X11200000Y7460000D01*
X11200000Y9160000D01*
X15400000Y9160000D01*
X15400000Y7460000D01*
G37*
%TD*%
D10*
%TO.C,*%
X-1048000Y-3675000D03*
%TD*%
D11*
%TO.C,D4*%
X61485500Y66540000D03*
X59910500Y66540000D03*
%TD*%
%TO.C,D4*%
X61485500Y15240000D03*
X59910500Y15240000D03*
%TD*%
%TO.C,D4*%
X7137500Y66540000D03*
X5562500Y66540000D03*
%TD*%
%TO.C,D4*%
X7137500Y15240000D03*
X5562500Y15240000D03*
%TD*%
D12*
%TO.C,R12*%
X89908000Y38545000D03*
X89908000Y40195000D03*
%TD*%
%TO.C,R12*%
X35560000Y89845000D03*
X35560000Y91495000D03*
%TD*%
%TO.C,R12*%
X89908000Y89845000D03*
X89908000Y91495000D03*
%TD*%
%TO.C,R12*%
X35560000Y38545000D03*
X35560000Y40195000D03*
%TD*%
D13*
%TO.C,FID3*%
X1270000Y95750000D03*
%TD*%
%TO.C,FID3*%
X55618000Y95750000D03*
%TD*%
%TO.C,FID3*%
X55618000Y44450000D03*
%TD*%
%TO.C,FID3*%
X1270000Y44450000D03*
%TD*%
D12*
%TO.C,R28*%
X84828000Y89845000D03*
X84828000Y91495000D03*
%TD*%
%TO.C,R28*%
X30480000Y89845000D03*
X30480000Y91495000D03*
%TD*%
%TO.C,R28*%
X84828000Y38545000D03*
X84828000Y40195000D03*
%TD*%
%TO.C,R28*%
X30480000Y38545000D03*
X30480000Y40195000D03*
%TD*%
D14*
%TO.C,R8*%
X67873000Y5080000D03*
X66223000Y5080000D03*
%TD*%
%TO.C,R8*%
X67873000Y56380000D03*
X66223000Y56380000D03*
%TD*%
%TO.C,R8*%
X13525000Y56380000D03*
X11875000Y56380000D03*
%TD*%
%TO.C,R8*%
X13525000Y5080000D03*
X11875000Y5080000D03*
%TD*%
D12*
%TO.C,R34*%
X92448000Y38545000D03*
X92448000Y40195000D03*
%TD*%
%TO.C,R34*%
X92448000Y89845000D03*
X92448000Y91495000D03*
%TD*%
%TO.C,R34*%
X38100000Y89845000D03*
X38100000Y91495000D03*
%TD*%
%TO.C,R34*%
X38100000Y38545000D03*
X38100000Y40195000D03*
%TD*%
D15*
%TO.C,R3*%
X66223000Y15240000D03*
X67873000Y15240000D03*
%TD*%
%TO.C,R3*%
X66223000Y66540000D03*
X67873000Y66540000D03*
%TD*%
%TO.C,R3*%
X11875000Y66540000D03*
X13525000Y66540000D03*
%TD*%
%TO.C,R3*%
X11875000Y15240000D03*
X13525000Y15240000D03*
%TD*%
D16*
%TO.C,C5*%
X8890000Y87635000D03*
X8890000Y86085000D03*
%TD*%
%TO.C,C5*%
X63238000Y87635000D03*
X63238000Y86085000D03*
%TD*%
%TO.C,C5*%
X63238000Y36335000D03*
X63238000Y34785000D03*
%TD*%
%TO.C,C5*%
X8890000Y36335000D03*
X8890000Y34785000D03*
%TD*%
D15*
%TO.C,R6*%
X11875000Y69100000D03*
X13525000Y69100000D03*
%TD*%
%TO.C,R6*%
X66223000Y17800000D03*
X67873000Y17800000D03*
%TD*%
%TO.C,R6*%
X66223000Y69100000D03*
X67873000Y69100000D03*
%TD*%
%TO.C,R6*%
X11875000Y17800000D03*
X13525000Y17800000D03*
%TD*%
%TO.C,R15*%
X63683000Y22860000D03*
X65333000Y22860000D03*
%TD*%
%TO.C,R15*%
X9335000Y74160000D03*
X10985000Y74160000D03*
%TD*%
%TO.C,R15*%
X63683000Y74160000D03*
X65333000Y74160000D03*
%TD*%
%TO.C,R15*%
X9335000Y22860000D03*
X10985000Y22860000D03*
%TD*%
D17*
%TO.C,J1*%
X59253000Y28290000D03*
X59253000Y22510000D03*
D18*
X60358000Y26650000D03*
X60358000Y25650000D03*
D19*
X60358000Y25150000D03*
X60358000Y24150000D03*
X60358000Y23650000D03*
X60358000Y24650000D03*
D18*
X60358000Y26150000D03*
X60358000Y27150000D03*
D20*
X60358000Y28625000D03*
D21*
X60358000Y22175000D03*
D22*
X55603000Y29718000D03*
D23*
X59783000Y29718000D03*
X59783000Y21082000D03*
D22*
X55603000Y21082000D03*
D20*
X60358000Y27850000D03*
D21*
X60358000Y22950000D03*
%TD*%
D17*
%TO.C,J1*%
X59253000Y79590000D03*
X59253000Y73810000D03*
D18*
X60358000Y77950000D03*
X60358000Y76950000D03*
D19*
X60358000Y76450000D03*
X60358000Y75450000D03*
X60358000Y74950000D03*
X60358000Y75950000D03*
D18*
X60358000Y77450000D03*
X60358000Y78450000D03*
D20*
X60358000Y79925000D03*
D21*
X60358000Y73475000D03*
D22*
X55603000Y81018000D03*
D23*
X59783000Y81018000D03*
X59783000Y72382000D03*
D22*
X55603000Y72382000D03*
D20*
X60358000Y79150000D03*
D21*
X60358000Y74250000D03*
%TD*%
D17*
%TO.C,J1*%
X4905000Y79590000D03*
X4905000Y73810000D03*
D18*
X6010000Y77950000D03*
X6010000Y76950000D03*
D19*
X6010000Y76450000D03*
X6010000Y75450000D03*
X6010000Y74950000D03*
X6010000Y75950000D03*
D18*
X6010000Y77450000D03*
X6010000Y78450000D03*
D20*
X6010000Y79925000D03*
D21*
X6010000Y73475000D03*
D22*
X1255000Y81018000D03*
D23*
X5435000Y81018000D03*
X5435000Y72382000D03*
D22*
X1255000Y72382000D03*
D20*
X6010000Y79150000D03*
D21*
X6010000Y74250000D03*
%TD*%
D17*
%TO.C,J1*%
X4905000Y28290000D03*
X4905000Y22510000D03*
D18*
X6010000Y26650000D03*
X6010000Y25650000D03*
D19*
X6010000Y25150000D03*
X6010000Y24150000D03*
X6010000Y23650000D03*
X6010000Y24650000D03*
D18*
X6010000Y26150000D03*
X6010000Y27150000D03*
D20*
X6010000Y28625000D03*
D21*
X6010000Y22175000D03*
D22*
X1255000Y29718000D03*
D23*
X5435000Y29718000D03*
X5435000Y21082000D03*
D22*
X1255000Y21082000D03*
D20*
X6010000Y27850000D03*
D21*
X6010000Y22950000D03*
%TD*%
D24*
%TO.C,ST2*%
X48260000Y53840000D03*
%TD*%
%TO.C,ST2*%
X102608000Y2540000D03*
%TD*%
%TO.C,ST2*%
X102608000Y53840000D03*
%TD*%
%TO.C,ST2*%
X48260000Y2540000D03*
%TD*%
D25*
%TO.C,R20*%
X26670000Y63555000D03*
X26670000Y61905000D03*
%TD*%
%TO.C,R20*%
X81018000Y63555000D03*
X81018000Y61905000D03*
%TD*%
%TO.C,R20*%
X81018000Y12255000D03*
X81018000Y10605000D03*
%TD*%
%TO.C,R20*%
X26670000Y12255000D03*
X26670000Y10605000D03*
%TD*%
D12*
%TO.C,R18*%
X79748000Y89845000D03*
X79748000Y91495000D03*
%TD*%
%TO.C,R18*%
X25400000Y89845000D03*
X25400000Y91495000D03*
%TD*%
%TO.C,R18*%
X79748000Y38545000D03*
X79748000Y40195000D03*
%TD*%
%TO.C,R18*%
X25400000Y38545000D03*
X25400000Y40195000D03*
%TD*%
D26*
%TO.C,J6*%
X58918000Y63335000D03*
X58918000Y62085000D03*
X58918000Y60835000D03*
X58918000Y59585000D03*
D27*
X55718000Y57735000D03*
X55718000Y65185000D03*
%TD*%
D26*
%TO.C,J6*%
X4570000Y63335000D03*
X4570000Y62085000D03*
X4570000Y60835000D03*
X4570000Y59585000D03*
D27*
X1370000Y57735000D03*
X1370000Y65185000D03*
%TD*%
D26*
%TO.C,J6*%
X58918000Y12035000D03*
X58918000Y10785000D03*
X58918000Y9535000D03*
X58918000Y8285000D03*
D27*
X55718000Y6435000D03*
X55718000Y13885000D03*
%TD*%
D26*
%TO.C,J6*%
X4570000Y12035000D03*
X4570000Y10785000D03*
X4570000Y9535000D03*
X4570000Y8285000D03*
D27*
X1370000Y6435000D03*
X1370000Y13885000D03*
%TD*%
D12*
%TO.C,R29*%
X87368000Y38545000D03*
X87368000Y40195000D03*
%TD*%
%TO.C,R29*%
X33020000Y89845000D03*
X33020000Y91495000D03*
%TD*%
%TO.C,R29*%
X87368000Y89845000D03*
X87368000Y91495000D03*
%TD*%
%TO.C,R29*%
X33020000Y38545000D03*
X33020000Y40195000D03*
%TD*%
D25*
%TO.C,R19*%
X24130000Y63555000D03*
X24130000Y61905000D03*
%TD*%
%TO.C,R19*%
X78478000Y63555000D03*
X78478000Y61905000D03*
%TD*%
%TO.C,R19*%
X78478000Y12255000D03*
X78478000Y10605000D03*
%TD*%
%TO.C,R19*%
X24130000Y12255000D03*
X24130000Y10605000D03*
%TD*%
D28*
%TO.C,D5*%
X70978000Y64000000D03*
X73278000Y64000000D03*
%TD*%
%TO.C,D5*%
X16630000Y64000000D03*
X18930000Y64000000D03*
%TD*%
%TO.C,D5*%
X70978000Y12700000D03*
X73278000Y12700000D03*
%TD*%
%TO.C,D5*%
X16630000Y12700000D03*
X18930000Y12700000D03*
%TD*%
D12*
%TO.C,R13*%
X69588000Y89845000D03*
X69588000Y91495000D03*
%TD*%
%TO.C,R13*%
X15240000Y89845000D03*
X15240000Y91495000D03*
%TD*%
%TO.C,R13*%
X69588000Y38545000D03*
X69588000Y40195000D03*
%TD*%
%TO.C,R13*%
X15240000Y38545000D03*
X15240000Y40195000D03*
%TD*%
D29*
%TO.C,J8*%
X34290000Y100830000D03*
X31750000Y100830000D03*
X29210000Y100830000D03*
X26670000Y100830000D03*
X24130000Y100830000D03*
X21590000Y100830000D03*
X19050000Y100830000D03*
X16510000Y100830000D03*
X13970000Y100830000D03*
%TD*%
%TO.C,J8*%
X88638000Y49530000D03*
X86098000Y49530000D03*
X83558000Y49530000D03*
X81018000Y49530000D03*
X78478000Y49530000D03*
X75938000Y49530000D03*
X73398000Y49530000D03*
X70858000Y49530000D03*
X68318000Y49530000D03*
%TD*%
%TO.C,J8*%
X88638000Y100830000D03*
X86098000Y100830000D03*
X83558000Y100830000D03*
X81018000Y100830000D03*
X78478000Y100830000D03*
X75938000Y100830000D03*
X73398000Y100830000D03*
X70858000Y100830000D03*
X68318000Y100830000D03*
%TD*%
%TO.C,J8*%
X34290000Y49530000D03*
X31750000Y49530000D03*
X29210000Y49530000D03*
X26670000Y49530000D03*
X24130000Y49530000D03*
X21590000Y49530000D03*
X19050000Y49530000D03*
X16510000Y49530000D03*
X13970000Y49530000D03*
%TD*%
D14*
%TO.C,R2*%
X58348000Y82415000D03*
X56698000Y82415000D03*
%TD*%
%TO.C,R2*%
X4000000Y82415000D03*
X2350000Y82415000D03*
%TD*%
%TO.C,R2*%
X58348000Y31115000D03*
X56698000Y31115000D03*
%TD*%
%TO.C,R2*%
X4000000Y31115000D03*
X2350000Y31115000D03*
%TD*%
D15*
%TO.C,R5*%
X56063000Y15240000D03*
X57713000Y15240000D03*
%TD*%
%TO.C,R5*%
X56063000Y66540000D03*
X57713000Y66540000D03*
%TD*%
%TO.C,R5*%
X1715000Y66540000D03*
X3365000Y66540000D03*
%TD*%
%TO.C,R5*%
X1715000Y15240000D03*
X3365000Y15240000D03*
%TD*%
D30*
%TO.C,TP2*%
X13970000Y94480000D03*
%TD*%
%TO.C,TP2*%
X68318000Y94480000D03*
%TD*%
%TO.C,TP2*%
X68318000Y43180000D03*
%TD*%
%TO.C,TP2*%
X13970000Y43180000D03*
%TD*%
D11*
%TO.C,D1*%
X61485500Y17780000D03*
X59910500Y17780000D03*
%TD*%
%TO.C,D1*%
X7137500Y69080000D03*
X5562500Y69080000D03*
%TD*%
%TO.C,D1*%
X61485500Y69080000D03*
X59910500Y69080000D03*
%TD*%
%TO.C,D1*%
X7137500Y17780000D03*
X5562500Y17780000D03*
%TD*%
D15*
%TO.C,R4*%
X1715000Y69080000D03*
X3365000Y69080000D03*
%TD*%
%TO.C,R4*%
X56063000Y69080000D03*
X57713000Y69080000D03*
%TD*%
%TO.C,R4*%
X56063000Y17780000D03*
X57713000Y17780000D03*
%TD*%
%TO.C,R4*%
X1715000Y17780000D03*
X3365000Y17780000D03*
%TD*%
D16*
%TO.C,C2*%
X6350000Y87635000D03*
X6350000Y86085000D03*
%TD*%
%TO.C,C2*%
X60698000Y36335000D03*
X60698000Y34785000D03*
%TD*%
%TO.C,C2*%
X60698000Y87635000D03*
X60698000Y86085000D03*
%TD*%
%TO.C,C2*%
X6350000Y36335000D03*
X6350000Y34785000D03*
%TD*%
D11*
%TO.C,D2*%
X17297500Y66540000D03*
X15722500Y66540000D03*
%TD*%
%TO.C,D2*%
X71645500Y15240000D03*
X70070500Y15240000D03*
%TD*%
%TO.C,D2*%
X71645500Y66540000D03*
X70070500Y66540000D03*
%TD*%
%TO.C,D2*%
X17297500Y15240000D03*
X15722500Y15240000D03*
%TD*%
D10*
%TO.C,*%
X-1048000Y105775000D03*
%TD*%
D31*
%TO.C,L2*%
X67543000Y85590000D03*
X69093000Y85590000D03*
%TD*%
%TO.C,L2*%
X13195000Y85590000D03*
X14745000Y85590000D03*
%TD*%
%TO.C,L2*%
X67543000Y34290000D03*
X69093000Y34290000D03*
%TD*%
%TO.C,L2*%
X13195000Y34290000D03*
X14745000Y34290000D03*
%TD*%
D15*
%TO.C,R16*%
X63683000Y20320000D03*
X65333000Y20320000D03*
%TD*%
%TO.C,R16*%
X63683000Y71620000D03*
X65333000Y71620000D03*
%TD*%
%TO.C,R16*%
X9335000Y71620000D03*
X10985000Y71620000D03*
%TD*%
%TO.C,R16*%
X9335000Y20320000D03*
X10985000Y20320000D03*
%TD*%
D12*
%TO.C,R33*%
X72128000Y38545000D03*
X72128000Y40195000D03*
%TD*%
%TO.C,R33*%
X17780000Y89845000D03*
X17780000Y91495000D03*
%TD*%
%TO.C,R33*%
X72128000Y89845000D03*
X72128000Y91495000D03*
%TD*%
%TO.C,R33*%
X17780000Y38545000D03*
X17780000Y40195000D03*
%TD*%
D32*
%TO.C,U8*%
X13710000Y81145000D03*
X13710000Y79875000D03*
X13710000Y78605000D03*
X13710000Y77335000D03*
X13710000Y76065000D03*
X13710000Y74795000D03*
X13710000Y73525000D03*
X13710000Y72255000D03*
X19310000Y72255000D03*
X19310000Y73525000D03*
X19310000Y74795000D03*
X19310000Y76065000D03*
X19310000Y77335000D03*
X19310000Y78605000D03*
X19310000Y79875000D03*
X19310000Y81145000D03*
%TD*%
%TO.C,U8*%
X68058000Y29845000D03*
X68058000Y28575000D03*
X68058000Y27305000D03*
X68058000Y26035000D03*
X68058000Y24765000D03*
X68058000Y23495000D03*
X68058000Y22225000D03*
X68058000Y20955000D03*
X73658000Y20955000D03*
X73658000Y22225000D03*
X73658000Y23495000D03*
X73658000Y24765000D03*
X73658000Y26035000D03*
X73658000Y27305000D03*
X73658000Y28575000D03*
X73658000Y29845000D03*
%TD*%
%TO.C,U8*%
X68058000Y81145000D03*
X68058000Y79875000D03*
X68058000Y78605000D03*
X68058000Y77335000D03*
X68058000Y76065000D03*
X68058000Y74795000D03*
X68058000Y73525000D03*
X68058000Y72255000D03*
X73658000Y72255000D03*
X73658000Y73525000D03*
X73658000Y74795000D03*
X73658000Y76065000D03*
X73658000Y77335000D03*
X73658000Y78605000D03*
X73658000Y79875000D03*
X73658000Y81145000D03*
%TD*%
%TO.C,U8*%
X13710000Y29845000D03*
X13710000Y28575000D03*
X13710000Y27305000D03*
X13710000Y26035000D03*
X13710000Y24765000D03*
X13710000Y23495000D03*
X13710000Y22225000D03*
X13710000Y20955000D03*
X19310000Y20955000D03*
X19310000Y22225000D03*
X19310000Y23495000D03*
X19310000Y24765000D03*
X19310000Y26035000D03*
X19310000Y27305000D03*
X19310000Y28575000D03*
X19310000Y29845000D03*
%TD*%
D13*
%TO.C,FID4*%
X44450000Y52570000D03*
%TD*%
%TO.C,FID4*%
X98798000Y1270000D03*
%TD*%
%TO.C,FID4*%
X98798000Y52570000D03*
%TD*%
%TO.C,FID4*%
X44450000Y1270000D03*
%TD*%
D31*
%TO.C,C15*%
X18275000Y85590000D03*
X19825000Y85590000D03*
%TD*%
%TO.C,C15*%
X72623000Y34290000D03*
X74173000Y34290000D03*
%TD*%
%TO.C,C15*%
X72623000Y85590000D03*
X74173000Y85590000D03*
%TD*%
%TO.C,C15*%
X18275000Y34290000D03*
X19825000Y34290000D03*
%TD*%
D33*
%TO.C,J5*%
X46953150Y74795000D03*
X46953150Y69715000D03*
X46953150Y72255000D03*
%TD*%
%TO.C,J5*%
X101301150Y23495000D03*
X101301150Y18415000D03*
X101301150Y20955000D03*
%TD*%
%TO.C,J5*%
X101301150Y74795000D03*
X101301150Y69715000D03*
X101301150Y72255000D03*
%TD*%
%TO.C,J5*%
X46953150Y23495000D03*
X46953150Y18415000D03*
X46953150Y20955000D03*
%TD*%
D34*
%TO.C,C16*%
X69093000Y88130000D03*
X67543000Y88130000D03*
%TD*%
%TO.C,C16*%
X14745000Y88130000D03*
X13195000Y88130000D03*
%TD*%
%TO.C,C16*%
X69093000Y36830000D03*
X67543000Y36830000D03*
%TD*%
%TO.C,C16*%
X14745000Y36830000D03*
X13195000Y36830000D03*
%TD*%
D14*
%TO.C,R1*%
X4000000Y70985000D03*
X2350000Y70985000D03*
%TD*%
%TO.C,R1*%
X58348000Y19685000D03*
X56698000Y19685000D03*
%TD*%
%TO.C,R1*%
X58348000Y70985000D03*
X56698000Y70985000D03*
%TD*%
%TO.C,R1*%
X4000000Y19685000D03*
X2350000Y19685000D03*
%TD*%
D29*
%TO.C,J7*%
X78478000Y1270000D03*
X81018000Y1270000D03*
X83558000Y1270000D03*
X86098000Y1270000D03*
X88638000Y1270000D03*
X91178000Y1270000D03*
%TD*%
%TO.C,J7*%
X24130000Y52570000D03*
X26670000Y52570000D03*
X29210000Y52570000D03*
X31750000Y52570000D03*
X34290000Y52570000D03*
X36830000Y52570000D03*
%TD*%
%TO.C,J7*%
X78478000Y52570000D03*
X81018000Y52570000D03*
X83558000Y52570000D03*
X86098000Y52570000D03*
X88638000Y52570000D03*
X91178000Y52570000D03*
%TD*%
%TO.C,J7*%
X24130000Y1270000D03*
X26670000Y1270000D03*
X29210000Y1270000D03*
X31750000Y1270000D03*
X34290000Y1270000D03*
X36830000Y1270000D03*
%TD*%
D24*
%TO.C,ST1*%
X48260000Y99560000D03*
%TD*%
%TO.C,ST1*%
X102608000Y48260000D03*
%TD*%
%TO.C,ST1*%
X102608000Y99560000D03*
%TD*%
%TO.C,ST1*%
X48260000Y48260000D03*
%TD*%
D35*
%TO.C,U2*%
X1239900Y87810000D03*
X1239900Y86860000D03*
X1239900Y85910000D03*
X3840100Y85910000D03*
X3840100Y87810000D03*
%TD*%
%TO.C,U2*%
X55587900Y87810000D03*
X55587900Y86860000D03*
X55587900Y85910000D03*
X58188100Y85910000D03*
X58188100Y87810000D03*
%TD*%
%TO.C,U2*%
X55587900Y36510000D03*
X55587900Y35560000D03*
X55587900Y34610000D03*
X58188100Y34610000D03*
X58188100Y36510000D03*
%TD*%
%TO.C,U2*%
X1239900Y36510000D03*
X1239900Y35560000D03*
X1239900Y34610000D03*
X3840100Y34610000D03*
X3840100Y36510000D03*
%TD*%
D31*
%TO.C,C4*%
X41389000Y76446000D03*
X42939000Y76446000D03*
%TD*%
%TO.C,C4*%
X95737000Y25146000D03*
X97287000Y25146000D03*
%TD*%
%TO.C,C4*%
X95737000Y76446000D03*
X97287000Y76446000D03*
%TD*%
%TO.C,C4*%
X41389000Y25146000D03*
X42939000Y25146000D03*
%TD*%
D30*
%TO.C,TP1*%
X16510000Y94480000D03*
%TD*%
%TO.C,TP1*%
X70858000Y43180000D03*
%TD*%
%TO.C,TP1*%
X70858000Y94480000D03*
%TD*%
%TO.C,TP1*%
X16510000Y43180000D03*
%TD*%
D12*
%TO.C,R27*%
X27940000Y89845000D03*
X27940000Y91495000D03*
%TD*%
%TO.C,R27*%
X82288000Y38545000D03*
X82288000Y40195000D03*
%TD*%
%TO.C,R27*%
X82288000Y89845000D03*
X82288000Y91495000D03*
%TD*%
%TO.C,R27*%
X27940000Y38545000D03*
X27940000Y40195000D03*
%TD*%
D16*
%TO.C,C8*%
X11430000Y87635000D03*
X11430000Y86085000D03*
%TD*%
%TO.C,C8*%
X65778000Y87635000D03*
X65778000Y86085000D03*
%TD*%
%TO.C,C8*%
X65778000Y36335000D03*
X65778000Y34785000D03*
%TD*%
%TO.C,C8*%
X11430000Y36335000D03*
X11430000Y34785000D03*
%TD*%
D36*
%TO.C,F1*%
X64508000Y29080000D03*
X64508000Y31880000D03*
%TD*%
%TO.C,F1*%
X64508000Y80380000D03*
X64508000Y83180000D03*
%TD*%
%TO.C,F1*%
X10160000Y80380000D03*
X10160000Y83180000D03*
%TD*%
%TO.C,F1*%
X10160000Y29080000D03*
X10160000Y31880000D03*
%TD*%
D11*
%TO.C,D3*%
X17287500Y69100000D03*
X15712500Y69100000D03*
%TD*%
%TO.C,D3*%
X71635500Y69100000D03*
X70060500Y69100000D03*
%TD*%
%TO.C,D3*%
X71635500Y17800000D03*
X70060500Y17800000D03*
%TD*%
%TO.C,D3*%
X17287500Y17800000D03*
X15712500Y17800000D03*
%TD*%
D16*
%TO.C,C7*%
X94734000Y72268000D03*
X94734000Y70718000D03*
%TD*%
%TO.C,C7*%
X94734000Y20968000D03*
X94734000Y19418000D03*
%TD*%
%TO.C,C7*%
X40386000Y72268000D03*
X40386000Y70718000D03*
%TD*%
%TO.C,C7*%
X40386000Y20968000D03*
X40386000Y19418000D03*
%TD*%
D37*
%TO.C,D10*%
X77678000Y95130000D03*
X77678000Y94480000D03*
X77678000Y93830000D03*
X79278000Y93830000D03*
X79278000Y95130000D03*
%TD*%
%TO.C,D10*%
X77678000Y43830000D03*
X77678000Y43180000D03*
X77678000Y42530000D03*
X79278000Y42530000D03*
X79278000Y43830000D03*
%TD*%
%TO.C,D10*%
X23330000Y95130000D03*
X23330000Y94480000D03*
X23330000Y93830000D03*
X24930000Y93830000D03*
X24930000Y95130000D03*
%TD*%
%TO.C,D10*%
X23330000Y43830000D03*
X23330000Y43180000D03*
X23330000Y42530000D03*
X24930000Y42530000D03*
X24930000Y43830000D03*
%TD*%
D10*
%TO.C,*%
X103148000Y105775000D03*
%TD*%
D31*
%TO.C,C12*%
X72623000Y83050000D03*
X74173000Y83050000D03*
%TD*%
%TO.C,C12*%
X18275000Y83050000D03*
X19825000Y83050000D03*
%TD*%
%TO.C,C12*%
X72623000Y31750000D03*
X74173000Y31750000D03*
%TD*%
%TO.C,C12*%
X18275000Y31750000D03*
X19825000Y31750000D03*
%TD*%
D12*
%TO.C,R14*%
X67048000Y38545000D03*
X67048000Y40195000D03*
%TD*%
%TO.C,R14*%
X12700000Y89845000D03*
X12700000Y91495000D03*
%TD*%
%TO.C,R14*%
X67048000Y89845000D03*
X67048000Y91495000D03*
%TD*%
%TO.C,R14*%
X12700000Y38545000D03*
X12700000Y40195000D03*
%TD*%
D38*
%TO.C,D11*%
X30010000Y93830000D03*
X30010000Y94480000D03*
X30010000Y95130000D03*
X28410000Y95130000D03*
X28410000Y93830000D03*
%TD*%
%TO.C,D11*%
X84358000Y93830000D03*
X84358000Y94480000D03*
X84358000Y95130000D03*
X82758000Y95130000D03*
X82758000Y93830000D03*
%TD*%
%TO.C,D11*%
X84358000Y42530000D03*
X84358000Y43180000D03*
X84358000Y43830000D03*
X82758000Y43830000D03*
X82758000Y42530000D03*
%TD*%
%TO.C,D11*%
X30010000Y42530000D03*
X30010000Y43180000D03*
X30010000Y43830000D03*
X28410000Y43830000D03*
X28410000Y42530000D03*
%TD*%
D31*
%TO.C,C6*%
X41389000Y74922000D03*
X42939000Y74922000D03*
%TD*%
%TO.C,C6*%
X95737000Y23622000D03*
X97287000Y23622000D03*
%TD*%
%TO.C,C6*%
X95737000Y74922000D03*
X97287000Y74922000D03*
%TD*%
%TO.C,C6*%
X41389000Y23622000D03*
X42939000Y23622000D03*
%TD*%
D29*
%TO.C,J4*%
X19050000Y52570000D03*
X21590000Y52570000D03*
%TD*%
%TO.C,J4*%
X73398000Y52570000D03*
X75938000Y52570000D03*
%TD*%
%TO.C,J4*%
X73398000Y1270000D03*
X75938000Y1270000D03*
%TD*%
%TO.C,J4*%
X19050000Y1270000D03*
X21590000Y1270000D03*
%TD*%
D37*
%TO.C,D9*%
X20790000Y59570000D03*
X20790000Y58920000D03*
X20790000Y58270000D03*
X22390000Y58270000D03*
X22390000Y59570000D03*
%TD*%
%TO.C,D9*%
X75138000Y59570000D03*
X75138000Y58920000D03*
X75138000Y58270000D03*
X76738000Y58270000D03*
X76738000Y59570000D03*
%TD*%
%TO.C,D9*%
X75138000Y8270000D03*
X75138000Y7620000D03*
X75138000Y6970000D03*
X76738000Y6970000D03*
X76738000Y8270000D03*
%TD*%
%TO.C,D9*%
X20790000Y8270000D03*
X20790000Y7620000D03*
X20790000Y6970000D03*
X22390000Y6970000D03*
X22390000Y8270000D03*
%TD*%
D12*
%TO.C,R32*%
X74668000Y89845000D03*
X74668000Y91495000D03*
%TD*%
%TO.C,R32*%
X74668000Y38545000D03*
X74668000Y40195000D03*
%TD*%
%TO.C,R32*%
X20320000Y89845000D03*
X20320000Y91495000D03*
%TD*%
%TO.C,R32*%
X20320000Y38545000D03*
X20320000Y40195000D03*
%TD*%
D25*
%TO.C,R31*%
X87368000Y63555000D03*
X87368000Y61905000D03*
%TD*%
%TO.C,R31*%
X87368000Y12255000D03*
X87368000Y10605000D03*
%TD*%
%TO.C,R31*%
X33020000Y63555000D03*
X33020000Y61905000D03*
%TD*%
%TO.C,R31*%
X33020000Y12255000D03*
X33020000Y10605000D03*
%TD*%
D31*
%TO.C,C1*%
X1765000Y89400000D03*
X3315000Y89400000D03*
%TD*%
%TO.C,C1*%
X56113000Y89400000D03*
X57663000Y89400000D03*
%TD*%
%TO.C,C1*%
X56113000Y38100000D03*
X57663000Y38100000D03*
%TD*%
%TO.C,C1*%
X1765000Y38100000D03*
X3315000Y38100000D03*
%TD*%
D39*
%TO.C,U1*%
X65808100Y24450000D03*
X65808100Y25400000D03*
X65808100Y26350000D03*
X63207900Y26350000D03*
X63207900Y25450000D03*
X63207900Y24450000D03*
%TD*%
%TO.C,U1*%
X11460100Y75750000D03*
X11460100Y76700000D03*
X11460100Y77650000D03*
X8859900Y77650000D03*
X8859900Y76750000D03*
X8859900Y75750000D03*
%TD*%
%TO.C,U1*%
X65808100Y75750000D03*
X65808100Y76700000D03*
X65808100Y77650000D03*
X63207900Y77650000D03*
X63207900Y76750000D03*
X63207900Y75750000D03*
%TD*%
%TO.C,U1*%
X11460100Y24450000D03*
X11460100Y25400000D03*
X11460100Y26350000D03*
X8859900Y26350000D03*
X8859900Y25450000D03*
X8859900Y24450000D03*
%TD*%
D12*
%TO.C,R17*%
X22860000Y89845000D03*
X22860000Y91495000D03*
%TD*%
%TO.C,R17*%
X77208000Y38545000D03*
X77208000Y40195000D03*
%TD*%
%TO.C,R17*%
X77208000Y89845000D03*
X77208000Y91495000D03*
%TD*%
%TO.C,R17*%
X22860000Y38545000D03*
X22860000Y40195000D03*
%TD*%
D34*
%TO.C,C13*%
X69093000Y31750000D03*
X67543000Y31750000D03*
%TD*%
%TO.C,C13*%
X14745000Y83050000D03*
X13195000Y83050000D03*
%TD*%
%TO.C,C13*%
X69093000Y83050000D03*
X67543000Y83050000D03*
%TD*%
%TO.C,C13*%
X14745000Y31750000D03*
X13195000Y31750000D03*
%TD*%
D24*
%TO.C,ST3*%
X56888000Y99560000D03*
%TD*%
%TO.C,ST3*%
X56888000Y48260000D03*
%TD*%
%TO.C,ST3*%
X2540000Y99560000D03*
%TD*%
%TO.C,ST3*%
X2540000Y48260000D03*
%TD*%
D25*
%TO.C,R30*%
X89908000Y63555000D03*
X89908000Y61905000D03*
%TD*%
%TO.C,R30*%
X35560000Y63555000D03*
X35560000Y61905000D03*
%TD*%
%TO.C,R30*%
X89908000Y12255000D03*
X89908000Y10605000D03*
%TD*%
%TO.C,R30*%
X35560000Y12255000D03*
X35560000Y10605000D03*
%TD*%
D31*
%TO.C,C3*%
X17005000Y58920000D03*
X18555000Y58920000D03*
%TD*%
%TO.C,C3*%
X71353000Y7620000D03*
X72903000Y7620000D03*
%TD*%
%TO.C,C3*%
X71353000Y58920000D03*
X72903000Y58920000D03*
%TD*%
%TO.C,C3*%
X17005000Y7620000D03*
X18555000Y7620000D03*
%TD*%
D40*
%TO.C,L1*%
X96131000Y21943000D03*
X96131000Y20983000D03*
%TD*%
%TO.C,L1*%
X41783000Y73243000D03*
X41783000Y72283000D03*
%TD*%
%TO.C,L1*%
X96131000Y73243000D03*
X96131000Y72283000D03*
%TD*%
%TO.C,L1*%
X41783000Y21943000D03*
X41783000Y20983000D03*
%TD*%
D15*
%TO.C,R7*%
X71303000Y10160000D03*
X72953000Y10160000D03*
%TD*%
%TO.C,R7*%
X16955000Y61460000D03*
X18605000Y61460000D03*
%TD*%
%TO.C,R7*%
X71303000Y61460000D03*
X72953000Y61460000D03*
%TD*%
%TO.C,R7*%
X16955000Y10160000D03*
X18605000Y10160000D03*
%TD*%
D41*
%TO.C,D6*%
X43180000Y71267000D03*
X43180000Y72227000D03*
%TD*%
%TO.C,D6*%
X97528000Y19967000D03*
X97528000Y20927000D03*
%TD*%
%TO.C,D6*%
X97528000Y71267000D03*
X97528000Y72227000D03*
%TD*%
%TO.C,D6*%
X43180000Y19967000D03*
X43180000Y20927000D03*
%TD*%
D31*
%TO.C,C17*%
X18275000Y88130000D03*
X19825000Y88130000D03*
%TD*%
%TO.C,C17*%
X72623000Y36830000D03*
X74173000Y36830000D03*
%TD*%
%TO.C,C17*%
X72623000Y88130000D03*
X74173000Y88130000D03*
%TD*%
%TO.C,C17*%
X18275000Y36830000D03*
X19825000Y36830000D03*
%TD*%
D24*
%TO.C,ST4*%
X56888000Y53840000D03*
%TD*%
%TO.C,ST4*%
X2540000Y53840000D03*
%TD*%
%TO.C,ST4*%
X56888000Y2540000D03*
%TD*%
%TO.C,ST4*%
X2540000Y2540000D03*
%TD*%
D42*
%TO.C,U5*%
X37930000Y69550000D03*
X37930000Y70650000D03*
X37930000Y71750000D03*
X37930000Y72850000D03*
X37930000Y73950000D03*
X37930000Y75050000D03*
X37930000Y76150000D03*
X37930000Y77250000D03*
X37930000Y78350000D03*
X37930000Y79450000D03*
X37930000Y80550000D03*
X37930000Y81650000D03*
X37930000Y82750000D03*
X37930000Y83850000D03*
D43*
X37080000Y86650000D03*
X35980000Y86650000D03*
X34880000Y86650000D03*
X33780000Y86650000D03*
X32680000Y86650000D03*
X31580000Y86650000D03*
X30480000Y86650000D03*
X29380000Y86650000D03*
X28280000Y86650000D03*
X27180000Y86650000D03*
X26080000Y86650000D03*
X24980000Y86650000D03*
X23880000Y86650000D03*
D42*
X23030000Y83850000D03*
X23030000Y82750000D03*
X23030000Y81650000D03*
X23030000Y80550000D03*
X23030000Y79450000D03*
X23030000Y78350000D03*
X23030000Y77250000D03*
X23030000Y76150000D03*
X23030000Y75050000D03*
X23030000Y73950000D03*
X23030000Y72850000D03*
X23030000Y71750000D03*
X23030000Y70650000D03*
X23030000Y69550000D03*
D43*
X23880000Y66750000D03*
X24980000Y66750000D03*
X26080000Y66750000D03*
X27180000Y66750000D03*
X28280000Y66750000D03*
X29380000Y66750000D03*
X30480000Y66750000D03*
X31580000Y66750000D03*
X32680000Y66750000D03*
X33780000Y66750000D03*
X34880000Y66750000D03*
X35980000Y66750000D03*
X37080000Y66750000D03*
D44*
X25230000Y69350000D03*
X27330000Y69350000D03*
X29430000Y69350000D03*
X31530000Y69350000D03*
X33630000Y69350000D03*
D45*
X35730000Y69350000D03*
D44*
X25230000Y71450000D03*
X27330000Y71450000D03*
X29430000Y71450000D03*
X31530000Y71450000D03*
X33630000Y71450000D03*
X35730000Y71450000D03*
X25230000Y73550000D03*
X27330000Y73550000D03*
X29430000Y73550000D03*
X31530000Y73550000D03*
X33630000Y73550000D03*
X35730000Y73550000D03*
X25230000Y75650000D03*
X27330000Y75650000D03*
X29430000Y75650000D03*
X31530000Y75650000D03*
X33630000Y75650000D03*
X35730000Y75650000D03*
X25230000Y77750000D03*
X27330000Y77750000D03*
X29430000Y77750000D03*
X31530000Y77750000D03*
X33630000Y77750000D03*
X35730000Y77750000D03*
X25230000Y79850000D03*
X27330000Y79850000D03*
X29430000Y79850000D03*
X31530000Y79850000D03*
X33630000Y79850000D03*
X35730000Y79850000D03*
X25230000Y81950000D03*
X27330000Y81950000D03*
X29430000Y81950000D03*
X31530000Y81950000D03*
X33630000Y81950000D03*
X35730000Y81950000D03*
X25230000Y84050000D03*
X27330000Y84050000D03*
X29430000Y84050000D03*
X31530000Y84050000D03*
X33630000Y84050000D03*
X35730000Y84050000D03*
%TD*%
D42*
%TO.C,U5*%
X92278000Y69550000D03*
X92278000Y70650000D03*
X92278000Y71750000D03*
X92278000Y72850000D03*
X92278000Y73950000D03*
X92278000Y75050000D03*
X92278000Y76150000D03*
X92278000Y77250000D03*
X92278000Y78350000D03*
X92278000Y79450000D03*
X92278000Y80550000D03*
X92278000Y81650000D03*
X92278000Y82750000D03*
X92278000Y83850000D03*
D43*
X91428000Y86650000D03*
X90328000Y86650000D03*
X89228000Y86650000D03*
X88128000Y86650000D03*
X87028000Y86650000D03*
X85928000Y86650000D03*
X84828000Y86650000D03*
X83728000Y86650000D03*
X82628000Y86650000D03*
X81528000Y86650000D03*
X80428000Y86650000D03*
X79328000Y86650000D03*
X78228000Y86650000D03*
D42*
X77378000Y83850000D03*
X77378000Y82750000D03*
X77378000Y81650000D03*
X77378000Y80550000D03*
X77378000Y79450000D03*
X77378000Y78350000D03*
X77378000Y77250000D03*
X77378000Y76150000D03*
X77378000Y75050000D03*
X77378000Y73950000D03*
X77378000Y72850000D03*
X77378000Y71750000D03*
X77378000Y70650000D03*
X77378000Y69550000D03*
D43*
X78228000Y66750000D03*
X79328000Y66750000D03*
X80428000Y66750000D03*
X81528000Y66750000D03*
X82628000Y66750000D03*
X83728000Y66750000D03*
X84828000Y66750000D03*
X85928000Y66750000D03*
X87028000Y66750000D03*
X88128000Y66750000D03*
X89228000Y66750000D03*
X90328000Y66750000D03*
X91428000Y66750000D03*
D44*
X79578000Y69350000D03*
X81678000Y69350000D03*
X83778000Y69350000D03*
X85878000Y69350000D03*
X87978000Y69350000D03*
D45*
X90078000Y69350000D03*
D44*
X79578000Y71450000D03*
X81678000Y71450000D03*
X83778000Y71450000D03*
X85878000Y71450000D03*
X87978000Y71450000D03*
X90078000Y71450000D03*
X79578000Y73550000D03*
X81678000Y73550000D03*
X83778000Y73550000D03*
X85878000Y73550000D03*
X87978000Y73550000D03*
X90078000Y73550000D03*
X79578000Y75650000D03*
X81678000Y75650000D03*
X83778000Y75650000D03*
X85878000Y75650000D03*
X87978000Y75650000D03*
X90078000Y75650000D03*
X79578000Y77750000D03*
X81678000Y77750000D03*
X83778000Y77750000D03*
X85878000Y77750000D03*
X87978000Y77750000D03*
X90078000Y77750000D03*
X79578000Y79850000D03*
X81678000Y79850000D03*
X83778000Y79850000D03*
X85878000Y79850000D03*
X87978000Y79850000D03*
X90078000Y79850000D03*
X79578000Y81950000D03*
X81678000Y81950000D03*
X83778000Y81950000D03*
X85878000Y81950000D03*
X87978000Y81950000D03*
X90078000Y81950000D03*
X79578000Y84050000D03*
X81678000Y84050000D03*
X83778000Y84050000D03*
X85878000Y84050000D03*
X87978000Y84050000D03*
X90078000Y84050000D03*
%TD*%
D42*
%TO.C,U5*%
X92278000Y18250000D03*
X92278000Y19350000D03*
X92278000Y20450000D03*
X92278000Y21550000D03*
X92278000Y22650000D03*
X92278000Y23750000D03*
X92278000Y24850000D03*
X92278000Y25950000D03*
X92278000Y27050000D03*
X92278000Y28150000D03*
X92278000Y29250000D03*
X92278000Y30350000D03*
X92278000Y31450000D03*
X92278000Y32550000D03*
D43*
X91428000Y35350000D03*
X90328000Y35350000D03*
X89228000Y35350000D03*
X88128000Y35350000D03*
X87028000Y35350000D03*
X85928000Y35350000D03*
X84828000Y35350000D03*
X83728000Y35350000D03*
X82628000Y35350000D03*
X81528000Y35350000D03*
X80428000Y35350000D03*
X79328000Y35350000D03*
X78228000Y35350000D03*
D42*
X77378000Y32550000D03*
X77378000Y31450000D03*
X77378000Y30350000D03*
X77378000Y29250000D03*
X77378000Y28150000D03*
X77378000Y27050000D03*
X77378000Y25950000D03*
X77378000Y24850000D03*
X77378000Y23750000D03*
X77378000Y22650000D03*
X77378000Y21550000D03*
X77378000Y20450000D03*
X77378000Y19350000D03*
X77378000Y18250000D03*
D43*
X78228000Y15450000D03*
X79328000Y15450000D03*
X80428000Y15450000D03*
X81528000Y15450000D03*
X82628000Y15450000D03*
X83728000Y15450000D03*
X84828000Y15450000D03*
X85928000Y15450000D03*
X87028000Y15450000D03*
X88128000Y15450000D03*
X89228000Y15450000D03*
X90328000Y15450000D03*
X91428000Y15450000D03*
D44*
X79578000Y18050000D03*
X81678000Y18050000D03*
X83778000Y18050000D03*
X85878000Y18050000D03*
X87978000Y18050000D03*
D45*
X90078000Y18050000D03*
D44*
X79578000Y20150000D03*
X81678000Y20150000D03*
X83778000Y20150000D03*
X85878000Y20150000D03*
X87978000Y20150000D03*
X90078000Y20150000D03*
X79578000Y22250000D03*
X81678000Y22250000D03*
X83778000Y22250000D03*
X85878000Y22250000D03*
X87978000Y22250000D03*
X90078000Y22250000D03*
X79578000Y24350000D03*
X81678000Y24350000D03*
X83778000Y24350000D03*
X85878000Y24350000D03*
X87978000Y24350000D03*
X90078000Y24350000D03*
X79578000Y26450000D03*
X81678000Y26450000D03*
X83778000Y26450000D03*
X85878000Y26450000D03*
X87978000Y26450000D03*
X90078000Y26450000D03*
X79578000Y28550000D03*
X81678000Y28550000D03*
X83778000Y28550000D03*
X85878000Y28550000D03*
X87978000Y28550000D03*
X90078000Y28550000D03*
X79578000Y30650000D03*
X81678000Y30650000D03*
X83778000Y30650000D03*
X85878000Y30650000D03*
X87978000Y30650000D03*
X90078000Y30650000D03*
X79578000Y32750000D03*
X81678000Y32750000D03*
X83778000Y32750000D03*
X85878000Y32750000D03*
X87978000Y32750000D03*
X90078000Y32750000D03*
%TD*%
D42*
%TO.C,U5*%
X37930000Y18250000D03*
X37930000Y19350000D03*
X37930000Y20450000D03*
X37930000Y21550000D03*
X37930000Y22650000D03*
X37930000Y23750000D03*
X37930000Y24850000D03*
X37930000Y25950000D03*
X37930000Y27050000D03*
X37930000Y28150000D03*
X37930000Y29250000D03*
X37930000Y30350000D03*
X37930000Y31450000D03*
X37930000Y32550000D03*
D43*
X37080000Y35350000D03*
X35980000Y35350000D03*
X34880000Y35350000D03*
X33780000Y35350000D03*
X32680000Y35350000D03*
X31580000Y35350000D03*
X30480000Y35350000D03*
X29380000Y35350000D03*
X28280000Y35350000D03*
X27180000Y35350000D03*
X26080000Y35350000D03*
X24980000Y35350000D03*
X23880000Y35350000D03*
D42*
X23030000Y32550000D03*
X23030000Y31450000D03*
X23030000Y30350000D03*
X23030000Y29250000D03*
X23030000Y28150000D03*
X23030000Y27050000D03*
X23030000Y25950000D03*
X23030000Y24850000D03*
X23030000Y23750000D03*
X23030000Y22650000D03*
X23030000Y21550000D03*
X23030000Y20450000D03*
X23030000Y19350000D03*
X23030000Y18250000D03*
D43*
X23880000Y15450000D03*
X24980000Y15450000D03*
X26080000Y15450000D03*
X27180000Y15450000D03*
X28280000Y15450000D03*
X29380000Y15450000D03*
X30480000Y15450000D03*
X31580000Y15450000D03*
X32680000Y15450000D03*
X33780000Y15450000D03*
X34880000Y15450000D03*
X35980000Y15450000D03*
X37080000Y15450000D03*
D44*
X25230000Y18050000D03*
X27330000Y18050000D03*
X29430000Y18050000D03*
X31530000Y18050000D03*
X33630000Y18050000D03*
D45*
X35730000Y18050000D03*
D44*
X25230000Y20150000D03*
X27330000Y20150000D03*
X29430000Y20150000D03*
X31530000Y20150000D03*
X33630000Y20150000D03*
X35730000Y20150000D03*
X25230000Y22250000D03*
X27330000Y22250000D03*
X29430000Y22250000D03*
X31530000Y22250000D03*
X33630000Y22250000D03*
X35730000Y22250000D03*
X25230000Y24350000D03*
X27330000Y24350000D03*
X29430000Y24350000D03*
X31530000Y24350000D03*
X33630000Y24350000D03*
X35730000Y24350000D03*
X25230000Y26450000D03*
X27330000Y26450000D03*
X29430000Y26450000D03*
X31530000Y26450000D03*
X33630000Y26450000D03*
X35730000Y26450000D03*
X25230000Y28550000D03*
X27330000Y28550000D03*
X29430000Y28550000D03*
X31530000Y28550000D03*
X33630000Y28550000D03*
X35730000Y28550000D03*
X25230000Y30650000D03*
X27330000Y30650000D03*
X29430000Y30650000D03*
X31530000Y30650000D03*
X33630000Y30650000D03*
X35730000Y30650000D03*
X25230000Y32750000D03*
X27330000Y32750000D03*
X29430000Y32750000D03*
X31530000Y32750000D03*
X33630000Y32750000D03*
X35730000Y32750000D03*
%TD*%
M02*
